<?xml version="1.0" encoding="utf-8"?>
<!-- Generator: Adobe Illustrator 19.0.0, SVG Export Plug-In . SVG Version: 6.00 Build 0)  -->
<svg version="1.1" id="Ebene_1" xmlns="http://www.w3.org/2000/svg" xmlns:xlink="http://www.w3.org/1999/xlink" x="0px" y="0px"
	 viewBox="0 0 595.3 595.3" style="enable-background:new 0 0 595.3 595.3;" xml:space="preserve">
<style type="text/css">
	.st0{fill:#FFFFFF;}
</style>
<g id="XMLID_2_">
	<g id="XMLID_24_">
		<path id="XMLID_39_" d="M236.4,47.6c0,12.8,0,25.6,0,38.4c0,1.3,0,1.3-1.3,1.3c-13.3,0-26.6,0-39.9,0c-0.2,0-0.3,0-0.5,0
			c-1.1,0-1.3-0.2-1.3-1.3c0-8.4,0-16.9,0-25.3c0-0.7-0.2-1.2-0.8-1.7c-5-3.9-9.9-7.8-14.8-11.6c-0.7-0.6-1-1.1-1-2
			c0-12.2,0-24.3,0-36.5c0-0.9,0.1-1,1.1-1c6,0,12,0,17.9,0c13.2,0,26.3,0.1,39.5,0.1c0.9,0,1,0.1,1,1.1
			C236.4,21.9,236.4,34.7,236.4,47.6z M235,47.6c0-12.5,0-25,0-37.4c0-0.7-0.1-1-0.9-1c-18.3,0-36.7,0-55,0c-0.7,0-0.8,0.2-0.8,0.8
			c0,3,0,5.9,0,8.9c0,8.7,0,17.5,0,26.2c0,0.4,0.2,1,0.5,1.2c5,4,10,8,15.1,11.9c0.6,0.5,0.9,1,0.9,1.8c0,8.2,0,16.5,0,24.7
			c0,1.1,0,1.1,1.1,1.1c12.7,0,25.3,0,38,0c1.1,0,1.1,0,1.1-1.1C235,72.4,235,60,235,47.6z"/>
		<path id="XMLID_36_" d="M206.6,13.5c7.6,0,15.2,0,22.8,0c1.3,0,1.3,0,1.3,1.2c0,9.6,0,19.3,0,28.9c0,3.1,0,6.1,0,9.2
			c0,9.5-0.1,19-0.1,28.6c0,0.7-0.2,1-0.9,0.9c-9.6,0-19.2,0-28.8,0c-1.1,0-1.1,0-1.1-1.1c0-7.7,0-15.4-0.1-23.1
			c0-0.3-0.2-0.8-0.5-1c-5.3-4.2-10.6-8.3-16-12.4c-0.5-0.4-0.5-0.7-0.5-1.2c0-9.4,0-18.8,0-28.2c0-1.9-0.3-1.8,1.8-1.8
			C191.7,13.4,199.2,13.4,206.6,13.5C206.6,13.4,206.6,13.4,206.6,13.5z M206.6,14.5C206.6,14.5,206.6,14.5,206.6,14.5
			c-7.4,0-14.8,0-22.2,0c-0.6,0-0.9,0.1-0.9,0.8c0,9.3,0,18.6,0,27.9c0,0.3,0.3,0.8,0.5,1c1.4,1.2,2.9,2.3,4.3,3.4
			c3.9,3,7.8,6,11.6,9c0.2,0.2,0.4,0.6,0.5,0.9c0.1,3.2,0.1,6.3,0.1,9.5c0,4.5,0,8.9,0,13.4c0,1.1,0,1.2,1.1,1.1
			c8.9,0,17.8,0,26.6,0c1,0,1,0,1-1.1c0-5.3,0-10.6,0-15.9c0-7.6,0.1-15.2,0.1-22.7c0-8.7,0-17.4,0-26.2c0-0.8-0.2-1-1-1
			C221.3,14.5,214,14.5,206.6,14.5z"/>
		<path id="XMLID_35_" d="M230.9,13.4c0-0.2-0.2-0.5-0.1-0.6c1-1,2.1-2,3.1-2.9c0.1-0.1,0.3,0,0.4,0c0,0.2,0,0.4-0.1,0.5
			c-1,1-2.1,1.9-3.1,2.8C231.1,13.2,231.1,13.3,230.9,13.4z"/>
		<path id="XMLID_34_" d="M195.6,85.5c0-0.1-0.1-0.2-0.1-0.3c0-0.1,0-0.3,0.1-0.3c1.1-0.9,2.2-1.7,3.4-2.6c0.1-0.1,0.3,0,0.4,0.1
			c0.1,0.1,0.1,0.4,0,0.4c-1.1,0.9-2.3,1.7-3.4,2.6C195.8,85.4,195.8,85.4,195.6,85.5z"/>
		<path id="XMLID_33_" d="M234.9,85.4c-0.3,0-0.6,0.2-0.7,0.1c-1.1-0.8-2.2-1.6-3.2-2.5c-0.1-0.1-0.1-0.3-0.1-0.5
			c0.1,0,0.3-0.1,0.4-0.1c1.1,0.8,2.2,1.7,3.4,2.5C234.7,85.1,234.7,85.1,234.9,85.4z"/>
		<path id="XMLID_32_" d="M182.4,12.9c-0.1,0.1-0.1,0.3-0.2,0.3c-0.1,0-0.3,0-0.4-0.1c-1-0.9-1.9-1.8-2.8-2.8
			c-0.1-0.1-0.1-0.3-0.1-0.4c0.1-0.1,0.3-0.2,0.4-0.1c1,1,2,2,3.1,3C182.3,12.8,182.4,12.9,182.4,12.9z"/>
		<path id="XMLID_31_" d="M199.1,57.7c-0.3,0.2-0.4,0.4-0.5,0.4c-0.9,0.3-1.8,0.6-2.8,0.8c-0.1,0-0.3-0.2-0.5-0.2
			c0.1-0.1,0.2-0.4,0.3-0.4c0.9-0.3,1.8-0.6,2.8-0.8C198.6,57.5,198.8,57.6,199.1,57.7z"/>
		<path id="XMLID_30_" d="M179.1,45.9c-0.1-0.1-0.3-0.2-0.3-0.3c0-0.1,0.1-0.3,0.2-0.4c0.9-0.3,1.9-0.7,2.8-1c0.1,0,0.3,0.1,0.4,0.2
			c0,0.1,0,0.4-0.1,0.4C181.1,45.2,180.1,45.6,179.1,45.9z"/>
		<path id="XMLID_29_" d="M213,31.3c0,1.1-0.1,2.2,0,3.2c0.1,2.1-1.7,3.4-3.3,3.4c-2.1,0-3.7-1.3-3.7-3.3c0-2.3,0-4.6,0-6.9
			c0-0.7,0.3-1,1-1c0.7,0,0.8,0.4,0.8,1c0,1.9,0,3.7,0,5.6c0,0.5,0.1,1.1,0.1,1.6c0.1,1.1,0.8,1.7,1.8,1.6c1-0.1,1.6-0.7,1.6-1.9
			c0-1.8,0-3.6,0-5.4c0-0.5,0-1.1,0-1.6c0-0.7,0.2-1,0.9-1c0.8,0,0.9,0.4,0.8,1C213,28.9,213,30.1,213,31.3z"/>
		<path id="XMLID_28_" d="M221.1,28.3c-0.7,1-0.9,1.1-1.9,0.4c-0.7-0.4-1.4-0.7-2.3-0.4c-1,0.4-1.3,1.5-0.5,2.2
			c0.6,0.5,1.3,0.9,2,1.3c0.5,0.3,1.1,0.6,1.6,0.9c1.2,0.9,1.5,1.8,1.1,3.3c-0.3,1.2-1.4,2-2.7,2.2c-1.6,0.2-3.1-0.1-4.2-1.3
			c-0.2-0.2-0.4-0.6-0.3-0.8c0.3-0.5,1-0.7,1.4-0.4c0.6,0.4,1.1,0.8,1.7,1c0.7,0.3,1.4,0.1,2-0.5c0.7-0.7,0.7-1.7-0.2-2.3
			c-0.9-0.6-1.8-1-2.6-1.5c-1-0.6-2-1.2-2-2.6c0-1.2,0.5-2.1,1.5-2.6C217.4,26.2,219.9,26.8,221.1,28.3z"/>
		<path id="XMLID_27_" d="M211.9,68c0.3,1.1,0.6,2,0.8,2.8c-1.7-1.2-3.4-2.3-4.9-3.4c1.5-1,3.2-2.1,4.9-3.3
			c-0.2,0.8-0.4,1.6-0.7,2.5c1.2,0,2.4,0.1,3.5,0.1c1.1,0,2.2,0,3.2,0c1.4,0,2-0.6,2.2-2c0.1-1.7-0.3-3.3-0.8-5c0-0.1,0-0.2-0.1-0.4
			c0.9,0.3,1.5,0.7,1.6,1.7c0.3,1.8,0.7,3.6,0.3,5.4c-0.3,1.3-0.8,1.9-2.1,2c-1.5,0.1-3-0.1-4.5-0.2C214.2,68.2,213.1,68.1,211.9,68
			z"/>
		<path id="XMLID_26_" d="M193.4,32.1c0-1.5,0-2.9,0-4.4c0-1,0.1-1.1,1.1-1.1c1.6,0,3.2,0,4.7,0c0.5,0,1,0,1,0.7
			c0,0.7-0.5,0.8-1,0.8c-1.1,0-2.3,0-3.4,0c-0.5,0-0.8,0.2-0.7,0.7c0,0.6,0,1.1,0,1.7c0,0.5,0.2,0.7,0.7,0.7c0.8,0,1.5,0,2.3,0
			c0.5,0,0.8,0.2,0.8,0.8c0,0.6-0.4,0.7-0.8,0.7c-0.7,0-1.3,0-2,0c-0.7-0.1-1,0.1-1,0.9c0.1,1,0,2.1,0,3.2c0,0.6-0.2,0.9-0.8,0.9
			c-0.7,0-0.9-0.3-0.9-0.9C193.4,35.2,193.4,33.6,193.4,32.1z"/>
		<path id="XMLID_25_" d="M202.9,26.7c0.6,0,1.2-0.1,1.7,0c0.3,0,0.6,0.4,0.7,0.6c0.1,0.4-0.2,0.8-0.6,0.8c-1-0.1-1,0.4-1,1.1
			c0,2,0,4.1,0,6.1c0,0.6,0.1,0.9,0.8,0.8c0.5-0.1,0.9,0.2,0.8,0.8c0,0.6-0.4,0.7-0.8,0.7c-1.1,0-2.2,0-3.2,0
			c-0.4,0-0.8-0.1-0.9-0.7c0-0.6,0.3-0.8,0.8-0.8c0.7,0.1,0.8-0.2,0.8-0.8c0-2.2,0-4.4,0-6.6c0-0.5-0.1-0.8-0.7-0.7
			c-0.6,0.1-0.9-0.2-0.9-0.8c0-0.6,0.5-0.7,0.9-0.7C201.8,26.7,202.3,26.7,202.9,26.7C202.9,26.7,202.9,26.7,202.9,26.7z"/>
	</g>
</g>
<g id="XMLID_42_">
	<path id="XMLID_171_" d="M249.3,23.2h9.2v2.7h-6v2.6h4.8v2.7h-4.8v5.3h-3.2V23.2z"/>
	<path id="XMLID_173_" d="M265.5,26.2c1.7,0,2.5,0.8,2.5,2.5v7.8H265V35c-0.6,0.8-1.4,1.5-3.2,1.5c-2,0-2.8-0.8-2.8-3.1
		s0.9-2.8,2.7-3c0.9-0.1,2-0.2,3.1-0.3V29c0-0.3-0.1-0.4-0.4-0.4h-1.7c-0.3,0-0.4,0.1-0.4,0.4v0.6h-3v-0.9c0-1.7,0.8-2.5,2.5-2.5
		H265.5z M262.7,32.3c-0.4,0.1-0.6,0.3-0.6,1c0,0.8,0.1,1,0.6,1c0.9,0,1.5-0.3,2.3-0.7v-1.6L262.7,32.3z"/>
	<path id="XMLID_176_" d="M275.9,26.2c1.7,0,2.5,0.8,2.5,2.5v1.4h-3v-1c0-0.3-0.1-0.4-0.4-0.4h-1.7c-0.3,0-0.4,0.1-0.4,0.4v4.5
		c0,0.3,0.1,0.4,0.4,0.4h1.7c0.3,0,0.4-0.1,0.4-0.4v-1h3V34c0,1.7-0.8,2.5-2.5,2.5h-3.6c-1.7,0-2.5-0.8-2.5-2.5v-5.4
		c0-1.7,0.8-2.5,2.5-2.5H275.9z"/>
	<path id="XMLID_178_" d="M283.2,27.6c0.6-0.8,1.3-1.5,3.1-1.5c2,0,2.8,0.8,2.8,2.5v7.9h-3v-7.3c0-0.3-0.1-0.4-0.6-0.4
		c-1,0-1.6,0.2-2.3,0.6v7.2h-3V22.6h3V27.6z"/>
	<path id="XMLID_180_" d="M300.1,37.1c0,1.7-0.8,2.5-2.5,2.5h-5.2v-2.3h4.3c0.3,0,0.4-0.1,0.4-0.4v-2.2c-0.6,0.8-1.3,1.5-3.2,1.5
		c-2.1,0-2.9-0.8-2.9-2.5l0-4.8c0-1.8,0.7-2.5,2.9-2.5c1.8,0,2.6,0.7,3.2,1.4v-1.3h3V37.1z M294,33.2c0,0.3,0.1,0.4,0.7,0.4
		c1,0,1.6-0.2,2.3-0.6v-3.7c-0.7-0.4-1.3-0.6-2.3-0.6c-0.6,0-0.7,0.1-0.7,0.4V33.2z"/>
	<path id="XMLID_183_" d="M307.6,28.9c-0.9,0-1.6,0.2-2.3,0.6v7h-3V26.2h3v1.4c0.6-0.8,1.3-1.4,2.7-1.4h0.9v2.7H307.6z"/>
	<path id="XMLID_185_" d="M316.2,35.2c-0.6,0.8-1.3,1.5-3.1,1.5c-2,0-2.8-0.8-2.8-2.5v-7.9h3v7.3c0,0.3,0.1,0.4,0.6,0.4
		c1,0,1.6-0.2,2.3-0.6v-7.1h3v10.3h-3V35.2z"/>
	<path id="XMLID_187_" d="M330.5,28.7V34c0,1.8-0.7,2.5-2.8,2.5c-1.8,0-2.6-0.7-3.2-1.5v4.4h-3V26.2h3v1.3c0.6-0.8,1.3-1.4,3.2-1.4
		C329.7,26.1,330.5,26.9,330.5,28.7z M327.5,29.2c0-0.4-0.1-0.5-0.7-0.5c-1,0-1.6,0.2-2.3,0.6v4.3c0.7,0.4,1.3,0.6,2.3,0.6
		c0.6,0,0.7-0.1,0.7-0.5V29.2z"/>
	<path id="XMLID_190_" d="M341.5,28.7V34c0,1.8-0.7,2.5-2.8,2.5c-1.8,0-2.6-0.7-3.2-1.5v4.4h-3V26.2h3v1.3c0.6-0.8,1.3-1.4,3.2-1.4
		C340.8,26.1,341.5,26.9,341.5,28.7z M338.5,29.2c0-0.4-0.1-0.5-0.7-0.5c-1,0-1.6,0.2-2.3,0.6v4.3c0.7,0.4,1.3,0.6,2.3,0.6
		c0.6,0,0.7-0.1,0.7-0.5V29.2z"/>
	<path id="XMLID_193_" d="M346.3,33.8c0,0.3,0.1,0.4,0.4,0.4h1.9c0.3,0,0.4-0.1,0.4-0.4v-0.7h3V34c0,1.7-0.8,2.5-2.5,2.5h-3.8
		c-1.7,0-2.5-0.8-2.5-2.5v-5.4c0-1.7,0.8-2.5,2.5-2.5h3.8c1.7,0,2.5,0.8,2.5,2.5v3.5h-5.7V33.8z M346.7,28.6c-0.3,0-0.4,0.1-0.4,0.4
		v1.4h2.7V29c0-0.3-0.1-0.4-0.4-0.4H346.7z"/>
	<path id="XMLID_196_" d="M358.8,23.2h3.2v13.3h-3.2V23.2z"/>
	<path id="XMLID_198_" d="M367.4,27.6c0.6-0.8,1.3-1.5,3.1-1.5c2,0,2.8,0.8,2.8,2.5v7.9h-3v-7.3c0-0.3-0.1-0.4-0.6-0.4
		c-1,0-1.6,0.2-2.3,0.6v7.2h-3V26.2h3V27.6z"/>
	<path id="XMLID_200_" d="M379.4,24.9c-0.3,0-0.4,0.1-0.4,0.4v1h2.1v2.4H379v7.9h-3v-7.9h-1.5v-2.4h1.5v-1.2c0-1.7,0.8-2.5,2.5-2.5
		h2.5v2.3H379.4z"/>
	<path id="XMLID_202_" d="M388.5,26.2c1.7,0,2.5,0.8,2.5,2.5V34c0,1.7-0.8,2.5-2.5,2.5h-3.9c-1.7,0-2.5-0.8-2.5-2.5v-5.4
		c0-1.7,0.8-2.5,2.5-2.5H388.5z M388,29.1c0-0.3-0.1-0.4-0.4-0.4h-2.1c-0.3,0-0.4,0.1-0.4,0.4v4.5c0,0.3,0.1,0.4,0.4,0.4h2.1
		c0.3,0,0.4-0.1,0.4-0.4V29.1z"/>
	<path id="XMLID_205_" d="M398.3,28.9c-0.9,0-1.6,0.2-2.3,0.6v7h-3V26.2h3v1.4c0.6-0.8,1.3-1.4,2.7-1.4h0.9v2.7H398.3z"/>
	<path id="XMLID_207_" d="M415.5,28.6v7.9h-3v-7.3c0-0.3-0.1-0.4-0.5-0.4c-0.9,0-1.5,0.2-2.2,0.6v7.2h-3v-7.3c0-0.3-0.1-0.4-0.5-0.4
		c-0.9,0-1.5,0.2-2.2,0.6v7.2h-3V26.2h3v1.3c0.6-0.8,1.3-1.4,2.9-1.4c1.6,0,2.4,0.5,2.7,1.6c0.6-0.8,1.4-1.6,3-1.6
		C414.7,26.1,415.5,26.9,415.5,28.6z"/>
	<path id="XMLID_209_" d="M423.6,26.2c1.7,0,2.5,0.8,2.5,2.5v7.8h-2.9V35c-0.6,0.8-1.4,1.5-3.2,1.5c-2,0-2.8-0.8-2.8-3.1
		s1-2.8,2.7-3c0.9-0.1,2-0.2,3.1-0.3V29c0-0.3-0.1-0.4-0.4-0.4h-1.7c-0.3,0-0.4,0.1-0.4,0.4v0.6h-3v-0.9c0-1.7,0.8-2.5,2.5-2.5
		H423.6z M420.8,32.3c-0.4,0.1-0.6,0.3-0.6,1c0,0.8,0.1,1,0.6,1c0.9,0,1.5-0.3,2.3-0.7v-1.6L420.8,32.3z"/>
	<path id="XMLID_212_" d="M431.8,33.7c0,0.3,0.1,0.4,0.4,0.4h1.7v2.4h-2.7c-1.7,0-2.5-0.8-2.5-2.5v-5.4h-1.6v-2.4h1.6v-2.5h2.9v2.5
		h2.2v2.4h-2.1V33.7z"/>
	<path id="XMLID_214_" d="M435.5,25.2v-2.5h3.2v2.5H435.5z M438.6,36.5h-3V26.2h3V36.5z"/>
	<path id="XMLID_217_" d="M445.2,32.6l-1.4,1.9v2.1h-2.9V22.6h2.9v8l2.9-4.4h3.4l-3,3.9l3.2,6.4l-3.2,0L445.2,32.6z"/>
	<path id="XMLID_219_" d="M259.4,56.7c0,1.7-0.9,2.6-2.6,2.6h-4.9c-1.7,0-2.6-0.9-2.6-2.6V46h3.2v10.1c0,0.2,0.1,0.4,0.4,0.4h3.1
		c0.3,0,0.4-0.1,0.4-0.4V46h3.2V56.7z"/>
	<path id="XMLID_221_" d="M264.7,50.4c0.6-0.8,1.3-1.5,3.1-1.5c2,0,2.8,0.8,2.8,2.5v7.9h-3V52c0-0.3-0.1-0.4-0.6-0.4
		c-1,0-1.6,0.2-2.3,0.6v7.2h-3V49h3V50.4z"/>
	<path id="XMLID_223_" d="M272.6,48v-2.5h3.2V48H272.6z M275.7,59.3h-3V49h3V59.3z"/>
	<path id="XMLID_226_" d="M283.5,59.3h-3.2L277,49h3.2l1.8,7.5l1.8-7.5h3L283.5,59.3z"/>
	<path id="XMLID_228_" d="M290.8,56.6c0,0.3,0.1,0.4,0.4,0.4h1.9c0.3,0,0.4-0.1,0.4-0.4v-0.7h3v0.9c0,1.7-0.8,2.5-2.5,2.5h-3.8
		c-1.7,0-2.5-0.8-2.5-2.5v-5.4c0-1.7,0.8-2.5,2.5-2.5h3.8c1.7,0,2.5,0.8,2.5,2.5v3.5h-5.7V56.6z M291.2,51.4c-0.3,0-0.4,0.1-0.4,0.4
		v1.4h2.7v-1.4c0-0.3-0.1-0.4-0.4-0.4H291.2z"/>
	<path id="XMLID_231_" d="M303.8,51.7c-0.9,0-1.6,0.2-2.3,0.6v7h-3V49h3v1.4c0.6-0.8,1.3-1.4,2.7-1.4h0.9v2.7H303.8z"/>
	<path id="XMLID_233_" d="M311.5,51.8c0-0.4-0.1-0.5-0.4-0.5h-1.6c-0.3,0-0.4,0.1-0.4,0.7c0,0.6,0.1,0.7,0.5,0.8l2.9,0.5
		c1.6,0.3,2.3,0.8,2.3,2.9c0,2.4-0.8,3.2-2.5,3.2h-3.8c-1.7,0-2.5-0.8-2.5-2.8v-0.6h3v0.6c0,0.4,0.1,0.6,0.4,0.6h2
		c0.3,0,0.4-0.1,0.4-0.8s-0.1-0.7-0.5-0.8l-2.9-0.5c-1.6-0.3-2.3-0.8-2.3-2.8c0-2.3,0.8-3.1,2.5-3.1h3.4c1.7,0,2.5,0.8,2.5,2.8v0.5
		h-3V51.8z"/>
	<path id="XMLID_235_" d="M316.3,48v-2.5h3.2V48H316.3z M319.4,59.3h-3V49h3V59.3z"/>
	<path id="XMLID_238_" d="M325.2,56.5c0,0.3,0.1,0.4,0.4,0.4h1.7v2.4h-2.7c-1.7,0-2.5-0.8-2.5-2.5v-5.4h-1.6V49h1.6v-2.5h2.9V49h2.2
		v2.4h-2.1V56.5z"/>
	<path id="XMLID_240_" d="M334.8,49c1.7,0,2.5,0.8,2.5,2.5v7.8h-2.9v-1.5c-0.6,0.8-1.4,1.5-3.2,1.5c-2,0-2.8-0.8-2.8-3.1
		s1-2.8,2.7-3c0.9-0.1,2-0.2,3.1-0.3v-1.2c0-0.3-0.1-0.4-0.4-0.4h-1.7c-0.3,0-0.4,0.1-0.4,0.4v0.6h-3v-0.9c0-1.7,0.8-2.5,2.5-2.5
		H334.8z M329.9,47.8v-2.5h2.7v2.5H329.9z M332,55.1c-0.4,0.1-0.6,0.3-0.6,1c0,0.8,0.1,1,0.6,1c0.9,0,1.5-0.3,2.3-0.7v-1.6L332,55.1
		z M333.7,47.8v-2.5h2.7v2.5H333.7z"/>
	<path id="XMLID_245_" d="M343,56.5c0,0.3,0.1,0.4,0.4,0.4h1.7v2.4h-2.7c-1.7,0-2.5-0.8-2.5-2.5v-5.4h-1.6V49h1.6v-2.5h2.9V49h2.2
		v2.4H343V56.5z"/>
	<path id="XMLID_247_" d="M358,49c0-0.3-0.1-0.4-0.4-0.4h-2.7c-0.3,0-0.4,0.1-0.4,0.4v1.2c0,0.3,0.1,0.4,0.5,0.5l3.5,0.9
		c1.8,0.4,2.7,0.9,2.7,2.7v2.3c0,1.8-0.9,2.6-2.6,2.6h-4.7c-1.8,0-2.6-0.9-2.6-2.6v-1.7h3.1v1.3c0,0.3,0.1,0.4,0.4,0.4h3
		c0.3,0,0.4-0.1,0.4-0.4v-1.4c0-0.3-0.1-0.4-0.5-0.5l-3.5-0.9c-1.8-0.4-2.7-0.9-2.7-2.7v-2.2c0-1.8,0.9-2.6,2.6-2.6h4.5
		c1.8,0,2.6,0.8,2.6,2.6v1.6H358V49z"/>
	<path id="XMLID_249_" d="M366.9,56.5c0,0.3,0.1,0.4,0.4,0.4h1.7v2.4h-2.7c-1.7,0-2.5-0.8-2.5-2.5v-5.4h-1.6V49h1.6v-2.5h2.9V49h2.2
		v2.4h-2.1V56.5z"/>
	<path id="XMLID_251_" d="M376.5,58c-0.6,0.8-1.3,1.5-3.1,1.5c-2,0-2.8-0.8-2.8-2.5V49h3v7.3c0,0.3,0.1,0.4,0.6,0.4
		c1,0,1.6-0.2,2.3-0.6V49h3v10.3h-3V58z"/>
	<path id="XMLID_253_" d="M385.5,56.5c0,0.3,0.1,0.4,0.4,0.4h1.7v2.4h-2.7c-1.7,0-2.5-0.8-2.5-2.5v-5.4h-1.6V49h1.6v-2.5h2.9V49h2.2
		v2.4h-2.1V56.5z"/>
	<path id="XMLID_255_" d="M392.9,56.5c0,0.3,0.1,0.4,0.4,0.4h1.7v2.4h-2.7c-1.7,0-2.5-0.8-2.5-2.5v-5.4h-1.6V49h1.6v-2.5h2.9V49h2.2
		v2.4h-2.1V56.5z"/>
	<path id="XMLID_257_" d="M405.4,59.9c0,1.7-0.8,2.5-2.5,2.5h-5.2V60h4.3c0.3,0,0.4-0.1,0.4-0.4v-2.2c-0.6,0.8-1.3,1.5-3.2,1.5
		c-2.1,0-2.9-0.8-2.9-2.5l0-4.8c0-1.8,0.7-2.5,2.9-2.5c1.8,0,2.6,0.7,3.2,1.4V49h3V59.9z M399.4,56c0,0.3,0.1,0.4,0.7,0.4
		c1,0,1.6-0.2,2.3-0.6V52c-0.7-0.4-1.3-0.6-2.3-0.6c-0.6,0-0.7,0.1-0.7,0.4V56z"/>
	<path id="XMLID_260_" d="M413.5,49c1.7,0,2.5,0.8,2.5,2.5v7.8h-2.9v-1.5c-0.6,0.8-1.4,1.5-3.2,1.5c-2,0-2.8-0.8-2.8-3.1
		s1-2.8,2.7-3c0.9-0.1,2-0.2,3.1-0.3v-1.2c0-0.3-0.1-0.4-0.4-0.4h-1.7c-0.3,0-0.4,0.1-0.4,0.4v0.6h-3v-0.9c0-1.7,0.8-2.5,2.5-2.5
		H413.5z M410.7,55.1c-0.4,0.1-0.6,0.3-0.6,1c0,0.8,0.1,1,0.6,1c0.9,0,1.5-0.3,2.3-0.7v-1.6L410.7,55.1z"/>
	<path id="XMLID_263_" d="M423.4,51.7c-0.9,0-1.6,0.2-2.3,0.6v7h-3V49h3v1.4c0.6-0.8,1.3-1.4,2.7-1.4h0.9v2.7H423.4z"/>
	<path id="XMLID_265_" d="M430,56.5c0,0.3,0.1,0.4,0.4,0.4h1.7v2.4h-2.7c-1.7,0-2.5-0.8-2.5-2.5v-5.4h-1.6V49h1.6v-2.5h2.9V49h2.2
		v2.4H430V56.5z"/>
</g>
<rect id="XMLID_8_" x="65.2" y="248.2" width="472.8" height="119.9"/>
<g id="XMLID_7_">
	<path id="XMLID_112_" d="M64.6,207.2h19.3v5.6h-6.3v24.4h-6.8v-24.4h-6.2V207.2z"/>
	<path id="XMLID_114_" d="M85.7,207.2H92v10.2c1.1-1.9,3-2.8,5.6-2.8c1.6,0,2.8,0.4,3.7,1.1c0.9,0.7,1.5,1.6,1.7,2.7
		c0.2,1.1,0.4,2.6,0.4,4.7v14.2H97V223c0-1.5-0.1-2.4-0.4-2.9c-0.3-0.5-0.9-0.7-1.7-0.7c-0.9,0-1.5,0.2-2.1,0.7
		c-0.5,0.5-0.8,1.5-0.8,3.1v14.1h-6.4V207.2z"/>
	<path id="XMLID_116_" d="M125.4,227.2h-12v1.2c0,2,0.3,3.3,0.8,4c0.6,0.7,1.3,1,2.2,1c1.9,0,3-1.3,3.3-3.8l5.7,0.4
		c-1,5.2-4,7.7-9.1,7.7c-3.1,0-5.5-1-7.1-3.1c-1.6-2-2.4-4.8-2.4-8.2c0-3.9,0.9-6.8,2.6-8.8c1.7-2,4-3,6.9-3c2.6,0,4.8,0.9,6.5,2.7
		C124.5,219.1,125.4,222.4,125.4,227.2z M119.3,223.6c0-0.3,0-0.5,0-0.6c0-2.9-1-4.3-3-4.3c-2,0-2.9,1.6-3,4.9H119.3z"/>
	<path id="XMLID_119_" d="M146.7,226.1c0,7.7-3.1,11.6-9.3,11.6c-6.2,0-9.3-3.9-9.3-11.6c0-7.7,3.1-11.5,9.3-11.5
		C143.6,214.6,146.7,218.4,146.7,226.1z M140.1,226.1c0-2.8-0.2-4.7-0.6-5.7c-0.4-1-1.1-1.5-2.1-1.5c-1,0-1.7,0.5-2.1,1.4
		c-0.4,0.9-0.6,2.9-0.6,5.8c0,2.7,0.2,4.6,0.5,5.7c0.4,1.1,1.1,1.6,2.2,1.6c1,0,1.7-0.5,2.1-1.6S140.1,228.9,140.1,226.1z"/>
	<path id="XMLID_122_" d="M150.4,215h5.6v5.4c1-3.8,2.8-5.6,5.4-5.6c0.3,0,0.7,0,1.1,0.1v6c-0.5-0.1-0.8-0.1-1.1-0.1
		c-3.1,0-4.7,2.3-4.7,6.9v9.6h-6.4V215z"/>
	<path id="XMLID_124_" d="M182.2,227.2h-12v1.2c0,2,0.3,3.3,0.8,4c0.6,0.7,1.3,1,2.2,1c1.9,0,3-1.3,3.3-3.8l5.7,0.4
		c-1,5.2-4,7.7-9.1,7.7c-3.1,0-5.5-1-7.1-3.1c-1.6-2-2.4-4.8-2.4-8.2c0-3.9,0.9-6.8,2.6-8.8c1.7-2,4-3,6.9-3c2.6,0,4.8,0.9,6.5,2.7
		C181.3,219.1,182.2,222.4,182.2,227.2z M176.2,223.6c0-0.3,0-0.5,0-0.6c0-2.9-1-4.3-3-4.3c-2,0-2.9,1.6-3,4.9H176.2z"/>
	<path id="XMLID_127_" d="M186.9,208.2l6.2-0.2v7h4.2v4.9h-4.2v8.2c0,1.5,0,2.5,0.1,2.9c0.1,0.4,0.3,0.8,0.7,1.1s1,0.5,1.9,0.5
		c0.5,0,1.1,0,1.8,0v4.7c-1.4,0.3-2.7,0.5-3.9,0.5c-1.9,0-3.4-0.4-4.4-1.1s-1.7-1.6-2-2.7c-0.3-1.1-0.4-2.8-0.4-5.2v-8.8h-2.5V215
		h2.5V208.2z"/>
	<path id="XMLID_129_" d="M206.6,213.2h-6.5v-6.1h6.5V213.2z M200.1,215h6.4v22.2h-6.4V215z"/>
	<path id="XMLID_132_" d="M226.3,220.4l-4.5,1.3c-0.6-2-1.7-3-3.3-3c-1.3,0-2,0.6-2,1.9c0,0.7,0.2,1.3,0.7,1.7
		c0.5,0.4,1.5,0.8,3.1,1.4c1.8,0.6,3,1.1,3.8,1.6c0.8,0.5,1.5,1.1,2.1,2.1s0.8,2,0.8,3.2c0,2.1-0.8,3.8-2.3,5.2s-3.7,2.1-6.4,2.1
		c-5.1,0-8-2.2-8.6-6.6l5.1-0.8c0.4,2.2,1.6,3.3,3.6,3.3c1.7,0,2.5-0.7,2.5-2.1c0-0.7-0.2-1.3-0.7-1.7c-0.5-0.4-1.5-0.8-2.9-1.2
		c-2.6-0.8-4.4-1.8-5.4-3c-1-1.2-1.5-2.5-1.5-4c0-2.1,0.8-3.9,2.3-5.1c1.5-1.3,3.5-1.9,5.8-1.9C222.6,214.6,225.2,216.5,226.3,220.4
		z"/>
	<path id="XMLID_134_" d="M247.2,223.2l-5.9,0.2c-0.1-1.4-0.3-2.4-0.7-3.1c-0.4-0.7-1-1-1.8-1c-2.1,0-3.2,2.2-3.2,6.5
		c0,2.5,0.3,4.3,0.8,5.3s1.3,1.5,2.3,1.5c1.6,0,2.5-1.4,2.6-4.1l5.9,0.4c-0.5,5.8-3.5,8.7-9,8.7c-2.9,0-5.2-1-6.7-2.9
		s-2.3-4.8-2.3-8.6c0-3.8,0.8-6.7,2.5-8.6s3.9-3,6.9-3C243.8,214.6,246.7,217.5,247.2,223.2z"/>
	<path id="XMLID_136_" d="M250.7,207.2h6.4v10.2c1.1-1.9,3-2.8,5.6-2.8c1.6,0,2.8,0.4,3.7,1.1c0.9,0.7,1.5,1.6,1.7,2.7
		c0.2,1.1,0.4,2.6,0.4,4.7v14.2H262V223c0-1.5-0.1-2.4-0.4-2.9c-0.3-0.5-0.9-0.7-1.7-0.7c-0.9,0-1.5,0.2-2.1,0.7
		c-0.5,0.5-0.8,1.5-0.8,3.1v14.1h-6.4V207.2z"/>
	<path id="XMLID_138_" d="M290.4,227.2h-12v1.2c0,2,0.3,3.3,0.8,4c0.6,0.7,1.3,1,2.2,1c1.9,0,3-1.3,3.3-3.8l5.7,0.4
		c-1,5.2-4,7.7-9.1,7.7c-3.1,0-5.5-1-7.1-3.1c-1.6-2-2.4-4.8-2.4-8.2c0-3.9,0.9-6.8,2.6-8.8c1.7-2,4-3,6.9-3c2.6,0,4.8,0.9,6.5,2.7
		C289.5,219.1,290.4,222.4,290.4,227.2z M284.3,223.6c0-0.3,0-0.5,0-0.6c0-2.9-1-4.3-3-4.3c-2,0-2.9,1.6-3,4.9H284.3z"/>
	<path id="XMLID_141_" d="M303.3,207.2h6.8v30h-6.8V207.2z"/>
	<path id="XMLID_143_" d="M315.4,215h6v3c1.1-2.3,3-3.5,5.7-3.5c1.5,0,2.7,0.3,3.7,1c1,0.7,1.6,1.5,1.9,2.5s0.4,2.5,0.4,4.6v14.5
		h-6.4v-14.5c0-1.5-0.2-2.4-0.6-2.8c-0.4-0.4-0.9-0.5-1.6-0.5c-1.1,0-1.9,0.3-2.3,1c-0.4,0.7-0.5,2-0.5,3.8v13h-6.4V215z"/>
	<path id="XMLID_145_" d="M344.7,215h4v4.9h-4v17.3h-6.1v-17.3H336V215h2.6c0-2.2,0.2-3.8,0.5-4.9s1-2,2.2-2.9
		c1.1-0.8,2.6-1.2,4.5-1.2c1.1,0,2.2,0.1,3.2,0.2v4.8c-0.5-0.1-1-0.1-1.4-0.1c-1.2,0-2,0.3-2.3,0.8
		C344.8,212.3,344.7,213.4,344.7,215z"/>
	<path id="XMLID_147_" d="M368.8,226.1c0,7.7-3.1,11.6-9.3,11.6c-6.2,0-9.3-3.9-9.3-11.6c0-7.7,3.1-11.5,9.3-11.5
		C365.7,214.6,368.8,218.4,368.8,226.1z M362.2,226.1c0-2.8-0.2-4.7-0.6-5.7s-1.1-1.5-2.1-1.5c-1,0-1.7,0.5-2.1,1.4
		c-0.4,0.9-0.6,2.9-0.6,5.8c0,2.7,0.2,4.6,0.5,5.7c0.4,1.1,1.1,1.6,2.2,1.6c1,0,1.7-0.5,2.1-1.6C362,230.7,362.2,228.9,362.2,226.1z
		"/>
	<path id="XMLID_150_" d="M372.5,215h5.6v5.4c1-3.8,2.8-5.6,5.4-5.6c0.3,0,0.7,0,1.1,0.1v6c-0.5-0.1-0.8-0.1-1.1-0.1
		c-3.1,0-4.7,2.3-4.7,6.9v9.6h-6.4V215z"/>
	<path id="XMLID_152_" d="M386.7,215h6v3c1.1-2.3,2.9-3.5,5.5-3.5c2.7,0,4.4,1.2,4.9,3.5c1-2.3,2.9-3.5,5.6-3.5
		c1.5,0,2.7,0.3,3.6,0.8c0.9,0.5,1.5,1.2,1.8,2.2c0.3,0.9,0.5,2.6,0.5,5.2v14.5h-6.4v-13.9c0-1.7-0.1-2.7-0.4-3.2s-0.8-0.7-1.6-0.7
		c-1,0-1.6,0.3-1.9,1c-0.3,0.7-0.5,2-0.5,3.9v12.9h-6.4v-14.1c0-1.6-0.1-2.6-0.4-3.1c-0.2-0.5-0.8-0.7-1.6-0.7c-1,0-1.7,0.3-2,1
		c-0.3,0.7-0.5,2-0.5,3.9v12.9h-6.4V215z"/>
	<path id="XMLID_154_" d="M425.2,222.1l-6-0.6c0.3-2.2,1.3-3.9,2.9-5.1c1.7-1.2,3.8-1.8,6.3-1.8c2.1,0,3.9,0.4,5.2,1.2
		s2.1,1.7,2.5,2.8c0.3,1.1,0.5,2.7,0.5,4.9v8.9c0,2.8,0.1,4.4,0.4,4.9H431c-0.2-0.6-0.3-1.7-0.3-3.4c-1.4,2.6-3.5,3.9-6.3,3.9
		c-1.8,0-3.2-0.5-4.3-1.5c-1.1-1-1.7-2.5-1.7-4.5c0-2.5,0.8-4.4,2.5-5.7s4.8-2.2,9.2-2.4v-0.8c0-1.5-0.2-2.5-0.5-3.1
		c-0.3-0.6-0.9-0.9-1.8-0.9C426.2,218.7,425.3,219.8,425.2,222.1z M430.1,226.6c-1.9,0.2-3.2,0.6-4,1.2s-1.2,1.6-1.2,3
		c0,1.9,0.7,2.8,2.1,2.8c0.8,0,1.5-0.4,2.1-1.3c0.6-0.8,0.9-2.4,0.9-4.6V226.6z"/>
	<path id="XMLID_157_" d="M442.1,208.2l6.2-0.2v7h4.2v4.9h-4.2v8.2c0,1.5,0,2.5,0.1,2.9c0.1,0.4,0.3,0.8,0.7,1.1s1,0.5,1.9,0.5
		c0.5,0,1.1,0,1.8,0v4.7c-1.4,0.3-2.7,0.5-3.9,0.5c-1.9,0-3.4-0.4-4.4-1.1c-1-0.7-1.7-1.6-2-2.7s-0.4-2.8-0.4-5.2v-8.8h-2.5V215h2.5
		V208.2z"/>
	<path id="XMLID_159_" d="M461.8,213.2h-6.5v-6.1h6.5V213.2z M455.4,215h6.4v22.2h-6.4V215z"/>
	<path id="XMLID_162_" d="M466.4,207.2h6.4v16.4l6.4-8.6h5.8l-5.8,7.4l6.3,14.7h-6.9l-3.6-10.3l-2.3,3.1v7.2h-6.4V207.2z"/>
	<path id="XMLID_164_" d="M502.8,213.2h-6.5v-6.1h6.5V213.2z M496.4,215h6.4v22.2h-6.4V215z"/>
	<path id="XMLID_167_" d="M522.5,220.4l-4.5,1.3c-0.6-2-1.7-3-3.3-3c-1.3,0-2,0.6-2,1.9c0,0.7,0.2,1.3,0.7,1.7s1.5,0.8,3.1,1.4
		c1.8,0.6,3,1.1,3.8,1.6c0.8,0.5,1.5,1.1,2.1,2.1c0.6,0.9,0.8,2,0.8,3.2c0,2.1-0.8,3.8-2.3,5.2c-1.5,1.4-3.7,2.1-6.4,2.1
		c-5.1,0-8-2.2-8.6-6.6l5.1-0.8c0.4,2.2,1.6,3.3,3.6,3.3c1.7,0,2.5-0.7,2.5-2.1c0-0.7-0.2-1.3-0.7-1.7s-1.5-0.8-2.9-1.2
		c-2.6-0.8-4.4-1.8-5.4-3c-1-1.2-1.5-2.5-1.5-4c0-2.1,0.8-3.9,2.3-5.1c1.5-1.3,3.5-1.9,5.8-1.9C518.8,214.6,521.4,216.5,522.5,220.4
		z"/>
	<path id="XMLID_169_" d="M527.5,208.2l6.2-0.2v7h4.2v4.9h-4.2v8.2c0,1.5,0,2.5,0.1,2.9c0.1,0.4,0.3,0.8,0.7,1.1s1,0.5,1.9,0.5
		c0.5,0,1.1,0,1.8,0v4.7c-1.4,0.3-2.7,0.5-3.9,0.5c-1.9,0-3.4-0.4-4.4-1.1s-1.7-1.6-2-2.7c-0.3-1.1-0.4-2.8-0.4-5.2v-8.8H525V215
		h2.5V208.2z"/>
</g>
<g id="XMLID_6_">
	<path id="XMLID_96_" class="st0" d="M78.5,261.1h64.7v17.3H122v74.7H99.2v-74.7H78.5V261.1z"/>
	<path id="XMLID_98_" class="st0" d="M151.1,261.1h32.6c6.3,0,11.2,0.3,14.6,0.8c3.4,0.5,6.8,1.9,10.2,4.2c3.4,2.3,6.1,5.4,8.1,9.3
		c1.9,3.9,2.9,8.3,2.9,13.2c0,11.5-4.9,19.6-14.6,24.3l19.1,40.2h-24.8l-13.9-36.4h-11.4v36.4h-22.8V261.1z M173.9,276v25.8h10
		c8.9,0,13.4-4.4,13.4-13.3c0-3.1-0.7-5.6-2-7.5c-1.3-2-2.8-3.3-4.6-4c-1.7-0.7-4.3-1-7.7-1H173.9z"/>
	<path id="XMLID_101_" class="st0" d="M235.9,261.1h22.8v92h-22.8V261.1z"/>
	<path id="XMLID_103_" class="st0" d="M266.4,261.1h23.9l16,70.1l16.5-70.1h19.6l-25.5,92.4l-25.5-0.5L266.4,261.1z"/>
	<path id="XMLID_105_" class="st0" d="M349.9,261.1h22.8v92h-22.8V261.1z"/>
	<path id="XMLID_107_" class="st0" d="M410.7,261.1h23l29.6,92h-23.3l-5.2-19h-29.2l-5.1,19h-20.9L410.7,261.1z M430.5,318.4
		L420,280.7l-10.1,37.7H430.5z"/>
	<path id="XMLID_110_" class="st0" d="M471.9,261.1h22.8v74.7h33.4v17.3h-56.2V261.1z"/>
</g>
<g id="XMLID_5_">
	<path id="XMLID_11_" d="M67.8,391.1h5.8l2.5,12.6l2.4-12.6h5.8l1.9,12.6l2.9-12.6h4.7l-5.3,20.7h-5l-2.7-14.1L78,411.8h-4.8
		L67.8,391.1z"/>
	<path id="XMLID_13_" d="M101.4,389.4h-6v-5.7h6V389.4z M95.4,391.1h6v20.7h-6V391.1z"/>
	<path id="XMLID_16_" d="M122.1,402.4h-11.2v1.1c0,1.9,0.3,3.1,0.8,3.7c0.5,0.6,1.2,0.9,2,0.9c1.8,0,2.8-1.2,3.1-3.5l5.3,0.3
		c-0.9,4.8-3.8,7.2-8.5,7.2c-2.9,0-5.1-1-6.6-2.9c-1.5-1.9-2.3-4.4-2.3-7.6c0-3.6,0.8-6.3,2.4-8.2c1.6-1.9,3.7-2.8,6.4-2.8
		c2.4,0,4.4,0.8,6.1,2.5S122.1,398,122.1,402.4z M116.5,399.1c0-0.2,0-0.4,0-0.6c0-2.7-0.9-4-2.8-4c-1.8,0-2.7,1.5-2.8,4.6H116.5z"
		/>
	<path id="XMLID_19_" d="M147.7,396.1l-4.2,1.2c-0.6-1.9-1.6-2.8-3.1-2.8c-1.2,0-1.9,0.6-1.9,1.8c0,0.7,0.2,1.2,0.7,1.6
		c0.5,0.4,1.4,0.8,2.9,1.3c1.6,0.6,2.8,1.1,3.6,1.5s1.4,1.1,1.9,1.9c0.5,0.9,0.8,1.8,0.8,2.9c0,1.9-0.7,3.5-2.1,4.8s-3.4,1.9-6,1.9
		c-4.8,0-7.5-2.1-8-6.2l4.7-0.7c0.4,2.1,1.5,3.1,3.4,3.1c1.6,0,2.4-0.6,2.4-1.9c0-0.7-0.2-1.2-0.7-1.6c-0.5-0.4-1.4-0.7-2.7-1.1
		c-2.5-0.8-4.1-1.7-5-2.8c-0.9-1.1-1.4-2.3-1.4-3.8c0-2,0.7-3.6,2.2-4.8s3.2-1.8,5.4-1.8C144.3,390.7,146.7,392.5,147.7,396.1z"/>
	<path id="XMLID_21_" d="M157.3,389.4h-6v-5.7h6V389.4z M151.3,391.1h6v20.7h-6V391.1z"/>
	<path id="XMLID_43_" d="M177.6,398.8l-5.5,0.2c-0.1-1.3-0.3-2.2-0.6-2.9c-0.3-0.6-0.9-1-1.7-1c-2,0-3,2-3,6.1c0,2.4,0.2,4,0.7,5
		s1.2,1.4,2.2,1.4c1.5,0,2.3-1.3,2.5-3.8l5.5,0.3c-0.5,5.4-3.3,8.2-8.4,8.2c-2.7,0-4.8-0.9-6.3-2.7s-2.2-4.5-2.2-8
		c0-3.5,0.8-6.2,2.3-8.1c1.5-1.8,3.7-2.8,6.4-2.8C174.4,390.7,177.2,393.4,177.6,398.8z"/>
	<path id="XMLID_45_" d="M180.8,383.8h6v9.5c1.1-1.8,2.8-2.6,5.2-2.6c1.5,0,2.6,0.3,3.4,1c0.8,0.7,1.4,1.5,1.6,2.5
		c0.2,1,0.3,2.5,0.3,4.4v13.3h-6v-13.3c0-1.4-0.1-2.3-0.4-2.7c-0.3-0.4-0.8-0.7-1.6-0.7c-0.8,0-1.4,0.2-1.9,0.6
		c-0.5,0.4-0.7,1.4-0.7,2.9v13.1h-6V383.8z"/>
	<path id="XMLID_47_" d="M225.9,402.4h-11.2v1.1c0,1.9,0.3,3.1,0.8,3.7c0.5,0.6,1.2,0.9,2,0.9c1.8,0,2.8-1.2,3.1-3.5l5.3,0.3
		c-0.9,4.8-3.8,7.2-8.5,7.2c-2.9,0-5.1-1-6.6-2.9c-1.5-1.9-2.3-4.4-2.3-7.6c0-3.6,0.8-6.3,2.4-8.2c1.6-1.9,3.7-2.8,6.4-2.8
		c2.4,0,4.4,0.8,6.1,2.5S225.9,398,225.9,402.4z M220.3,399.1c0-0.2,0-0.4,0-0.6c0-2.7-0.9-4-2.8-4c-1.8,0-2.7,1.5-2.8,4.6H220.3z"
		/>
	<path id="XMLID_50_" d="M235.4,389.4h-6v-5.7h6V389.4z M229.4,391.1h6v20.7h-6V391.1z"/>
	<path id="XMLID_53_" d="M239.7,391.1h5.6v2.8c1-2.2,2.8-3.2,5.3-3.2c1.4,0,2.5,0.3,3.5,0.9c0.9,0.6,1.5,1.4,1.7,2.3
		c0.3,0.9,0.4,2.4,0.4,4.3v13.6h-6v-13.6c0-1.4-0.2-2.3-0.5-2.6s-0.9-0.5-1.5-0.5c-1.1,0-1.8,0.3-2.1,1s-0.5,1.8-0.5,3.6v12.1h-6
		V391.1z"/>
	<path id="XMLID_55_" d="M267.1,391.1h3.8v4.6h-3.8v16.2h-5.7v-16.2H259v-4.6h2.4c0-2,0.2-3.6,0.5-4.6c0.3-1,1-1.9,2-2.7
		s2.4-1.1,4.2-1.1c1,0,2,0.1,3,0.2v4.5c-0.5-0.1-0.9-0.1-1.3-0.1c-1.1,0-1.9,0.2-2.2,0.7S267.1,389.6,267.1,391.1z"/>
	<path id="XMLID_57_" d="M278.6,397.7l-5.6-0.5c0.3-2.1,1.2-3.7,2.7-4.8c1.6-1.1,3.5-1.7,5.9-1.7c2,0,3.6,0.4,4.8,1.1
		c1.2,0.7,2,1.6,2.3,2.6s0.5,2.5,0.5,4.6v8.3c0,2.6,0.1,4.1,0.4,4.6H284c-0.2-0.6-0.3-1.6-0.3-3.2c-1.3,2.4-3.3,3.6-5.8,3.6
		c-1.7,0-3-0.5-4-1.4c-1-1-1.6-2.4-1.6-4.2c0-2.3,0.8-4.1,2.4-5.4c1.6-1.3,4.4-2,8.6-2.3v-0.8c0-1.4-0.1-2.3-0.4-2.9
		s-0.8-0.8-1.7-0.8C279.6,394.5,278.8,395.6,278.6,397.7z M283.2,402c-1.7,0.2-3,0.6-3.7,1.1s-1.1,1.5-1.1,2.8c0,1.7,0.7,2.6,2,2.6
		c0.7,0,1.4-0.4,2-1.2c0.6-0.8,0.9-2.2,0.9-4.3V402z"/>
	<path id="XMLID_60_" d="M309.5,398.8l-5.5,0.2c-0.1-1.3-0.3-2.2-0.6-2.9c-0.3-0.6-0.9-1-1.7-1c-2,0-3,2-3,6.1c0,2.4,0.2,4,0.7,5
		c0.5,0.9,1.2,1.4,2.2,1.4c1.5,0,2.3-1.3,2.5-3.8l5.5,0.3c-0.5,5.4-3.3,8.2-8.4,8.2c-2.7,0-4.8-0.9-6.3-2.7s-2.2-4.5-2.2-8
		c0-3.5,0.8-6.2,2.3-8.1c1.5-1.8,3.7-2.8,6.4-2.8C306.3,390.7,309,393.4,309.5,398.8z"/>
	<path id="XMLID_62_" d="M312.7,383.8h6v9.5c1.1-1.8,2.8-2.6,5.2-2.6c1.5,0,2.6,0.3,3.4,1s1.4,1.5,1.6,2.5s0.3,2.5,0.3,4.4v13.3h-6
		v-13.3c0-1.4-0.1-2.3-0.4-2.7c-0.3-0.4-0.8-0.7-1.6-0.7c-0.8,0-1.4,0.2-1.9,0.6c-0.5,0.4-0.7,1.4-0.7,2.9v13.1h-6V383.8z"/>
	<path id="XMLID_64_" d="M340.8,391.1h13.3v3.7l-7.9,12.9h8.1v4.1h-14.3v-4.1l7.7-12.5h-7V391.1z"/>
	<path id="XMLID_66_" d="M373.3,402.4h-11.2v1.1c0,1.9,0.3,3.1,0.8,3.7c0.5,0.6,1.2,0.9,2,0.9c1.8,0,2.8-1.2,3.1-3.5l5.3,0.3
		c-0.9,4.8-3.8,7.2-8.5,7.2c-2.9,0-5.1-1-6.6-2.9c-1.5-1.9-2.3-4.4-2.3-7.6c0-3.6,0.8-6.3,2.4-8.2s3.7-2.8,6.4-2.8
		c2.4,0,4.4,0.8,6.1,2.5C372.5,394.9,373.3,398,373.3,402.4z M367.7,399.1c0-0.2,0-0.4,0-0.6c0-2.7-0.9-4-2.8-4
		c-1.8,0-2.7,1.5-2.8,4.6H367.7z"/>
	<path id="XMLID_69_" d="M382.8,389.4h-6v-5.7h6V389.4z M376.8,391.1h6v20.7h-6V391.1z"/>
	<path id="XMLID_72_" d="M405.2,387.7v3.8c-0.5-0.1-0.9-0.2-1.3-0.2c-1.2,0-2,0.6-2.3,1.9c1.1,1.1,1.6,2.5,1.6,4.1
		c0,1.9-0.7,3.4-2.2,4.5s-3.3,1.7-5.6,1.7c-0.9,0-1.8-0.1-2.8-0.3c-0.9,0.5-1.4,1.1-1.4,1.7c0,0.5,0.3,0.9,0.8,1
		c0.5,0.2,1.9,0.3,4.3,0.4c2.1,0.1,3.7,0.3,4.8,0.6s2,0.9,2.7,1.8c0.7,0.9,1.1,2.1,1.1,3.5c0,4.6-3.5,6.9-10.4,6.9
		c-5.8,0-8.7-1.6-8.7-4.9c0-1.8,1.2-3.1,3.5-3.9c-1.9-0.8-2.8-2-2.8-3.6c0-1.8,1.2-3.3,3.7-4.6c-2.1-1-3.2-2.7-3.2-5.2
		c0-2.1,0.7-3.6,2.2-4.7s3.4-1.6,5.8-1.6c1.6,0,3.1,0.3,4.6,0.9c0.2-1.5,0.5-2.5,1.1-3.2s1.6-0.9,2.9-0.9
		C404.2,387.5,404.8,387.6,405.2,387.7z M392.6,410.9c-1.3,0.6-1.9,1.4-1.9,2.5c0,1.4,1.6,2.1,4.9,2.1c2.8,0,4.2-0.7,4.2-2.2
		c0-0.5-0.2-1-0.5-1.3s-0.7-0.5-1.2-0.6s-1.5-0.2-3-0.2C394.3,411.1,393.5,411,392.6,410.9z M397.1,397.2c0-2.2-0.6-3.3-1.9-3.3
		c-0.8,0-1.3,0.3-1.6,0.8c-0.3,0.5-0.5,1.4-0.5,2.7c0,2.1,0.7,3.1,2,3.1c0.7,0,1.2-0.2,1.5-0.7S397.1,398.4,397.1,397.2z"/>
	<path id="XMLID_76_" d="M423.4,402.4h-11.2v1.1c0,1.9,0.3,3.1,0.8,3.7c0.5,0.6,1.2,0.9,2,0.9c1.8,0,2.8-1.2,3.1-3.5l5.3,0.3
		c-0.9,4.8-3.8,7.2-8.5,7.2c-2.9,0-5.1-1-6.6-2.9c-1.5-1.9-2.3-4.4-2.3-7.6c0-3.6,0.8-6.3,2.4-8.2s3.7-2.8,6.4-2.8
		c2.4,0,4.4,0.8,6.1,2.5C422.6,394.9,423.4,398,423.4,402.4z M417.8,399.1c0-0.2,0-0.4,0-0.6c0-2.7-0.9-4-2.8-4
		c-1.8,0-2.7,1.5-2.8,4.6H417.8z"/>
	<path id="XMLID_79_" d="M426.9,391.1h5.6v2.8c1-2.2,2.8-3.2,5.3-3.2c1.4,0,2.5,0.3,3.5,0.9s1.5,1.4,1.7,2.3
		c0.3,0.9,0.4,2.4,0.4,4.3v13.6h-6v-13.6c0-1.4-0.2-2.3-0.5-2.6s-0.9-0.5-1.5-0.5c-1.1,0-1.8,0.3-2.1,1s-0.5,1.8-0.5,3.6v12.1h-6
		V391.1z"/>
	<path id="XMLID_81_" d="M455.6,383.8h6v28h-6V383.8z"/>
	<path id="XMLID_83_" d="M471.6,397.7l-5.6-0.5c0.3-2.1,1.2-3.7,2.7-4.8c1.6-1.1,3.5-1.7,5.9-1.7c2,0,3.6,0.4,4.8,1.1s2,1.6,2.3,2.6
		c0.3,1,0.5,2.5,0.5,4.6v8.3c0,2.6,0.1,4.1,0.4,4.6H477c-0.2-0.6-0.3-1.6-0.3-3.2c-1.3,2.4-3.3,3.6-5.8,3.6c-1.7,0-3-0.5-4-1.4
		c-1-1-1.6-2.4-1.6-4.2c0-2.3,0.8-4.1,2.4-5.4s4.4-2,8.6-2.3v-0.8c0-1.4-0.1-2.3-0.4-2.9c-0.3-0.5-0.8-0.8-1.7-0.8
		C472.6,394.5,471.8,395.6,471.6,397.7z M468.5,385.8c0-0.6,0.2-1.1,0.7-1.6s1-0.6,1.7-0.6s1.2,0.2,1.7,0.6c0.5,0.4,0.7,1,0.7,1.6
		c0,0.6-0.3,1.2-0.8,1.6s-1.1,0.6-1.7,0.6c-0.6,0-1.1-0.2-1.6-0.6C468.7,387,468.5,386.5,468.5,385.8z M476.2,402
		c-1.7,0.2-3,0.6-3.7,1.1s-1.1,1.5-1.1,2.8c0,1.7,0.7,2.6,2,2.6c0.7,0,1.4-0.4,2-1.2c0.6-0.8,0.9-2.2,0.9-4.3V402z M475.6,385.8
		c0-0.6,0.2-1.1,0.7-1.6s1-0.6,1.7-0.6c0.7,0,1.2,0.2,1.7,0.6s0.7,1,0.7,1.6c0,0.7-0.3,1.2-0.8,1.6c-0.5,0.4-1.1,0.6-1.6,0.6
		c-0.6,0-1.2-0.2-1.7-0.6S475.6,386.5,475.6,385.8z"/>
	<path id="XMLID_88_" d="M500.6,396.1l-4.2,1.2c-0.6-1.9-1.6-2.8-3.1-2.8c-1.2,0-1.9,0.6-1.9,1.8c0,0.7,0.2,1.2,0.7,1.6
		s1.4,0.8,2.9,1.3c1.6,0.6,2.8,1.1,3.6,1.5c0.8,0.4,1.4,1.1,1.9,1.9c0.5,0.9,0.8,1.8,0.8,2.9c0,1.9-0.7,3.5-2.1,4.8
		c-1.4,1.3-3.4,1.9-6,1.9c-4.8,0-7.5-2.1-8-6.2l4.7-0.7c0.4,2.1,1.5,3.1,3.4,3.1c1.6,0,2.4-0.6,2.4-1.9c0-0.7-0.2-1.2-0.7-1.6
		s-1.4-0.7-2.7-1.1c-2.5-0.8-4.1-1.7-5-2.8c-0.9-1.1-1.4-2.3-1.4-3.8c0-2,0.7-3.6,2.2-4.8c1.4-1.2,3.2-1.8,5.4-1.8
		C497.2,390.7,499.6,392.5,500.6,396.1z"/>
	<path id="XMLID_90_" d="M518.3,396.1l-4.2,1.2c-0.6-1.9-1.6-2.8-3.1-2.8c-1.2,0-1.9,0.6-1.9,1.8c0,0.7,0.2,1.2,0.7,1.6
		s1.4,0.8,2.9,1.3c1.6,0.6,2.8,1.1,3.6,1.5c0.8,0.4,1.4,1.1,1.9,1.9c0.5,0.9,0.8,1.8,0.8,2.9c0,1.9-0.7,3.5-2.1,4.8
		c-1.4,1.3-3.4,1.9-6,1.9c-4.8,0-7.5-2.1-8-6.2l4.7-0.7c0.4,2.1,1.5,3.1,3.4,3.1c1.6,0,2.4-0.6,2.4-1.9c0-0.7-0.2-1.2-0.7-1.6
		s-1.4-0.7-2.7-1.1c-2.5-0.8-4.1-1.7-5-2.8c-0.9-1.1-1.4-2.3-1.4-3.8c0-2,0.7-3.6,2.2-4.8c1.4-1.2,3.2-1.8,5.4-1.8
		C514.9,390.7,517.3,392.5,518.3,396.1z"/>
	<path id="XMLID_92_" d="M523,384.8l5.8-0.2v6.5h3.9v4.6h-3.9v7.6c0,1.4,0,2.3,0.1,2.7s0.3,0.8,0.6,1s1,0.4,1.8,0.4c0.5,0,1,0,1.7,0
		v4.4c-1.3,0.3-2.5,0.4-3.6,0.4c-1.8,0-3.2-0.3-4.1-1c-1-0.7-1.6-1.5-1.8-2.5s-0.4-2.6-0.4-4.8v-8.2h-2.4v-4.6h2.4V384.8z"/>
	<path id="XMLID_94_" d="M535.7,405.6h5.9v6.2h-5.9V405.6z"/>
</g>
<g id="XMLID_9_">
</g>
<g id="XMLID_10_">
</g>
<g id="XMLID_267_">
</g>
<g id="XMLID_268_">
</g>
<g id="XMLID_269_">
</g>
<g id="XMLID_270_">
</g>
<g id="XMLID_271_">
</g>
</svg>
