<?xml version="1.0" encoding="utf-8"?>
<!-- Generator: Adobe Illustrator 19.0.0, SVG Export Plug-In . SVG Version: 6.00 Build 0)  -->
<svg version="1.1" id="Ebene_1" xmlns="http://www.w3.org/2000/svg" xmlns:xlink="http://www.w3.org/1999/xlink" x="0px" y="0px"
	 viewBox="0 0 595.3 595.3" style="enable-background:new 0 0 595.3 595.3;" xml:space="preserve">
<g id="XMLID_1_">
	<path id="XMLID_5_" d="M178.1,284.4l5.5-15.8h-7.4l1.8-5.3h22l-1.8,5.3h-7.3l-5.5,15.8H178.1z"/>
	<path id="XMLID_7_" d="M194.6,284.4l7.3-21h7.3l-2.7,7.9h7.3l2.8-7.9h7.3l-7.3,21h-7.4l2.8-7.9h-7.4l-2.7,7.9H194.6z"/>
	<path id="XMLID_9_" d="M218.5,284.4l7.3-21h22l-1.8,5.3h-14.7l-0.9,2.6h14.7l-1.8,5.3h-14.7l-0.9,2.6h14.7l-1.8,5.3H218.5z"/>
	<path id="XMLID_11_" d="M247.8,284.4l-3.7-5.3l3.7-10.5l7.4-5.3h11l3.7,5.3l-3.7,10.5l-7.3,5.3H247.8z M258.9,279.2l3.7-10.5h-7.3
		l-3.7,10.5H258.9z"/>
	<path id="XMLID_14_" d="M269,276.6l1.8-5.3h14.7l-1.8,5.3H269z"/>
	<path id="XMLID_16_" d="M285.5,276.6l4.6-13.1h7.3l-4.3,12.3l2.5,3.5l4.9-3.5l4.3-12.3h7.3l-5.5,15.8l-12.9,9.2L285.5,276.6z"/>
	<path id="XMLID_18_" d="M312.1,284.4l-3.7-5.3l3.7-10.5l7.4-5.3h11l3.7,5.3l-3.7,10.5l-7.3,5.3H312.1z M323.1,279.2l3.7-10.5h-7.3
		l-3.7,10.5H323.1z"/>
	<path id="XMLID_21_" d="M330.5,284.4l7.3-21h16.5l3.7,5.3l-2.7,7.9h-3.7l2.7,7.9H347l-2.8-7.9h-3.7l-2.7,7.9H330.5z M349.8,271.3
		l0.9-2.6h-7.3l-0.9,2.6H349.8z"/>
	<path id="XMLID_24_" d="M354.3,284.4l7.3-21h7.3l-2.7,7.9h4.6l5.5-7.9h7.3l-8.6,12.3l3.1,8.7h-7.3l-2.8-7.9h-3.7l-2.7,7.9H354.3z"
		/>
	<path id="XMLID_26_" d="M383.7,284.4l-3.7-5.3l5.5-15.8h7.3l-5.5,15.8h7.4l5.5-15.8h7.3l-5.5,15.8l-7.3,5.3H383.7z"/>
	<path id="XMLID_28_" d="M402.1,284.4l7.3-21H426l3.7,5.3l-2.7,7.9h-3.7l2.7,7.9h-7.3l-2.8-7.9h-3.7l-2.7,7.9H402.1z M421.4,271.3
		l0.9-2.6h-7.3l-0.9,2.6H421.4z"/>
	<path id="XMLID_31_" d="M426,284.4l1.8-5.3h14.7l0.9-2.6h-12l-1.8-2.6l1.8-5.3l7.4-5.3h16.5l-1.8,5.3h-14.7l-0.9,2.6h11.9l1.8,2.6
		l-1.8,5.3l-7.3,5.3H426z"/>
	<path id="XMLID_33_" d="M170.7,321.7l6.8-19.4h21.7l1.4-3.9h-21.7l2.7-7.8H206l5.4,7.8l-4.1,11.6h-21.7l-1.4,3.9H206l-2.7,7.8
		H170.7z"/>
	<path id="XMLID_35_" d="M214.1,321.7l-5.4-7.8l5.4-15.5l10.9-7.8h16.3l5.4,7.8l-5.4,15.5l-10.8,7.8H214.1z M230.4,313.9l5.4-15.5
		h-10.8l-5.4,15.5H230.4z"/>
	<path id="XMLID_38_" d="M243.9,321.7l8.1-23.3h-2.7l2.7-7.8h13.6l-10.9,31H243.9z"/>
	<path id="XMLID_40_" d="M265.6,321.7l-5.4-7.8l5.4-7.8v-7.8l10.9-7.8h16.3l5.4,7.8l-5.4,7.8v7.8l-10.8,7.8H265.6z M281.9,313.9V310
		h-8.1l-2.7,3.9H281.9z M284.5,302.3l2.7-3.9h-10.8v3.9H284.5z"/>
</g>
<g id="XMLID_2_">
</g>
<g id="XMLID_3_">
</g>
<g id="XMLID_4_">
</g>
<g id="XMLID_44_">
</g>
<g id="XMLID_45_">
</g>
<g id="XMLID_46_">
</g>
<g id="XMLID_47_">
</g>
<g id="XMLID_48_">
</g>
</svg>
