<?xml version="1.0" encoding="UTF-8" standalone="no"?>
<!-- Generator: Adobe Illustrator 19.0.0, SVG Export Plug-In . SVG Version: 6.00 Build 0)  -->

<svg
   xmlns:dc="http://purl.org/dc/elements/1.1/"
   xmlns:cc="http://creativecommons.org/ns#"
   xmlns:rdf="http://www.w3.org/1999/02/22-rdf-syntax-ns#"
   xmlns:svg="http://www.w3.org/2000/svg"
   xmlns="http://www.w3.org/2000/svg"
   xmlns:sodipodi="http://sodipodi.sourceforge.net/DTD/sodipodi-0.dtd"
   xmlns:inkscape="http://www.inkscape.org/namespaces/inkscape"
   version="1.1"
   id="Ebene_1"
   x="0px"
   y="0px"
   viewBox="0 0 595.3 595.3"
   style="enable-background:new 0 0 595.3 595.3;"
   xml:space="preserve"
   sodipodi:docname="FIUS-Biber-grau.svg"
   inkscape:version="0.92.4 (5da689c313, 2019-01-14)"><metadata
   id="metadata5901"><rdf:RDF><cc:Work
       rdf:about=""><dc:format>image/svg+xml</dc:format><dc:type
         rdf:resource="http://purl.org/dc/dcmitype/StillImage" /><dc:title></dc:title></cc:Work></rdf:RDF></metadata><defs
   id="defs5899" /><sodipodi:namedview
   pagecolor="#ffffff"
   bordercolor="#666666"
   borderopacity="1"
   objecttolerance="10"
   gridtolerance="10"
   guidetolerance="10"
   inkscape:pageopacity="0"
   inkscape:pageshadow="2"
   inkscape:window-width="1920"
   inkscape:window-height="1001"
   id="namedview5897"
   showgrid="false"
   inkscape:zoom="0.67864943"
   inkscape:cx="7.5570214"
   inkscape:cy="125.03075"
   inkscape:window-x="-9"
   inkscape:window-y="-9"
   inkscape:window-maximized="1"
   inkscape:current-layer="XMLID_3_" />
<style
   type="text/css"
   id="style4808">
	.st0{fill:#502D17;}
	.st1{fill:#010202;fill-opacity:0;stroke:#010202;stroke-width:4;}
	.st2{fill:#784521;}
	.st3{fill:#085B9F;}
	.st4{fill:#FFFFFF;}
	.st5{fill:#010202;fill-opacity:0;stroke:#010202;stroke-opacity:0;}
	.st6{fill:#010202;fill-opacity:0.31;}
	.st7{fill:#010202;fill-opacity:0;stroke:#010202;stroke-width:3.67;}
	.st8{fill:#010202;fill-opacity:0;stroke:#010202;stroke-width:6;}
	.st9{fill:#542610;}
	.st10{fill:#010202;fill-opacity:0;stroke:#010202;stroke-width:2;}
	.st11{fill:#010202;}
	.st12{fill:#010202;fill-opacity:0;stroke:#010202;stroke-width:3;}
	.st13{fill:none;}
</style>
<g
   id="XMLID_1_">
	<g
   id="XMLID_2_">
		<g
   id="XMLID_3_">
			<g
   id="XMLID_1052_">
				<g
   id="XMLID_1057_">
					<path
   id="fcdqtZ9VA_5_"
   class="st0"
   d="M156.6,21.2c193.1-61.4,117.5,264.3,117.5,264.3c-2.8,0.7-17.1,4.3-42.7,10.7       C53,153.8,28.1,62.1,156.6,21.2z" />
				</g>
				<g
   id="XMLID_1053_">
					<g
   id="XMLID_1054_">
						<path
   id="fcdqtZ9VA_2_"
   class="st1"
   d="M156.6,21.2c193.1-61.4,117.5,264.3,117.5,264.3c-2.8,0.7-17.1,4.3-42.7,10.7        C53,153.8,28.1,62.1,156.6,21.2z" />
					</g>
				</g>
			</g>
			<g
   id="XMLID_1046_">
				<g
   id="XMLID_1051_">
					<path
   id="g1hyypuVMs_5_"
   class="st2"
   d="M307.3,459.2c-84.4,0-152.9-68.5-152.9-152.9c0-84.4,68.5-152.9,152.9-152.9       c84.5,0,152.9,68.5,152.9,152.9C460.2,390.8,391.8,459.2,307.3,459.2z" />
				</g>
				<g
   id="XMLID_1047_">
					<g
   id="XMLID_1048_">
						<path
   id="g1hyypuVMs_2_"
   class="st1"
   d="M307.3,459.2c-84.4,0-152.9-68.5-152.9-152.9c0-84.4,68.5-152.9,152.9-152.9        c84.5,0,152.9,68.5,152.9,152.9C460.2,390.8,391.8,459.2,307.3,459.2z" />
					</g>
				</g>
			</g>
			<g
   id="XMLID_1040_"
   style="fill:#666666">
				<g
   id="XMLID_1045_"
   style="fill:#666666">
					<path
   id="a8hTeij2op_5_"
   class="st3"
   d="m 154.5,300.3 c 0,1.5 -0.1,3 -0.1,4.5 0.1,25.6 6.5,50.7 18.8,73.1 26.8,0 241.5,0 268.4,0 12.2,-22.4 18.6,-47.6 18.6,-73.1 0,-82.7 -65.8,-150.4 -148.5,-152.8 -84.3,-2.6 -154.8,63.9 -157.2,148.3 z"
   inkscape:connector-curvature="0"
   style="fill:#666666" />
				</g>
				<g
   id="XMLID_1041_"
   style="fill:#666666">
					<g
   id="XMLID_1042_"
   style="fill:#666666">
						<path
   id="a8hTeij2op_2_"
   class="st1"
   d="m 154.5,300.3 c 0,1.5 -0.1,3 -0.1,4.5 0.1,25.6 6.5,50.7 18.8,73.1 26.8,0 241.5,0 268.4,0 12.2,-22.4 18.6,-47.6 18.6,-73.1 0,-82.7 -65.8,-150.4 -148.5,-152.8 -84.3,-2.6 -154.8,63.9 -157.2,148.3 z"
   inkscape:connector-curvature="0"
   style="fill:#666666;fill-opacity:0;stroke:#010202;stroke-width:4" />
					</g>
				</g>
			</g>
			<g
   id="XMLID_1034_">
				<g
   id="XMLID_1039_">
					<path
   id="amryWwRyD_5_"
   class="st4"
   d="M307.2,259.3c-3.1,0-5.6,2.5-5.6,5.6s2.5,5.6,5.6,5.6c3.1,0,5.6-2.5,5.6-5.6       S310.3,259.3,307.2,259.3" />
				</g>
				<g
   id="XMLID_1035_">
					<g
   id="XMLID_1036_">
						<path
   id="amryWwRyD_2_"
   class="st5"
   d="M307.2,259.3c-3.1,0-5.6,2.5-5.6,5.6s2.5,5.6,5.6,5.6c3.1,0,5.6-2.5,5.6-5.6        S310.3,259.3,307.2,259.3" />
					</g>
				</g>
			</g>
			<g
   id="XMLID_1028_">
				<g
   id="XMLID_1033_">
					<path
   id="b13uDMfkZx_5_"
   class="st4"
   d="M321.3,256.2c0-3.1-2.5-5.6-5.6-5.6c-3.1,0-5.6,2.5-5.6,5.6c0,3.1,2.5,5.6,5.6,5.6       C318.8,261.8,321.3,259.3,321.3,256.2" />
				</g>
				<g
   id="XMLID_1029_">
					<g
   id="XMLID_1030_">
						<path
   id="b13uDMfkZx_2_"
   class="st5"
   d="M321.3,256.2c0-3.1-2.5-5.6-5.6-5.6c-3.1,0-5.6,2.5-5.6,5.6c0,3.1,2.5,5.6,5.6,5.6        C318.8,261.8,321.3,259.3,321.3,256.2" />
					</g>
				</g>
			</g>
			<g
   id="XMLID_1022_">
				<g
   id="XMLID_1027_">
					<path
   id="bFVG58ed_5_"
   class="st4"
   d="M321.3,273.7c0-3.1-2.5-5.6-5.6-5.6c-3.1,0-5.6,2.5-5.6,5.6s2.5,5.6,5.6,5.6       C318.8,279.3,321.3,276.8,321.3,273.7" />
				</g>
				<g
   id="XMLID_1023_">
					<g
   id="XMLID_1024_">
						<path
   id="bFVG58ed_2_"
   class="st5"
   d="M321.3,273.7c0-3.1-2.5-5.6-5.6-5.6c-3.1,0-5.6,2.5-5.6,5.6s2.5,5.6,5.6,5.6        C318.8,279.3,321.3,276.8,321.3,273.7" />
					</g>
				</g>
			</g>
			<g
   id="XMLID_1016_">
				<g
   id="XMLID_1021_">
					<path
   id="c4p3E05j40_5_"
   class="st4"
   d="M325.4,259.1c-3.1,0-5.6,2.5-5.6,5.6c0,3.1,2.5,5.6,5.6,5.6c3.1,0,5.6-2.5,5.6-5.6       C331,261.6,328.5,259.1,325.4,259.1" />
				</g>
				<g
   id="XMLID_1017_">
					<g
   id="XMLID_1018_">
						<path
   id="c4p3E05j40_2_"
   class="st5"
   d="M325.4,259.1c-3.1,0-5.6,2.5-5.6,5.6c0,3.1,2.5,5.6,5.6,5.6c3.1,0,5.6-2.5,5.6-5.6        C331,261.6,328.5,259.1,325.4,259.1" />
					</g>
				</g>
			</g>
			<g
   id="XMLID_1010_">
				<g
   id="XMLID_1015_">
					<path
   id="d2gp4Crmep_5_"
   class="st4"
   d="M335.9,250.2c-3.1,0-5.6,2.5-5.6,5.6s2.5,5.6,5.6,5.6c3.1,0,5.6-2.5,5.6-5.6       S339,250.2,335.9,250.2" />
				</g>
				<g
   id="XMLID_1011_">
					<g
   id="XMLID_1012_">
						<path
   id="d2gp4Crmep_2_"
   class="st5"
   d="M335.9,250.2c-3.1,0-5.6,2.5-5.6,5.6s2.5,5.6,5.6,5.6c3.1,0,5.6-2.5,5.6-5.6        S339,250.2,335.9,250.2" />
					</g>
				</g>
			</g>
			<g
   id="XMLID_1004_">
				<g
   id="XMLID_1009_">
					<path
   id="a9KVxwbi7_5_"
   class="st4"
   d="M335.9,268.3c-3.1,0-5.6,2.5-5.6,5.6s2.5,5.6,5.6,5.6c3.1,0,5.6-2.5,5.6-5.6       S339,268.3,335.9,268.3" />
				</g>
				<g
   id="XMLID_1005_">
					<g
   id="XMLID_1006_">
						<path
   id="a9KVxwbi7_2_"
   class="st5"
   d="M335.9,268.3c-3.1,0-5.6,2.5-5.6,5.6s2.5,5.6,5.6,5.6c3.1,0,5.6-2.5,5.6-5.6        S339,268.3,335.9,268.3" />
					</g>
				</g>
			</g>
			<g
   id="XMLID_998_">
				<g
   id="XMLID_1003_">
					<path
   id="bgzdk1hBw_5_"
   class="st4"
   d="M325,288.2c3.1,0,5.6-2.5,5.6-5.6c0-3.1-2.5-5.6-5.6-5.6c-3.1,0-5.6,2.5-5.6,5.6       C319.4,285.7,321.9,288.2,325,288.2" />
				</g>
				<g
   id="XMLID_999_">
					<g
   id="XMLID_1000_">
						<path
   id="bgzdk1hBw_2_"
   class="st5"
   d="M325,288.2c3.1,0,5.6-2.5,5.6-5.6c0-3.1-2.5-5.6-5.6-5.6c-3.1,0-5.6,2.5-5.6,5.6        C319.4,285.7,321.9,288.2,325,288.2" />
					</g>
				</g>
			</g>
			<g
   id="XMLID_992_">
				<g
   id="XMLID_997_">
					<path
   id="a5KLCcG0Te_5_"
   class="st4"
   d="M321.9,293.5c0-3.1-2.5-5.6-5.6-5.6c-3.1,0-5.6,2.5-5.6,5.6c0,3.1,2.5,5.6,5.6,5.6       C319.4,299.1,321.9,296.6,321.9,293.5" />
				</g>
				<g
   id="XMLID_993_">
					<g
   id="XMLID_994_">
						<path
   id="a5KLCcG0Te_2_"
   class="st5"
   d="M321.9,293.5c0-3.1-2.5-5.6-5.6-5.6c-3.1,0-5.6,2.5-5.6,5.6c0,3.1,2.5,5.6,5.6,5.6        C319.4,299.1,321.9,296.6,321.9,293.5" />
					</g>
				</g>
			</g>
			<g
   id="XMLID_986_">
				<g
   id="XMLID_991_">
					<path
   id="g2hLvkTTsQ_5_"
   class="st4"
   d="M307.5,311c3.1,0,5.6-2.5,5.6-5.6c0-3.1-2.5-5.6-5.6-5.6c-3.1,0-5.6,2.5-5.6,5.6       C301.9,308.5,304.4,311,307.5,311" />
				</g>
				<g
   id="XMLID_987_">
					<g
   id="XMLID_988_">
						<path
   id="g2hLvkTTsQ_2_"
   class="st5"
   d="M307.5,311c3.1,0,5.6-2.5,5.6-5.6c0-3.1-2.5-5.6-5.6-5.6c-3.1,0-5.6,2.5-5.6,5.6        C301.9,308.5,304.4,311,307.5,311" />
					</g>
				</g>
			</g>
			<g
   id="XMLID_980_">
				<g
   id="XMLID_985_">
					<path
   id="a3JQxCtfDm_5_"
   class="st4"
   d="M347.8,259.1c-3.1,0-5.6,2.5-5.6,5.6s2.5,5.6,5.6,5.6c3.1,0,5.6-2.5,5.6-5.6       S350.9,259.1,347.8,259.1" />
				</g>
				<g
   id="XMLID_981_">
					<g
   id="XMLID_982_">
						<path
   id="a3JQxCtfDm_2_"
   class="st5"
   d="M347.8,259.1c-3.1,0-5.6,2.5-5.6,5.6s2.5,5.6,5.6,5.6c3.1,0,5.6-2.5,5.6-5.6        S350.9,259.1,347.8,259.1" />
					</g>
				</g>
			</g>
			<g
   id="XMLID_974_">
				<g
   id="XMLID_979_">
					<path
   id="bGGk0FWpv_5_"
   class="st4"
   d="M347.2,277.8c-3.1,0-5.6,2.5-5.6,5.6c0,3.1,2.5,5.6,5.6,5.6c3.1,0,5.6-2.5,5.6-5.6       C352.9,280.4,350.3,277.8,347.2,277.8" />
				</g>
				<g
   id="XMLID_975_">
					<g
   id="XMLID_976_">
						<path
   id="bGGk0FWpv_2_"
   class="st5"
   d="M347.2,277.8c-3.1,0-5.6,2.5-5.6,5.6c0,3.1,2.5,5.6,5.6,5.6c3.1,0,5.6-2.5,5.6-5.6        C352.9,280.4,350.3,277.8,347.2,277.8" />
					</g>
				</g>
			</g>
			<g
   id="XMLID_968_">
				<g
   id="XMLID_973_">
					<path
   id="e2XIr8UdsM_5_"
   class="st4"
   d="M360.3,269.4c-3.1,0-5.6,2.5-5.6,5.6c0,3.1,2.5,5.6,5.6,5.6c3.1,0,5.6-2.5,5.6-5.6       C366,271.9,363.4,269.4,360.3,269.4" />
				</g>
				<g
   id="XMLID_969_">
					<g
   id="XMLID_970_">
						<path
   id="e2XIr8UdsM_2_"
   class="st5"
   d="M360.3,269.4c-3.1,0-5.6,2.5-5.6,5.6c0,3.1,2.5,5.6,5.6,5.6c3.1,0,5.6-2.5,5.6-5.6        C366,271.9,363.4,269.4,360.3,269.4" />
					</g>
				</g>
			</g>
			<g
   id="XMLID_962_">
				<g
   id="XMLID_967_">
					<path
   id="b2I5te2T9S_5_"
   class="st4"
   d="M364.4,294c0-3.1-2.5-5.6-5.6-5.6c-3.1,0-5.6,2.5-5.6,5.6c0,3.1,2.5,5.6,5.6,5.6       C361.9,299.6,364.4,297.1,364.4,294" />
				</g>
				<g
   id="XMLID_963_">
					<g
   id="XMLID_964_">
						<path
   id="b2I5te2T9S_2_"
   class="st5"
   d="M364.4,294c0-3.1-2.5-5.6-5.6-5.6c-3.1,0-5.6,2.5-5.6,5.6c0,3.1,2.5,5.6,5.6,5.6        C361.9,299.6,364.4,297.1,364.4,294" />
					</g>
				</g>
			</g>
			<g
   id="XMLID_956_">
				<g
   id="XMLID_961_">
					<path
   id="cuK1LjohP_5_"
   class="st4"
   d="M350.8,302.4c0-3.1-2.5-5.6-5.6-5.6c-3.1,0-5.6,2.5-5.6,5.6c0,3.1,2.5,5.6,5.6,5.6       C348.3,308,350.8,305.5,350.8,302.4" />
				</g>
				<g
   id="XMLID_957_">
					<g
   id="XMLID_958_">
						<path
   id="cuK1LjohP_2_"
   class="st5"
   d="M350.8,302.4c0-3.1-2.5-5.6-5.6-5.6c-3.1,0-5.6,2.5-5.6,5.6c0,3.1,2.5,5.6,5.6,5.6        C348.3,308,350.8,305.5,350.8,302.4" />
					</g>
				</g>
			</g>
			<g
   id="XMLID_950_">
				<g
   id="XMLID_955_">
					<path
   id="ayzS7kjGt_5_"
   class="st4"
   d="M325.9,310.3c3.1,0,5.6-2.5,5.6-5.6c0-3.1-2.5-5.6-5.6-5.6c-3.1,0-5.6,2.5-5.6,5.6       C320.3,307.8,322.8,310.3,325.9,310.3" />
				</g>
				<g
   id="XMLID_951_">
					<g
   id="XMLID_952_">
						<path
   id="ayzS7kjGt_2_"
   class="st5"
   d="M325.9,310.3c3.1,0,5.6-2.5,5.6-5.6c0-3.1-2.5-5.6-5.6-5.6c-3.1,0-5.6,2.5-5.6,5.6        C320.3,307.8,322.8,310.3,325.9,310.3" />
					</g>
				</g>
			</g>
			<g
   id="XMLID_944_">
				<g
   id="XMLID_949_">
					<path
   id="aIM28nxUC_5_"
   class="st4"
   d="M317.1,323.4c3.1,0,5.6-2.5,5.6-5.6c0-3.1-2.5-5.6-5.6-5.6c-3.1,0-5.6,2.5-5.6,5.6       C311.5,320.9,314,323.4,317.1,323.4" />
				</g>
				<g
   id="XMLID_945_">
					<g
   id="XMLID_946_">
						<path
   id="aIM28nxUC_2_"
   class="st5"
   d="M317.1,323.4c3.1,0,5.6-2.5,5.6-5.6c0-3.1-2.5-5.6-5.6-5.6c-3.1,0-5.6,2.5-5.6,5.6        C311.5,320.9,314,323.4,317.1,323.4" />
					</g>
				</g>
			</g>
			<g
   id="XMLID_938_">
				<g
   id="XMLID_943_">
					<path
   id="a5bK7nXvpC_5_"
   class="st4"
   d="M307.4,337.4c3.1,0,5.6-2.5,5.6-5.6c0-3.1-2.5-5.6-5.6-5.6c-3.1,0-5.6,2.5-5.6,5.6       C301.8,334.8,304.4,337.4,307.4,337.4" />
				</g>
				<g
   id="XMLID_939_">
					<g
   id="XMLID_940_">
						<path
   id="a5bK7nXvpC_2_"
   class="st5"
   d="M307.4,337.4c3.1,0,5.6-2.5,5.6-5.6c0-3.1-2.5-5.6-5.6-5.6c-3.1,0-5.6,2.5-5.6,5.6        C301.8,334.8,304.4,337.4,307.4,337.4" />
					</g>
				</g>
			</g>
			<g
   id="XMLID_932_">
				<g
   id="XMLID_937_">
					<path
   id="hvZWeWCah_5_"
   class="st4"
   d="M340.3,292.2c0-3.1-2.5-5.6-5.6-5.6c-3.1,0-5.6,2.5-5.6,5.6c0,3.1,2.5,5.6,5.6,5.6       C337.8,297.8,340.3,295.3,340.3,292.2" />
				</g>
				<g
   id="XMLID_933_">
					<g
   id="XMLID_934_">
						<path
   id="hvZWeWCah_2_"
   class="st5"
   d="M340.3,292.2c0-3.1-2.5-5.6-5.6-5.6c-3.1,0-5.6,2.5-5.6,5.6c0,3.1,2.5,5.6,5.6,5.6        C337.8,297.8,340.3,295.3,340.3,292.2" />
					</g>
				</g>
			</g>
			<g
   id="XMLID_926_">
				<g
   id="XMLID_931_">
					<path
   id="a1zhmFR1db_5_"
   class="st4"
   d="M373.5,279.7c-3.1,0-5.6,2.5-5.6,5.6c0,3.1,2.5,5.6,5.6,5.6c3.1,0,5.6-2.5,5.6-5.6       C379.1,282.2,376.6,279.7,373.5,279.7" />
				</g>
				<g
   id="XMLID_927_">
					<g
   id="XMLID_928_">
						<path
   id="a1zhmFR1db_2_"
   class="st5"
   d="M373.5,279.7c-3.1,0-5.6,2.5-5.6,5.6c0,3.1,2.5,5.6,5.6,5.6c3.1,0,5.6-2.5,5.6-5.6        C379.1,282.2,376.6,279.7,373.5,279.7" />
					</g>
				</g>
			</g>
			<g
   id="XMLID_920_">
				<g
   id="XMLID_925_">
					<path
   id="cvKT9g8oh_5_"
   class="st4"
   d="M371.4,299.9c-3.1,0-5.6,2.5-5.6,5.6c0,3.1,2.5,5.6,5.6,5.6c3.1,0,5.6-2.5,5.6-5.6       C377,302.4,374.5,299.9,371.4,299.9" />
				</g>
				<g
   id="XMLID_921_">
					<g
   id="XMLID_922_">
						<path
   id="cvKT9g8oh_2_"
   class="st5"
   d="M371.4,299.9c-3.1,0-5.6,2.5-5.6,5.6c0,3.1,2.5,5.6,5.6,5.6c3.1,0,5.6-2.5,5.6-5.6        C377,302.4,374.5,299.9,371.4,299.9" />
					</g>
				</g>
			</g>
			<g
   id="XMLID_914_">
				<g
   id="XMLID_919_">
					<path
   id="kKx0Y0oln_5_"
   class="st4"
   d="M385.2,311.9c-3.1,0-5.6,2.5-5.6,5.6c0,3.1,2.5,5.6,5.6,5.6c3.1,0,5.6-2.5,5.6-5.6       C390.8,314.5,388.3,311.9,385.2,311.9" />
				</g>
				<g
   id="XMLID_915_">
					<g
   id="XMLID_916_">
						<path
   id="kKx0Y0oln_2_"
   class="st5"
   d="M385.2,311.9c-3.1,0-5.6,2.5-5.6,5.6c0,3.1,2.5,5.6,5.6,5.6c3.1,0,5.6-2.5,5.6-5.6        C390.8,314.5,388.3,311.9,385.2,311.9" />
					</g>
				</g>
			</g>
			<g
   id="XMLID_908_">
				<g
   id="XMLID_913_">
					<path
   id="b2FI5ivGeL_5_"
   class="st4"
   d="M368.2,319.9c-3.1,0-5.6,2.5-5.6,5.6c0,3.1,2.5,5.6,5.6,5.6c3.1,0,5.6-2.5,5.6-5.6       C373.8,322.4,371.3,319.9,368.2,319.9" />
				</g>
				<g
   id="XMLID_909_">
					<g
   id="XMLID_910_">
						<path
   id="b2FI5ivGeL_2_"
   class="st5"
   d="M368.2,319.9c-3.1,0-5.6,2.5-5.6,5.6c0,3.1,2.5,5.6,5.6,5.6c3.1,0,5.6-2.5,5.6-5.6        C373.8,322.4,371.3,319.9,368.2,319.9" />
					</g>
				</g>
			</g>
			<g
   id="XMLID_902_">
				<g
   id="XMLID_907_">
					<path
   id="a3ZWxMFLzX_5_"
   class="st4"
   d="M362.1,313.9c0-3.1-2.5-5.6-5.6-5.6c-3.1,0-5.6,2.5-5.6,5.6c0,3.1,2.5,5.6,5.6,5.6       C359.5,319.5,362.1,317,362.1,313.9" />
				</g>
				<g
   id="XMLID_903_">
					<g
   id="XMLID_904_">
						<path
   id="a3ZWxMFLzX_2_"
   class="st5"
   d="M362.1,313.9c0-3.1-2.5-5.6-5.6-5.6c-3.1,0-5.6,2.5-5.6,5.6c0,3.1,2.5,5.6,5.6,5.6        C359.5,319.5,362.1,317,362.1,313.9" />
					</g>
				</g>
			</g>
			<g
   id="XMLID_896_">
				<g
   id="XMLID_901_">
					<path
   id="b40SDptaXx_5_"
   class="st4"
   d="M348.1,334.5c3.1,0,5.6-2.5,5.6-5.6c0-3.1-2.5-5.6-5.6-5.6c-3.1,0-5.6,2.5-5.6,5.6       C342.5,332,345,334.5,348.1,334.5" />
				</g>
				<g
   id="XMLID_897_">
					<g
   id="XMLID_898_">
						<path
   id="b40SDptaXx_2_"
   class="st5"
   d="M348.1,334.5c3.1,0,5.6-2.5,5.6-5.6c0-3.1-2.5-5.6-5.6-5.6c-3.1,0-5.6,2.5-5.6,5.6        C342.5,332,345,334.5,348.1,334.5" />
					</g>
				</g>
			</g>
			<g
   id="XMLID_890_">
				<g
   id="XMLID_895_">
					<path
   id="a1xMZlhGo3_5_"
   class="st4"
   d="M327.7,336.6c3.1,0,5.6-2.5,5.6-5.6s-2.5-5.6-5.6-5.6c-3.1,0-5.6,2.5-5.6,5.6       S324.6,336.6,327.7,336.6" />
				</g>
				<g
   id="XMLID_891_">
					<g
   id="XMLID_892_">
						<path
   id="a1xMZlhGo3_2_"
   class="st5"
   d="M327.7,336.6c3.1,0,5.6-2.5,5.6-5.6s-2.5-5.6-5.6-5.6c-3.1,0-5.6,2.5-5.6,5.6        S324.6,336.6,327.7,336.6" />
					</g>
				</g>
			</g>
			<g
   id="XMLID_884_">
				<g
   id="XMLID_889_">
					<path
   id="d1BptKKAba_5_"
   class="st4"
   d="M342.1,316.4c0-3.1-2.5-5.6-5.6-5.6c-3.1,0-5.6,2.5-5.6,5.6c0,3.1,2.5,5.6,5.6,5.6       C339.6,322,342.1,319.5,342.1,316.4" />
				</g>
				<g
   id="XMLID_885_">
					<g
   id="XMLID_886_">
						<path
   id="d1BptKKAba_2_"
   class="st5"
   d="M342.1,316.4c0-3.1-2.5-5.6-5.6-5.6c-3.1,0-5.6,2.5-5.6,5.6c0,3.1,2.5,5.6,5.6,5.6        C339.6,322,342.1,319.5,342.1,316.4" />
					</g>
				</g>
			</g>
			<g
   id="XMLID_878_">
				<g
   id="XMLID_883_">
					<path
   id="bGvWWuiyn_5_"
   class="st4"
   d="M381.3,333c-3.1,0-5.6,2.5-5.6,5.6c0,3.1,2.5,5.6,5.6,5.6c3.1,0,5.6-2.5,5.6-5.6       C386.9,335.5,384.4,333,381.3,333" />
				</g>
				<g
   id="XMLID_879_">
					<g
   id="XMLID_880_">
						<path
   id="bGvWWuiyn_2_"
   class="st5"
   d="M381.3,333c-3.1,0-5.6,2.5-5.6,5.6c0,3.1,2.5,5.6,5.6,5.6c3.1,0,5.6-2.5,5.6-5.6        C386.9,335.5,384.4,333,381.3,333" />
					</g>
				</g>
			</g>
			<g
   id="XMLID_872_">
				<g
   id="XMLID_877_">
					<path
   id="dngWQ9ev_5_"
   class="st4"
   d="M360,337c-3.1,0-5.6,2.5-5.6,5.6s2.5,5.6,5.6,5.6c3.1,0,5.6-2.5,5.6-5.6       S363.1,337,360,337" />
				</g>
				<g
   id="XMLID_873_">
					<g
   id="XMLID_874_">
						<path
   id="dngWQ9ev_2_"
   class="st5"
   d="M360,337c-3.1,0-5.6,2.5-5.6,5.6s2.5,5.6,5.6,5.6c3.1,0,5.6-2.5,5.6-5.6        S363.1,337,360,337" />
					</g>
				</g>
			</g>
			<g
   id="XMLID_866_">
				<g
   id="XMLID_871_">
					<path
   id="g2EHUzsw4_5_"
   class="st4"
   d="M350.8,353.4c-3.1,0-5.6,2.5-5.6,5.6c0,3.1,2.5,5.6,5.6,5.6c3.1,0,5.6-2.5,5.6-5.6       C356.4,355.9,353.9,353.4,350.8,353.4" />
				</g>
				<g
   id="XMLID_867_">
					<g
   id="XMLID_868_">
						<path
   id="g2EHUzsw4_2_"
   class="st5"
   d="M350.8,353.4c-3.1,0-5.6,2.5-5.6,5.6c0,3.1,2.5,5.6,5.6,5.6c3.1,0,5.6-2.5,5.6-5.6        C356.4,355.9,353.9,353.4,350.8,353.4" />
					</g>
				</g>
			</g>
			<g
   id="XMLID_860_">
				<g
   id="XMLID_865_">
					<path
   id="as2GsvHIz_5_"
   class="st4"
   d="M338.8,339.3c-3.1,0-5.6,2.5-5.6,5.6s2.5,5.6,5.6,5.6c3.1,0,5.6-2.5,5.6-5.6       S341.9,339.3,338.8,339.3" />
				</g>
				<g
   id="XMLID_861_">
					<g
   id="XMLID_862_">
						<path
   id="as2GsvHIz_2_"
   class="st5"
   d="M338.8,339.3c-3.1,0-5.6,2.5-5.6,5.6s2.5,5.6,5.6,5.6c3.1,0,5.6-2.5,5.6-5.6        S341.9,339.3,338.8,339.3" />
					</g>
				</g>
			</g>
			<g
   id="XMLID_854_">
				<g
   id="XMLID_859_">
					<path
   id="a1gNHkC9j4_5_"
   class="st4"
   d="M329,356.2c-3.1,0-5.6,2.5-5.6,5.6c0,3.1,2.5,5.6,5.6,5.6c3.1,0,5.6-2.5,5.6-5.6       C334.7,358.7,332.1,356.2,329,356.2" />
				</g>
				<g
   id="XMLID_855_">
					<g
   id="XMLID_856_">
						<path
   id="a1gNHkC9j4_2_"
   class="st5"
   d="M329,356.2c-3.1,0-5.6,2.5-5.6,5.6c0,3.1,2.5,5.6,5.6,5.6c3.1,0,5.6-2.5,5.6-5.6        C334.7,358.7,332.1,356.2,329,356.2" />
					</g>
				</g>
			</g>
			<g
   id="XMLID_848_">
				<g
   id="XMLID_853_">
					<path
   id="ckQBSSj66_5_"
   class="st4"
   d="M317.6,340.8c-3.1,0-5.6,2.5-5.6,5.6c0,3.1,2.5,5.6,5.6,5.6c3.1,0,5.6-2.5,5.6-5.6       C323.2,343.3,320.7,340.8,317.6,340.8" />
				</g>
				<g
   id="XMLID_849_">
					<g
   id="XMLID_850_">
						<path
   id="ckQBSSj66_2_"
   class="st5"
   d="M317.6,340.8c-3.1,0-5.6,2.5-5.6,5.6c0,3.1,2.5,5.6,5.6,5.6c3.1,0,5.6-2.5,5.6-5.6        C323.2,343.3,320.7,340.8,317.6,340.8" />
					</g>
				</g>
			</g>
			<g
   id="XMLID_842_">
				<g
   id="XMLID_847_">
					<path
   id="nilAFCx_5_"
   class="st4"
   d="M307.5,357.3c-3.1,0-5.6,2.5-5.6,5.6c0,3.1,2.5,5.6,5.6,5.6c3.1,0,5.6-2.5,5.6-5.6       C313.2,359.8,310.6,357.3,307.5,357.3" />
				</g>
				<g
   id="XMLID_843_">
					<g
   id="XMLID_844_">
						<path
   id="nilAFCx_2_"
   class="st5"
   d="M307.5,357.3c-3.1,0-5.6,2.5-5.6,5.6c0,3.1,2.5,5.6,5.6,5.6c3.1,0,5.6-2.5,5.6-5.6        C313.2,359.8,310.6,357.3,307.5,357.3" />
					</g>
				</g>
			</g>
			<g
   id="XMLID_836_">
				<g
   id="XMLID_841_">
					<path
   id="ecY8PjboW_5_"
   class="st4"
   d="M296.8,340.8c-3.1,0-5.6,2.5-5.6,5.6c0,3.1,2.5,5.6,5.6,5.6c3.1,0,5.6-2.5,5.6-5.6       C302.4,343.3,299.9,340.8,296.8,340.8" />
				</g>
				<g
   id="XMLID_837_">
					<g
   id="XMLID_838_">
						<path
   id="ecY8PjboW_2_"
   class="st5"
   d="M296.8,340.8c-3.1,0-5.6,2.5-5.6,5.6c0,3.1,2.5,5.6,5.6,5.6c3.1,0,5.6-2.5,5.6-5.6        C302.4,343.3,299.9,340.8,296.8,340.8" />
					</g>
				</g>
			</g>
			<g
   id="XMLID_830_">
				<g
   id="XMLID_835_">
					<path
   id="bketgP6qJ_5_"
   class="st4"
   d="M285.5,356.3c-3.1,0-5.6,2.5-5.6,5.6c0,3.1,2.5,5.6,5.6,5.6c3.1,0,5.6-2.5,5.6-5.6       C291.1,358.8,288.6,356.3,285.5,356.3" />
				</g>
				<g
   id="XMLID_831_">
					<g
   id="XMLID_832_">
						<path
   id="bketgP6qJ_2_"
   class="st5"
   d="M285.5,356.3c-3.1,0-5.6,2.5-5.6,5.6c0,3.1,2.5,5.6,5.6,5.6c3.1,0,5.6-2.5,5.6-5.6        C291.1,358.8,288.6,356.3,285.5,356.3" />
					</g>
				</g>
			</g>
			<g
   id="XMLID_824_">
				<g
   id="XMLID_829_">
					<path
   id="l8u7D6sPyN_5_"
   class="st4"
   d="M264.3,353.4c-3.1,0-5.6,2.5-5.6,5.6c0,3.1,2.5,5.6,5.6,5.6c3.1,0,5.6-2.5,5.6-5.6       C270,355.9,267.4,353.4,264.3,353.4" />
				</g>
				<g
   id="XMLID_825_">
					<g
   id="XMLID_826_">
						<path
   id="l8u7D6sPyN_2_"
   class="st5"
   d="M264.3,353.4c-3.1,0-5.6,2.5-5.6,5.6c0,3.1,2.5,5.6,5.6,5.6c3.1,0,5.6-2.5,5.6-5.6        C270,355.9,267.4,353.4,264.3,353.4" />
					</g>
				</g>
			</g>
			<g
   id="XMLID_818_">
				<g
   id="XMLID_823_">
					<path
   id="a13GzPxEmL_5_"
   class="st4"
   d="M387.5,290.7c-3.1,0-5.6,2.5-5.6,5.6s2.5,5.6,5.6,5.6c3.1,0,5.6-2.5,5.6-5.6       S390.7,290.7,387.5,290.7" />
				</g>
				<g
   id="XMLID_819_">
					<g
   id="XMLID_820_">
						<path
   id="a13GzPxEmL_2_"
   class="st5"
   d="M387.5,290.7c-3.1,0-5.6,2.5-5.6,5.6s2.5,5.6,5.6,5.6c3.1,0,5.6-2.5,5.6-5.6        S390.7,290.7,387.5,290.7" />
					</g>
				</g>
			</g>
			<g
   id="XMLID_812_">
				<g
   id="XMLID_817_">
					<path
   id="d3hYlNkvd_5_"
   class="st4"
   d="M401.6,302.2c-3.1,0-5.6,2.5-5.6,5.6c0,3.1,2.5,5.6,5.6,5.6c3.1,0,5.6-2.5,5.6-5.6       C407.2,304.7,404.7,302.2,401.6,302.2" />
				</g>
				<g
   id="XMLID_813_">
					<g
   id="XMLID_814_">
						<path
   id="d3hYlNkvd_2_"
   class="st5"
   d="M401.6,302.2c-3.1,0-5.6,2.5-5.6,5.6c0,3.1,2.5,5.6,5.6,5.6c3.1,0,5.6-2.5,5.6-5.6        C407.2,304.7,404.7,302.2,401.6,302.2" />
					</g>
				</g>
			</g>
			<g
   id="XMLID_806_">
				<g
   id="XMLID_811_">
					<path
   id="cyFEHY9NP_5_"
   class="st4"
   d="M404.4,280.9c-3.1,0-5.6,2.5-5.6,5.6c0,3.1,2.5,5.6,5.6,5.6c3.1,0,5.6-2.5,5.6-5.6       C410,283.4,407.5,280.9,404.4,280.9" />
				</g>
				<g
   id="XMLID_807_">
					<g
   id="XMLID_808_">
						<path
   id="cyFEHY9NP_2_"
   class="st5"
   d="M404.4,280.9c-3.1,0-5.6,2.5-5.6,5.6c0,3.1,2.5,5.6,5.6,5.6c3.1,0,5.6-2.5,5.6-5.6        C410,283.4,407.5,280.9,404.4,280.9" />
					</g>
				</g>
			</g>
			<g
   id="XMLID_800_">
				<g
   id="XMLID_805_">
					<path
   id="jumbSj6XE_5_"
   class="st4"
   d="M388.8,269.8c-3.1,0-5.6,2.5-5.6,5.6c0,3.1,2.5,5.6,5.6,5.6c3.1,0,5.6-2.5,5.6-5.6       C394.4,272.3,391.9,269.8,388.8,269.8" />
				</g>
				<g
   id="XMLID_801_">
					<g
   id="XMLID_802_">
						<path
   id="jumbSj6XE_2_"
   class="st5"
   d="M388.8,269.8c-3.1,0-5.6,2.5-5.6,5.6c0,3.1,2.5,5.6,5.6,5.6c3.1,0,5.6-2.5,5.6-5.6        C394.4,272.3,391.9,269.8,388.8,269.8" />
					</g>
				</g>
			</g>
			<g
   id="XMLID_794_">
				<g
   id="XMLID_799_">
					<path
   id="b4GX31jsoY_5_"
   class="st4"
   d="M405.4,259.1c-3.1,0-5.6,2.5-5.6,5.6s2.5,5.6,5.6,5.6c3.1,0,5.6-2.5,5.6-5.6       S408.5,259.1,405.4,259.1" />
				</g>
				<g
   id="XMLID_795_">
					<g
   id="XMLID_796_">
						<path
   id="b4GX31jsoY_2_"
   class="st5"
   d="M405.4,259.1c-3.1,0-5.6,2.5-5.6,5.6s2.5,5.6,5.6,5.6c3.1,0,5.6-2.5,5.6-5.6        S408.5,259.1,405.4,259.1" />
					</g>
				</g>
			</g>
			<g
   id="XMLID_788_">
				<g
   id="XMLID_793_">
					<path
   id="b1AqevfQDQ_5_"
   class="st4"
   d="M388.8,249c-3.1,0-5.6,2.5-5.6,5.6c0,3.1,2.5,5.6,5.6,5.6c3.1,0,5.6-2.5,5.6-5.6       C394.4,251.5,391.9,249,388.8,249" />
				</g>
				<g
   id="XMLID_789_">
					<g
   id="XMLID_790_">
						<path
   id="b1AqevfQDQ_2_"
   class="st5"
   d="M388.8,249c-3.1,0-5.6,2.5-5.6,5.6c0,3.1,2.5,5.6,5.6,5.6c3.1,0,5.6-2.5,5.6-5.6        C394.4,251.5,391.9,249,388.8,249" />
					</g>
				</g>
			</g>
			<g
   id="XMLID_782_">
				<g
   id="XMLID_787_">
					<path
   id="d4CRApn9B2_5_"
   class="st4"
   d="M398.7,243.1c0,3.1,2.5,5.6,5.6,5.6c3.1,0,5.6-2.5,5.6-5.6s-2.5-5.6-5.6-5.6       C401.3,237.4,398.7,240,398.7,243.1" />
				</g>
				<g
   id="XMLID_783_">
					<g
   id="XMLID_784_">
						<path
   id="d4CRApn9B2_2_"
   class="st5"
   d="M398.7,243.1c0,3.1,2.5,5.6,5.6,5.6c3.1,0,5.6-2.5,5.6-5.6s-2.5-5.6-5.6-5.6        C401.3,237.4,398.7,240,398.7,243.1" />
					</g>
				</g>
			</g>
			<g
   id="XMLID_776_">
				<g
   id="XMLID_781_">
					<path
   id="beJXmnnLF_5_"
   class="st4"
   d="M381.8,233.4c0,3.1,2.5,5.6,5.6,5.6c3.1,0,5.6-2.5,5.6-5.6c0-3.1-2.5-5.6-5.6-5.6       C384.3,227.8,381.8,230.3,381.8,233.4" />
				</g>
				<g
   id="XMLID_777_">
					<g
   id="XMLID_778_">
						<path
   id="beJXmnnLF_2_"
   class="st5"
   d="M381.8,233.4c0,3.1,2.5,5.6,5.6,5.6c3.1,0,5.6-2.5,5.6-5.6c0-3.1-2.5-5.6-5.6-5.6        C384.3,227.8,381.8,230.3,381.8,233.4" />
					</g>
				</g>
			</g>
			<g
   id="XMLID_770_">
				<g
   id="XMLID_775_">
					<path
   id="dRaBnrpCz_5_"
   class="st4"
   d="M401.6,227.1c3.1,0,5.6-2.5,5.6-5.6c0-3.1-2.5-5.6-5.6-5.6c-3.1,0-5.6,2.5-5.6,5.6       C396,224.6,398.5,227.1,401.6,227.1" />
				</g>
				<g
   id="XMLID_771_">
					<g
   id="XMLID_772_">
						<path
   id="dRaBnrpCz_2_"
   class="st5"
   d="M401.6,227.1c3.1,0,5.6-2.5,5.6-5.6c0-3.1-2.5-5.6-5.6-5.6c-3.1,0-5.6,2.5-5.6,5.6        C396,224.6,398.5,227.1,401.6,227.1" />
					</g>
				</g>
			</g>
			<g
   id="XMLID_764_">
				<g
   id="XMLID_769_">
					<path
   id="a2ajeUXPfc_5_"
   class="st4"
   d="M379.6,212.3c0,3.1,2.5,5.6,5.6,5.6c3.1,0,5.6-2.5,5.6-5.6c0-3.1-2.5-5.6-5.6-5.6       C382.1,206.7,379.6,209.2,379.6,212.3" />
				</g>
				<g
   id="XMLID_765_">
					<g
   id="XMLID_766_">
						<path
   id="a2ajeUXPfc_2_"
   class="st5"
   d="M379.6,212.3c0,3.1,2.5,5.6,5.6,5.6c3.1,0,5.6-2.5,5.6-5.6c0-3.1-2.5-5.6-5.6-5.6        C382.1,206.7,379.6,209.2,379.6,212.3" />
					</g>
				</g>
			</g>
			<g
   id="XMLID_758_">
				<g
   id="XMLID_763_">
					<path
   id="h7MO97Vqyc_5_"
   class="st4"
   d="M381.2,196.9c3.1,0,5.6-2.5,5.6-5.6c0-3.1-2.5-5.6-5.6-5.6s-5.6,2.5-5.6,5.6       C375.6,194.4,378.1,196.9,381.2,196.9" />
				</g>
				<g
   id="XMLID_759_">
					<g
   id="XMLID_760_">
						<path
   id="h7MO97Vqyc_2_"
   class="st5"
   d="M381.2,196.9c3.1,0,5.6-2.5,5.6-5.6c0-3.1-2.5-5.6-5.6-5.6s-5.6,2.5-5.6,5.6        C375.6,194.4,378.1,196.9,381.2,196.9" />
					</g>
				</g>
			</g>
			<g
   id="XMLID_752_">
				<g
   id="XMLID_757_">
					<path
   id="bVVrplQ2H_5_"
   class="st4"
   d="M362.7,204.3c0,3.1,2.5,5.6,5.6,5.6c3.1,0,5.6-2.5,5.6-5.6s-2.5-5.6-5.6-5.6       C365.2,198.7,362.7,201.2,362.7,204.3" />
				</g>
				<g
   id="XMLID_753_">
					<g
   id="XMLID_754_">
						<path
   id="bVVrplQ2H_2_"
   class="st5"
   d="M362.7,204.3c0,3.1,2.5,5.6,5.6,5.6c3.1,0,5.6-2.5,5.6-5.6s-2.5-5.6-5.6-5.6        C365.2,198.7,362.7,201.2,362.7,204.3" />
					</g>
				</g>
			</g>
			<g
   id="XMLID_746_">
				<g
   id="XMLID_751_">
					<path
   id="m4K2e5mlz_5_"
   class="st4"
   d="M356.3,210.2c-3.1,0-5.6,2.5-5.6,5.6c0,3.1,2.5,5.6,5.6,5.6c3.1,0,5.6-2.5,5.6-5.6       C362,212.7,359.4,210.2,356.3,210.2" />
				</g>
				<g
   id="XMLID_747_">
					<g
   id="XMLID_748_">
						<path
   id="m4K2e5mlz_2_"
   class="st5"
   d="M356.3,210.2c-3.1,0-5.6,2.5-5.6,5.6c0,3.1,2.5,5.6,5.6,5.6c3.1,0,5.6-2.5,5.6-5.6        C362,212.7,359.4,210.2,356.3,210.2" />
					</g>
				</g>
			</g>
			<g
   id="XMLID_740_">
				<g
   id="XMLID_745_">
					<path
   id="ayxAwiFCV_5_"
   class="st4"
   d="M339.6,227.3c0,3.1,2.5,5.6,5.6,5.6c3.1,0,5.6-2.5,5.6-5.6c0-3.1-2.5-5.6-5.6-5.6       C342.1,221.7,339.6,224.2,339.6,227.3" />
				</g>
				<g
   id="XMLID_741_">
					<g
   id="XMLID_742_">
						<path
   id="ayxAwiFCV_2_"
   class="st5"
   d="M339.6,227.3c0,3.1,2.5,5.6,5.6,5.6c3.1,0,5.6-2.5,5.6-5.6c0-3.1-2.5-5.6-5.6-5.6        C342.1,221.7,339.6,224.2,339.6,227.3" />
					</g>
				</g>
			</g>
			<g
   id="XMLID_734_">
				<g
   id="XMLID_739_">
					<path
   id="cn8HvkGWD_5_"
   class="st4"
   d="M336.6,207.8c-3.1,0-5.6,2.5-5.6,5.6c0,3.1,2.5,5.6,5.6,5.6c3.1,0,5.6-2.5,5.6-5.6       C342.2,210.3,339.7,207.8,336.6,207.8" />
				</g>
				<g
   id="XMLID_735_">
					<g
   id="XMLID_736_">
						<path
   id="cn8HvkGWD_2_"
   class="st5"
   d="M336.6,207.8c-3.1,0-5.6,2.5-5.6,5.6c0,3.1,2.5,5.6,5.6,5.6c3.1,0,5.6-2.5,5.6-5.6        C342.2,210.3,339.7,207.8,336.6,207.8" />
					</g>
				</g>
			</g>
			<g
   id="XMLID_728_">
				<g
   id="XMLID_733_">
					<path
   id="d38wwAxsk_5_"
   class="st4"
   d="M327.7,193.2c-3.1,0-5.6,2.5-5.6,5.6c0,3.1,2.5,5.6,5.6,5.6c3.1,0,5.6-2.5,5.6-5.6       C333.3,195.8,330.7,193.2,327.7,193.2" />
				</g>
				<g
   id="XMLID_729_">
					<g
   id="XMLID_730_">
						<path
   id="d38wwAxsk_2_"
   class="st5"
   d="M327.7,193.2c-3.1,0-5.6,2.5-5.6,5.6c0,3.1,2.5,5.6,5.6,5.6c3.1,0,5.6-2.5,5.6-5.6        C333.3,195.8,330.7,193.2,327.7,193.2" />
					</g>
				</g>
			</g>
			<g
   id="XMLID_722_">
				<g
   id="XMLID_727_">
					<path
   id="e4maZqIpyF_5_"
   class="st4"
   d="M317.2,206.2c-3.1,0-5.6,2.5-5.6,5.6c0,3.1,2.5,5.6,5.6,5.6c3.1,0,5.6-2.5,5.6-5.6       C322.8,208.7,320.3,206.2,317.2,206.2" />
				</g>
				<g
   id="XMLID_723_">
					<g
   id="XMLID_724_">
						<path
   id="e4maZqIpyF_2_"
   class="st5"
   d="M317.2,206.2c-3.1,0-5.6,2.5-5.6,5.6c0,3.1,2.5,5.6,5.6,5.6c3.1,0,5.6-2.5,5.6-5.6        C322.8,208.7,320.3,206.2,317.2,206.2" />
					</g>
				</g>
			</g>
			<g
   id="XMLID_716_">
				<g
   id="XMLID_721_">
					<path
   id="c1dpOiRKPw_5_"
   class="st4"
   d="M297.2,206.4c-3.1,0-5.6,2.5-5.6,5.6c0,3.1,2.5,5.6,5.6,5.6c3.1,0,5.6-2.5,5.6-5.6       C302.8,208.9,300.3,206.4,297.2,206.4" />
				</g>
				<g
   id="XMLID_717_">
					<g
   id="XMLID_718_">
						<path
   id="c1dpOiRKPw_2_"
   class="st5"
   d="M297.2,206.4c-3.1,0-5.6,2.5-5.6,5.6c0,3.1,2.5,5.6,5.6,5.6c3.1,0,5.6-2.5,5.6-5.6        C302.8,208.9,300.3,206.4,297.2,206.4" />
					</g>
				</g>
			</g>
			<g
   id="XMLID_710_">
				<g
   id="XMLID_715_">
					<path
   id="b4ftr49nMd_5_"
   class="st4"
   d="M288.8,219.5c-3.1,0-5.6,2.5-5.6,5.6c0,3.1,2.5,5.6,5.6,5.6c3.1,0,5.6-2.5,5.6-5.6       C294.4,222.1,291.9,219.5,288.8,219.5" />
				</g>
				<g
   id="XMLID_711_">
					<g
   id="XMLID_712_">
						<path
   id="b4ftr49nMd_2_"
   class="st5"
   d="M288.8,219.5c-3.1,0-5.6,2.5-5.6,5.6c0,3.1,2.5,5.6,5.6,5.6c3.1,0,5.6-2.5,5.6-5.6        C294.4,222.1,291.9,219.5,288.8,219.5" />
					</g>
				</g>
			</g>
			<g
   id="XMLID_704_">
				<g
   id="XMLID_709_">
					<path
   id="buflJxSfI_5_"
   class="st4"
   d="M292.6,236.4c0,3.1,2.5,5.6,5.6,5.6c3.1,0,5.6-2.5,5.6-5.6c0-3.1-2.5-5.6-5.6-5.6       C295.1,230.8,292.6,233.3,292.6,236.4" />
				</g>
				<g
   id="XMLID_705_">
					<g
   id="XMLID_706_">
						<path
   id="buflJxSfI_2_"
   class="st5"
   d="M292.6,236.4c0,3.1,2.5,5.6,5.6,5.6c3.1,0,5.6-2.5,5.6-5.6c0-3.1-2.5-5.6-5.6-5.6        C295.1,230.8,292.6,233.3,292.6,236.4" />
					</g>
				</g>
			</g>
			<g
   id="XMLID_698_">
				<g
   id="XMLID_703_">
					<path
   id="a2nngL98Hj_5_"
   class="st4"
   d="M274.4,237.5c0,3.1,2.5,5.6,5.6,5.6c3.1,0,5.6-2.5,5.6-5.6c0-3.1-2.5-5.6-5.6-5.6       C276.9,231.9,274.4,234.4,274.4,237.5" />
				</g>
				<g
   id="XMLID_699_">
					<g
   id="XMLID_700_">
						<path
   id="a2nngL98Hj_2_"
   class="st5"
   d="M274.4,237.5c0,3.1,2.5,5.6,5.6,5.6c3.1,0,5.6-2.5,5.6-5.6c0-3.1-2.5-5.6-5.6-5.6        C276.9,231.9,274.4,234.4,274.4,237.5" />
					</g>
				</g>
			</g>
			<g
   id="XMLID_692_">
				<g
   id="XMLID_697_">
					<path
   id="c1KD5Th2zS_5_"
   class="st4"
   d="M267.5,240.7c-3.1,0-5.6,2.5-5.6,5.6c0,3.1,2.5,5.6,5.6,5.6c3.1,0,5.6-2.5,5.6-5.6       C273.1,243.3,270.6,240.7,267.5,240.7" />
				</g>
				<g
   id="XMLID_693_">
					<g
   id="XMLID_694_">
						<path
   id="c1KD5Th2zS_2_"
   class="st5"
   d="M267.5,240.7c-3.1,0-5.6,2.5-5.6,5.6c0,3.1,2.5,5.6,5.6,5.6c3.1,0,5.6-2.5,5.6-5.6        C273.1,243.3,270.6,240.7,267.5,240.7" />
					</g>
				</g>
			</g>
			<g
   id="XMLID_686_">
				<g
   id="XMLID_691_">
					<path
   id="cQCxUSqTk_5_"
   class="st4"
   d="M254.3,260.7c3.1,0,5.6-2.5,5.6-5.6c0-3.1-2.5-5.6-5.6-5.6c-3.1,0-5.6,2.5-5.6,5.6       C248.7,258.2,251.2,260.7,254.3,260.7" />
				</g>
				<g
   id="XMLID_687_">
					<g
   id="XMLID_688_">
						<path
   id="cQCxUSqTk_2_"
   class="st5"
   d="M254.3,260.7c3.1,0,5.6-2.5,5.6-5.6c0-3.1-2.5-5.6-5.6-5.6c-3.1,0-5.6,2.5-5.6,5.6        C248.7,258.2,251.2,260.7,254.3,260.7" />
					</g>
				</g>
			</g>
			<g
   id="XMLID_680_">
				<g
   id="XMLID_685_">
					<path
   id="ciBzk0q6d_5_"
   class="st4"
   d="M250.1,235.7c0,3.1,2.5,5.6,5.6,5.6c3.1,0,5.6-2.5,5.6-5.6c0-3.1-2.5-5.6-5.6-5.6       C252.6,230.1,250.1,232.6,250.1,235.7" />
				</g>
				<g
   id="XMLID_681_">
					<g
   id="XMLID_682_">
						<path
   id="ciBzk0q6d_2_"
   class="st5"
   d="M250.1,235.7c0,3.1,2.5,5.6,5.6,5.6c3.1,0,5.6-2.5,5.6-5.6c0-3.1-2.5-5.6-5.6-5.6        C252.6,230.1,250.1,232.6,250.1,235.7" />
					</g>
				</g>
			</g>
			<g
   id="XMLID_674_">
				<g
   id="XMLID_679_">
					<path
   id="b12PelCR6V_5_"
   class="st4"
   d="M235.5,244.4c0,3.1,2.5,5.6,5.6,5.6c3.1,0,5.6-2.5,5.6-5.6s-2.5-5.6-5.6-5.6       C238,238.8,235.5,241.3,235.5,244.4" />
				</g>
				<g
   id="XMLID_675_">
					<g
   id="XMLID_676_">
						<path
   id="b12PelCR6V_2_"
   class="st5"
   d="M235.5,244.4c0,3.1,2.5,5.6,5.6,5.6c3.1,0,5.6-2.5,5.6-5.6s-2.5-5.6-5.6-5.6        C238,238.8,235.5,241.3,235.5,244.4" />
					</g>
				</g>
			</g>
			<g
   id="XMLID_668_">
				<g
   id="XMLID_673_">
					<path
   id="d5flcNjk7r_5_"
   class="st4"
   d="M225.7,260.1c3.1,0,5.6-2.5,5.6-5.6c0-3.1-2.5-5.6-5.6-5.6s-5.6,2.5-5.6,5.6       C220.1,257.6,222.6,260.1,225.7,260.1" />
				</g>
				<g
   id="XMLID_669_">
					<g
   id="XMLID_670_">
						<path
   id="d5flcNjk7r_2_"
   class="st5"
   d="M225.7,260.1c3.1,0,5.6-2.5,5.6-5.6c0-3.1-2.5-5.6-5.6-5.6s-5.6,2.5-5.6,5.6        C220.1,257.6,222.6,260.1,225.7,260.1" />
					</g>
				</g>
			</g>
			<g
   id="XMLID_662_">
				<g
   id="XMLID_667_">
					<path
   id="chyfnwnIR_5_"
   class="st4"
   d="M210.2,248.6c3.1,0,5.6-2.5,5.6-5.6c0-3.1-2.5-5.6-5.6-5.6c-3.1,0-5.6,2.5-5.6,5.6       C204.6,246.1,207.1,248.6,210.2,248.6" />
				</g>
				<g
   id="XMLID_663_">
					<g
   id="XMLID_664_">
						<path
   id="chyfnwnIR_2_"
   class="st5"
   d="M210.2,248.6c3.1,0,5.6-2.5,5.6-5.6c0-3.1-2.5-5.6-5.6-5.6c-3.1,0-5.6,2.5-5.6,5.6        C204.6,246.1,207.1,248.6,210.2,248.6" />
					</g>
				</g>
			</g>
			<g
   id="XMLID_656_">
				<g
   id="XMLID_661_">
					<path
   id="e4uCYcYZmv_5_"
   class="st4"
   d="M227.2,239c3.1,0,5.6-2.5,5.6-5.6c0-3.1-2.5-5.6-5.6-5.6s-5.6,2.5-5.6,5.6       C221.6,236.5,224.1,239,227.2,239" />
				</g>
				<g
   id="XMLID_657_">
					<g
   id="XMLID_658_">
						<path
   id="e4uCYcYZmv_2_"
   class="st5"
   d="M227.2,239c3.1,0,5.6-2.5,5.6-5.6c0-3.1-2.5-5.6-5.6-5.6s-5.6,2.5-5.6,5.6        C221.6,236.5,224.1,239,227.2,239" />
					</g>
				</g>
			</g>
			<g
   id="XMLID_650_">
				<g
   id="XMLID_655_">
					<path
   id="b5StQldAJS_5_"
   class="st4"
   d="M213.1,215.8c-3.1,0-5.6,2.5-5.6,5.6c0,3.1,2.5,5.6,5.6,5.6c3.1,0,5.6-2.5,5.6-5.6       C218.7,218.3,216.2,215.8,213.1,215.8" />
				</g>
				<g
   id="XMLID_651_">
					<g
   id="XMLID_652_">
						<path
   id="b5StQldAJS_2_"
   class="st5"
   d="M213.1,215.8c-3.1,0-5.6,2.5-5.6,5.6c0,3.1,2.5,5.6,5.6,5.6c3.1,0,5.6-2.5,5.6-5.6        C218.7,218.3,216.2,215.8,213.1,215.8" />
					</g>
				</g>
			</g>
			<g
   id="XMLID_644_">
				<g
   id="XMLID_649_">
					<path
   id="e1E6oXGAGs_5_"
   class="st4"
   d="M229.6,217.9c3.1,0,5.6-2.5,5.6-5.6c0-3.1-2.5-5.6-5.6-5.6c-3.1,0-5.6,2.5-5.6,5.6       C224,215.4,226.5,217.9,229.6,217.9" />
				</g>
				<g
   id="XMLID_645_">
					<g
   id="XMLID_646_">
						<path
   id="e1E6oXGAGs_2_"
   class="st5"
   d="M229.6,217.9c3.1,0,5.6-2.5,5.6-5.6c0-3.1-2.5-5.6-5.6-5.6c-3.1,0-5.6,2.5-5.6,5.6        C224,215.4,226.5,217.9,229.6,217.9" />
					</g>
				</g>
			</g>
			<g
   id="XMLID_638_">
				<g
   id="XMLID_643_">
					<path
   id="a6XIzDETvj_5_"
   class="st4"
   d="M243.2,218.5c-3.1,0-5.6,2.5-5.6,5.6s2.5,5.6,5.6,5.6c3.1,0,5.6-2.5,5.6-5.6       S246.3,218.5,243.2,218.5" />
				</g>
				<g
   id="XMLID_639_">
					<g
   id="XMLID_640_">
						<path
   id="a6XIzDETvj_2_"
   class="st5"
   d="M243.2,218.5c-3.1,0-5.6,2.5-5.6,5.6s2.5,5.6,5.6,5.6c3.1,0,5.6-2.5,5.6-5.6        S246.3,218.5,243.2,218.5" />
					</g>
				</g>
			</g>
			<g
   id="XMLID_632_">
				<g
   id="XMLID_637_">
					<path
   id="a3lo4ZdTjk_5_"
   class="st4"
   d="M252.8,215.8c0,3.1,2.5,5.6,5.6,5.6c3.1,0,5.6-2.5,5.6-5.6s-2.5-5.6-5.6-5.6       C255.3,210.2,252.8,212.7,252.8,215.8" />
				</g>
				<g
   id="XMLID_633_">
					<g
   id="XMLID_634_">
						<path
   id="a3lo4ZdTjk_2_"
   class="st5"
   d="M252.8,215.8c0,3.1,2.5,5.6,5.6,5.6c3.1,0,5.6-2.5,5.6-5.6s-2.5-5.6-5.6-5.6        C255.3,210.2,252.8,212.7,252.8,215.8" />
					</g>
				</g>
			</g>
			<g
   id="XMLID_626_">
				<g
   id="XMLID_631_">
					<path
   id="ab1IAkj332_5_"
   class="st4"
   d="M263.8,227.3c0,3.1,2.5,5.6,5.6,5.6c3.1,0,5.6-2.5,5.6-5.6c0-3.1-2.5-5.6-5.6-5.6       C266.3,221.7,263.8,224.2,263.8,227.3" />
				</g>
				<g
   id="XMLID_627_">
					<g
   id="XMLID_628_">
						<path
   id="ab1IAkj332_2_"
   class="st5"
   d="M263.8,227.3c0,3.1,2.5,5.6,5.6,5.6c3.1,0,5.6-2.5,5.6-5.6c0-3.1-2.5-5.6-5.6-5.6        C266.3,221.7,263.8,224.2,263.8,227.3" />
					</g>
				</g>
			</g>
			<g
   id="XMLID_620_">
				<g
   id="XMLID_625_">
					<path
   id="e2vKSJHWJJ_5_"
   class="st4"
   d="M240.4,270.3c3.1,0,5.6-2.5,5.6-5.6c0-3.1-2.5-5.6-5.6-5.6s-5.6,2.5-5.6,5.6       C234.8,267.8,237.3,270.3,240.4,270.3" />
				</g>
				<g
   id="XMLID_621_">
					<g
   id="XMLID_622_">
						<path
   id="e2vKSJHWJJ_2_"
   class="st5"
   d="M240.4,270.3c3.1,0,5.6-2.5,5.6-5.6c0-3.1-2.5-5.6-5.6-5.6s-5.6,2.5-5.6,5.6        C234.8,267.8,237.3,270.3,240.4,270.3" />
					</g>
				</g>
			</g>
			<g
   id="XMLID_614_">
				<g
   id="XMLID_619_">
					<path
   id="anzAlJrQ4_5_"
   class="st4"
   d="M307.5,218.9c-3.1,0-5.6,2.5-5.6,5.6c0,3.1,2.5,5.6,5.6,5.6c3.1,0,5.6-2.5,5.6-5.6       C313.2,221.4,310.6,218.9,307.5,218.9" />
				</g>
				<g
   id="XMLID_615_">
					<g
   id="XMLID_616_">
						<path
   id="anzAlJrQ4_2_"
   class="st5"
   d="M307.5,218.9c-3.1,0-5.6,2.5-5.6,5.6c0,3.1,2.5,5.6,5.6,5.6c3.1,0,5.6-2.5,5.6-5.6        C313.2,221.4,310.6,218.9,307.5,218.9" />
					</g>
				</g>
			</g>
			<g
   id="XMLID_608_">
				<g
   id="XMLID_613_">
					<path
   id="a62poPhw7_5_"
   class="st4"
   d="M348.1,195.1c-3.1,0-5.6,2.5-5.6,5.6c0,3.1,2.5,5.6,5.6,5.6c3.1,0,5.6-2.5,5.6-5.6       C353.7,197.7,351.2,195.1,348.1,195.1" />
				</g>
				<g
   id="XMLID_609_">
					<g
   id="XMLID_610_">
						<path
   id="a62poPhw7_2_"
   class="st5"
   d="M348.1,195.1c-3.1,0-5.6,2.5-5.6,5.6c0,3.1,2.5,5.6,5.6,5.6c3.1,0,5.6-2.5,5.6-5.6        C353.7,197.7,351.2,195.1,348.1,195.1" />
					</g>
				</g>
			</g>
			<g
   id="XMLID_602_">
				<g
   id="XMLID_607_">
					<path
   id="g8XFPO7r0a_5_"
   class="st4"
   d="M354.4,186.9c0,3.1,2.5,5.6,5.6,5.6c3.1,0,5.6-2.5,5.6-5.6s-2.5-5.6-5.6-5.6       C356.9,181.3,354.4,183.8,354.4,186.9" />
				</g>
				<g
   id="XMLID_603_">
					<g
   id="XMLID_604_">
						<path
   id="g8XFPO7r0a_2_"
   class="st5"
   d="M354.4,186.9c0,3.1,2.5,5.6,5.6,5.6c3.1,0,5.6-2.5,5.6-5.6s-2.5-5.6-5.6-5.6        C356.9,181.3,354.4,183.8,354.4,186.9" />
					</g>
				</g>
			</g>
			<g
   id="XMLID_596_">
				<g
   id="XMLID_601_">
					<path
   id="g2pSur57pJ_5_"
   class="st4"
   d="M338.8,190.3c3.1,0,5.6-2.5,5.6-5.6c0-3.1-2.5-5.6-5.6-5.6c-3.1,0-5.6,2.5-5.6,5.6       C333.2,187.8,335.7,190.3,338.8,190.3" />
				</g>
				<g
   id="XMLID_597_">
					<g
   id="XMLID_598_">
						<path
   id="g2pSur57pJ_2_"
   class="st5"
   d="M338.8,190.3c3.1,0,5.6-2.5,5.6-5.6c0-3.1-2.5-5.6-5.6-5.6c-3.1,0-5.6,2.5-5.6,5.6        C333.2,187.8,335.7,190.3,338.8,190.3" />
					</g>
				</g>
			</g>
			<g
   id="XMLID_590_">
				<g
   id="XMLID_595_">
					<path
   id="lmekkQqah_5_"
   class="st4"
   d="M350.8,176.3c3.1,0,5.6-2.5,5.6-5.6c0-3.1-2.5-5.6-5.6-5.6c-3.1,0-5.6,2.5-5.6,5.6       C345.2,173.8,347.7,176.3,350.8,176.3" />
				</g>
				<g
   id="XMLID_591_">
					<g
   id="XMLID_592_">
						<path
   id="lmekkQqah_2_"
   class="st5"
   d="M350.8,176.3c3.1,0,5.6-2.5,5.6-5.6c0-3.1-2.5-5.6-5.6-5.6c-3.1,0-5.6,2.5-5.6,5.6        C345.2,173.8,347.7,176.3,350.8,176.3" />
					</g>
				</g>
			</g>
			<g
   id="XMLID_584_">
				<g
   id="XMLID_589_">
					<path
   id="b3pCVaixr_5_"
   class="st4"
   d="M329.1,173.5c3.1,0,5.6-2.5,5.6-5.6c0-3.1-2.5-5.6-5.6-5.6c-3.1,0-5.6,2.5-5.6,5.6       C323.5,171,326,173.5,329.1,173.5" />
				</g>
				<g
   id="XMLID_585_">
					<g
   id="XMLID_586_">
						<path
   id="b3pCVaixr_2_"
   class="st5"
   d="M329.1,173.5c3.1,0,5.6-2.5,5.6-5.6c0-3.1-2.5-5.6-5.6-5.6c-3.1,0-5.6,2.5-5.6,5.6        C323.5,171,326,173.5,329.1,173.5" />
					</g>
				</g>
			</g>
			<g
   id="XMLID_578_">
				<g
   id="XMLID_583_">
					<path
   id="dsUNeZUDB_5_"
   class="st4"
   d="M307.5,172.4c3.1,0,5.6-2.5,5.6-5.6c0-3.1-2.5-5.6-5.6-5.6c-3.1,0-5.6,2.5-5.6,5.6       C301.9,169.9,304.4,172.4,307.5,172.4" />
				</g>
				<g
   id="XMLID_579_">
					<g
   id="XMLID_580_">
						<path
   id="dsUNeZUDB_2_"
   class="st5"
   d="M307.5,172.4c3.1,0,5.6-2.5,5.6-5.6c0-3.1-2.5-5.6-5.6-5.6c-3.1,0-5.6,2.5-5.6,5.6        C301.9,169.9,304.4,172.4,307.5,172.4" />
					</g>
				</g>
			</g>
			<g
   id="XMLID_572_">
				<g
   id="XMLID_577_">
					<path
   id="c1iiXODo6G_5_"
   class="st4"
   d="M285.4,173.5c3.1,0,5.6-2.5,5.6-5.6c0-3.1-2.5-5.6-5.6-5.6c-3.1,0-5.6,2.5-5.6,5.6       C279.8,171,282.4,173.5,285.4,173.5" />
				</g>
				<g
   id="XMLID_573_">
					<g
   id="XMLID_574_">
						<path
   id="c1iiXODo6G_2_"
   class="st5"
   d="M285.4,173.5c3.1,0,5.6-2.5,5.6-5.6c0-3.1-2.5-5.6-5.6-5.6c-3.1,0-5.6,2.5-5.6,5.6        C279.8,171,282.4,173.5,285.4,173.5" />
					</g>
				</g>
			</g>
			<g
   id="XMLID_566_">
				<g
   id="XMLID_571_">
					<path
   id="bOJNqJlU3_5_"
   class="st4"
   d="M264.3,176.3c3.1,0,5.6-2.5,5.6-5.6c0-3.1-2.5-5.6-5.6-5.6c-3.1,0-5.6,2.5-5.6,5.6       C258.7,173.8,261.2,176.3,264.3,176.3" />
				</g>
				<g
   id="XMLID_567_">
					<g
   id="XMLID_568_">
						<path
   id="bOJNqJlU3_2_"
   class="st5"
   d="M264.3,176.3c3.1,0,5.6-2.5,5.6-5.6c0-3.1-2.5-5.6-5.6-5.6c-3.1,0-5.6,2.5-5.6,5.6        C258.7,173.8,261.2,176.3,264.3,176.3" />
					</g>
				</g>
			</g>
			<g
   id="XMLID_560_">
				<g
   id="XMLID_565_">
					<path
   id="e209X0XT10_5_"
   class="st4"
   d="M296.6,189c3.1,0,5.6-2.5,5.6-5.6c0-3.1-2.5-5.6-5.6-5.6c-3.1,0-5.6,2.5-5.6,5.6       C291,186.5,293.5,189,296.6,189" />
				</g>
				<g
   id="XMLID_561_">
					<g
   id="XMLID_562_">
						<path
   id="e209X0XT10_2_"
   class="st5"
   d="M296.6,189c3.1,0,5.6-2.5,5.6-5.6c0-3.1-2.5-5.6-5.6-5.6c-3.1,0-5.6,2.5-5.6,5.6        C291,186.5,293.5,189,296.6,189" />
					</g>
				</g>
			</g>
			<g
   id="XMLID_554_">
				<g
   id="XMLID_559_">
					<path
   id="a1fbwpxE6V_5_"
   class="st4"
   d="M275.8,190.4c3.1,0,5.6-2.5,5.6-5.6c0-3.1-2.5-5.6-5.6-5.6s-5.6,2.5-5.6,5.6       C270.2,187.9,272.7,190.4,275.8,190.4" />
				</g>
				<g
   id="XMLID_555_">
					<g
   id="XMLID_556_">
						<path
   id="a1fbwpxE6V_2_"
   class="st5"
   d="M275.8,190.4c3.1,0,5.6-2.5,5.6-5.6c0-3.1-2.5-5.6-5.6-5.6s-5.6,2.5-5.6,5.6        C270.2,187.9,272.7,190.4,275.8,190.4" />
					</g>
				</g>
			</g>
			<g
   id="XMLID_548_">
				<g
   id="XMLID_553_">
					<path
   id="aGegQBRvt_5_"
   class="st4"
   d="M266.6,195.2c-3.1,0-5.6,2.5-5.6,5.6s2.5,5.6,5.6,5.6c3.1,0,5.6-2.5,5.6-5.6       S269.7,195.2,266.6,195.2" />
				</g>
				<g
   id="XMLID_549_">
					<g
   id="XMLID_550_">
						<path
   id="aGegQBRvt_2_"
   class="st5"
   d="M266.6,195.2c-3.1,0-5.6,2.5-5.6,5.6s2.5,5.6,5.6,5.6c3.1,0,5.6-2.5,5.6-5.6        S269.7,195.2,266.6,195.2" />
					</g>
				</g>
			</g>
			<g
   id="XMLID_542_">
				<g
   id="XMLID_547_">
					<path
   id="fmyzXHqf0_5_"
   class="st4"
   d="M246.3,209.9c3.1,0,5.6-2.5,5.6-5.6c0-3.1-2.5-5.6-5.6-5.6c-3.1,0-5.6,2.5-5.6,5.6       C240.7,207.4,243.2,209.9,246.3,209.9" />
				</g>
				<g
   id="XMLID_543_">
					<g
   id="XMLID_544_">
						<path
   id="fmyzXHqf0_2_"
   class="st5"
   d="M246.3,209.9c3.1,0,5.6-2.5,5.6-5.6c0-3.1-2.5-5.6-5.6-5.6c-3.1,0-5.6,2.5-5.6,5.6        C240.7,207.4,243.2,209.9,246.3,209.9" />
					</g>
				</g>
			</g>
			<g
   id="XMLID_536_">
				<g
   id="XMLID_541_">
					<path
   id="c1cSkcUuig_5_"
   class="st4"
   d="M234.4,196.8c3.1,0,5.6-2.5,5.6-5.6c0-3.1-2.5-5.6-5.6-5.6c-3.1,0-5.6,2.5-5.6,5.6       C228.8,194.3,231.3,196.8,234.4,196.8" />
				</g>
				<g
   id="XMLID_537_">
					<g
   id="XMLID_538_">
						<path
   id="c1cSkcUuig_2_"
   class="st5"
   d="M234.4,196.8c3.1,0,5.6-2.5,5.6-5.6c0-3.1-2.5-5.6-5.6-5.6c-3.1,0-5.6,2.5-5.6,5.6        C228.8,194.3,231.3,196.8,234.4,196.8" />
					</g>
				</g>
			</g>
			<g
   id="XMLID_530_">
				<g
   id="XMLID_535_">
					<path
   id="c1XuLoyLp_5_"
   class="st4"
   d="M254.8,192.6c3.1,0,5.6-2.5,5.6-5.6c0-3.1-2.5-5.6-5.6-5.6c-3.1,0-5.6,2.5-5.6,5.6       C249.2,190.1,251.7,192.6,254.8,192.6" />
				</g>
				<g
   id="XMLID_531_">
					<g
   id="XMLID_532_">
						<path
   id="c1XuLoyLp_2_"
   class="st5"
   d="M254.8,192.6c3.1,0,5.6-2.5,5.6-5.6c0-3.1-2.5-5.6-5.6-5.6c-3.1,0-5.6,2.5-5.6,5.6        C249.2,190.1,251.7,192.6,254.8,192.6" />
					</g>
				</g>
			</g>
			<g
   id="XMLID_524_">
				<g
   id="XMLID_529_">
					<path
   id="e1Os49jb7m_5_"
   class="st4"
   d="M272.5,213.3c0,3.1,2.5,5.6,5.6,5.6c3.1,0,5.6-2.5,5.6-5.6s-2.5-5.6-5.6-5.6       C275,207.7,272.5,210.2,272.5,213.3" />
				</g>
				<g
   id="XMLID_525_">
					<g
   id="XMLID_526_">
						<path
   id="e1Os49jb7m_2_"
   class="st5"
   d="M272.5,213.3c0,3.1,2.5,5.6,5.6,5.6c3.1,0,5.6-2.5,5.6-5.6s-2.5-5.6-5.6-5.6        C275,207.7,272.5,210.2,272.5,213.3" />
					</g>
				</g>
			</g>
			<g
   id="XMLID_518_">
				<g
   id="XMLID_523_">
					<path
   id="a7BX8ikxJu_5_"
   class="st4"
   d="M286.8,193.2c-3.1,0-5.6,2.5-5.6,5.6s2.5,5.6,5.6,5.6c3.1,0,5.6-2.5,5.6-5.6       S289.9,193.2,286.8,193.2" />
				</g>
				<g
   id="XMLID_519_">
					<g
   id="XMLID_520_">
						<path
   id="a7BX8ikxJu_2_"
   class="st5"
   d="M286.8,193.2c-3.1,0-5.6,2.5-5.6,5.6s2.5,5.6,5.6,5.6c3.1,0,5.6-2.5,5.6-5.6        S289.9,193.2,286.8,193.2" />
					</g>
				</g>
			</g>
			<g
   id="XMLID_512_">
				<g
   id="XMLID_517_">
					<path
   id="l3AonPDXbN_5_"
   class="st4"
   d="M317.6,189c3.1,0,5.6-2.5,5.6-5.6c0-3.1-2.5-5.6-5.6-5.6c-3.1,0-5.6,2.5-5.6,5.6       C312,186.5,314.5,189,317.6,189" />
				</g>
				<g
   id="XMLID_513_">
					<g
   id="XMLID_514_">
						<path
   id="l3AonPDXbN_2_"
   class="st5"
   d="M317.6,189c3.1,0,5.6-2.5,5.6-5.6c0-3.1-2.5-5.6-5.6-5.6c-3.1,0-5.6,2.5-5.6,5.6        C312,186.5,314.5,189,317.6,189" />
					</g>
				</g>
			</g>
			<g
   id="XMLID_506_">
				<g
   id="XMLID_511_">
					<path
   id="e31IMo0aP7_5_"
   class="st4"
   d="M307.5,192.3c-3.1,0-5.6,2.5-5.6,5.6c0,3.1,2.5,5.6,5.6,5.6c3.1,0,5.6-2.5,5.6-5.6       C313.1,194.8,310.6,192.3,307.5,192.3" />
				</g>
				<g
   id="XMLID_507_">
					<g
   id="XMLID_508_">
						<path
   id="e31IMo0aP7_2_"
   class="st5"
   d="M307.5,192.3c-3.1,0-5.6,2.5-5.6,5.6c0,3.1,2.5,5.6,5.6,5.6c3.1,0,5.6-2.5,5.6-5.6        C313.1,194.8,310.6,192.3,307.5,192.3" />
					</g>
				</g>
			</g>
			<g
   id="XMLID_500_">
				<g
   id="XMLID_505_">
					<path
   id="b4C93QSVil_5_"
   class="st4"
   d="M340.1,237.5c0-3.1-2.5-5.6-5.6-5.6s-5.6,2.5-5.6,5.6c0,3.1,2.5,5.6,5.6,5.6       S340.1,240.6,340.1,237.5" />
				</g>
				<g
   id="XMLID_501_">
					<g
   id="XMLID_502_">
						<path
   id="b4C93QSVil_2_"
   class="st5"
   d="M340.1,237.5c0-3.1-2.5-5.6-5.6-5.6s-5.6,2.5-5.6,5.6c0,3.1,2.5,5.6,5.6,5.6        S340.1,240.6,340.1,237.5" />
					</g>
				</g>
			</g>
			<g
   id="XMLID_494_">
				<g
   id="XMLID_499_">
					<path
   id="a76Aoz9p3_5_"
   class="st4"
   d="M325.1,241.5c-3.1,0-5.6,2.5-5.6,5.6c0,3.1,2.5,5.6,5.6,5.6c3.1,0,5.6-2.5,5.6-5.6       C330.7,244.1,328.2,241.5,325.1,241.5" />
				</g>
				<g
   id="XMLID_495_">
					<g
   id="XMLID_496_">
						<path
   id="a76Aoz9p3_2_"
   class="st5"
   d="M325.1,241.5c-3.1,0-5.6,2.5-5.6,5.6c0,3.1,2.5,5.6,5.6,5.6c3.1,0,5.6-2.5,5.6-5.6        C330.7,244.1,328.2,241.5,325.1,241.5" />
					</g>
				</g>
			</g>
			<g
   id="XMLID_488_">
				<g
   id="XMLID_493_">
					<path
   id="b1krJdv8VT_5_"
   class="st4"
   d="M310.7,236.2c0,3.1,2.5,5.6,5.6,5.6c3.1,0,5.6-2.5,5.6-5.6c0-3.1-2.5-5.6-5.6-5.6       C313.2,230.6,310.7,233.1,310.7,236.2" />
				</g>
				<g
   id="XMLID_489_">
					<g
   id="XMLID_490_">
						<path
   id="b1krJdv8VT_2_"
   class="st5"
   d="M310.7,236.2c0,3.1,2.5,5.6,5.6,5.6c3.1,0,5.6-2.5,5.6-5.6c0-3.1-2.5-5.6-5.6-5.6        C313.2,230.6,310.7,233.1,310.7,236.2" />
					</g>
				</g>
			</g>
			<g
   id="XMLID_482_">
				<g
   id="XMLID_487_">
					<path
   id="d1JmXRLVG_5_"
   class="st4"
   d="M307.5,241.2c-3.1,0-5.6,2.5-5.6,5.6c0,3.1,2.5,5.6,5.6,5.6c3.1,0,5.6-2.5,5.6-5.6       C313.1,243.7,310.6,241.2,307.5,241.2" />
				</g>
				<g
   id="XMLID_483_">
					<g
   id="XMLID_484_">
						<path
   id="d1JmXRLVG_2_"
   class="st5"
   d="M307.5,241.2c-3.1,0-5.6,2.5-5.6,5.6c0,3.1,2.5,5.6,5.6,5.6c3.1,0,5.6-2.5,5.6-5.6        C313.1,243.7,310.6,241.2,307.5,241.2" />
					</g>
				</g>
			</g>
			<g
   id="XMLID_476_">
				<g
   id="XMLID_481_">
					<path
   id="aeXfkxenZ_5_"
   class="st4"
   d="M293,256.2c0,3.1,2.5,5.6,5.6,5.6c3.1,0,5.6-2.5,5.6-5.6c0-3.1-2.5-5.6-5.6-5.6       C295.5,250.6,293,253.1,293,256.2" />
				</g>
				<g
   id="XMLID_477_">
					<g
   id="XMLID_478_">
						<path
   id="aeXfkxenZ_2_"
   class="st5"
   d="M293,256.2c0,3.1,2.5,5.6,5.6,5.6c3.1,0,5.6-2.5,5.6-5.6c0-3.1-2.5-5.6-5.6-5.6        C295.5,250.6,293,253.1,293,256.2" />
					</g>
				</g>
			</g>
			<g
   id="XMLID_470_">
				<g
   id="XMLID_475_">
					<path
   id="aN7av9jTq_5_"
   class="st4"
   d="M289.7,241.6c-3.1,0-5.6,2.5-5.6,5.6c0,3.1,2.5,5.6,5.6,5.6c3.1,0,5.6-2.5,5.6-5.6       C295.3,244.2,292.8,241.6,289.7,241.6" />
				</g>
				<g
   id="XMLID_471_">
					<g
   id="XMLID_472_">
						<path
   id="aN7av9jTq_2_"
   class="st5"
   d="M289.7,241.6c-3.1,0-5.6,2.5-5.6,5.6c0,3.1,2.5,5.6,5.6,5.6c3.1,0,5.6-2.5,5.6-5.6        C295.3,244.2,292.8,241.6,289.7,241.6" />
					</g>
				</g>
			</g>
			<g
   id="XMLID_464_">
				<g
   id="XMLID_469_">
					<path
   id="aYaej60jR_5_"
   class="st4"
   d="M289.1,270.4c3.1,0,5.6-2.5,5.6-5.6c0-3.1-2.5-5.6-5.6-5.6c-3.1,0-5.6,2.5-5.6,5.6       C283.5,267.9,286,270.4,289.1,270.4" />
				</g>
				<g
   id="XMLID_465_">
					<g
   id="XMLID_466_">
						<path
   id="aYaej60jR_2_"
   class="st5"
   d="M289.1,270.4c3.1,0,5.6-2.5,5.6-5.6c0-3.1-2.5-5.6-5.6-5.6c-3.1,0-5.6,2.5-5.6,5.6        C283.5,267.9,286,270.4,289.1,270.4" />
					</g>
				</g>
			</g>
			<g
   id="XMLID_458_">
				<g
   id="XMLID_463_">
					<path
   id="b2PyfJXFhg_5_"
   class="st4"
   d="M278.7,261.6c3.1,0,5.6-2.5,5.6-5.6c0-3.1-2.5-5.6-5.6-5.6c-3.1,0-5.6,2.5-5.6,5.6       C273,259.1,275.6,261.6,278.7,261.6" />
				</g>
				<g
   id="XMLID_459_">
					<g
   id="XMLID_460_">
						<path
   id="b2PyfJXFhg_2_"
   class="st5"
   d="M278.7,261.6c3.1,0,5.6-2.5,5.6-5.6c0-3.1-2.5-5.6-5.6-5.6c-3.1,0-5.6,2.5-5.6,5.6        C273,259.1,275.6,261.6,278.7,261.6" />
					</g>
				</g>
			</g>
			<g
   id="XMLID_452_">
				<g
   id="XMLID_457_">
					<path
   id="g1H1Lk68dt_5_"
   class="st4"
   d="M278.7,279.6c3.1,0,5.6-2.5,5.6-5.6c0-3.1-2.5-5.6-5.6-5.6c-3.1,0-5.6,2.5-5.6,5.6       C273.1,277.1,275.6,279.6,278.7,279.6" />
				</g>
				<g
   id="XMLID_453_">
					<g
   id="XMLID_454_">
						<path
   id="g1H1Lk68dt_2_"
   class="st5"
   d="M278.7,279.6c3.1,0,5.6-2.5,5.6-5.6c0-3.1-2.5-5.6-5.6-5.6c-3.1,0-5.6,2.5-5.6,5.6        C273.1,277.1,275.6,279.6,278.7,279.6" />
					</g>
				</g>
			</g>
			<g
   id="XMLID_446_">
				<g
   id="XMLID_451_">
					<path
   id="b1B4FTcpeg_5_"
   class="st4"
   d="M266.8,270.3c3.1,0,5.6-2.5,5.6-5.6c0-3.1-2.5-5.6-5.6-5.6c-3.1,0-5.6,2.5-5.6,5.6       C261.2,267.7,263.7,270.3,266.8,270.3" />
				</g>
				<g
   id="XMLID_447_">
					<g
   id="XMLID_448_">
						<path
   id="b1B4FTcpeg_2_"
   class="st5"
   d="M266.8,270.3c3.1,0,5.6-2.5,5.6-5.6c0-3.1-2.5-5.6-5.6-5.6c-3.1,0-5.6,2.5-5.6,5.6        C261.2,267.7,263.7,270.3,266.8,270.3" />
					</g>
				</g>
			</g>
			<g
   id="XMLID_440_">
				<g
   id="XMLID_445_">
					<path
   id="g12clxa7L_5_"
   class="st4"
   d="M267.7,289.2c3.1,0,5.6-2.5,5.6-5.6c0-3.1-2.5-5.6-5.6-5.6c-3.1,0-5.6,2.5-5.6,5.6       C262.1,286.7,264.6,289.2,267.7,289.2" />
				</g>
				<g
   id="XMLID_441_">
					<g
   id="XMLID_442_">
						<path
   id="g12clxa7L_2_"
   class="st5"
   d="M267.7,289.2c3.1,0,5.6-2.5,5.6-5.6c0-3.1-2.5-5.6-5.6-5.6c-3.1,0-5.6,2.5-5.6,5.6        C262.1,286.7,264.6,289.2,267.7,289.2" />
					</g>
				</g>
			</g>
			<g
   id="XMLID_434_">
				<g
   id="XMLID_439_">
					<path
   id="b1KXkz9F1_5_"
   class="st4"
   d="M254.3,280.6c3.1,0,5.6-2.5,5.6-5.6s-2.5-5.6-5.6-5.6c-3.1,0-5.6,2.5-5.6,5.6       S251.2,280.6,254.3,280.6" />
				</g>
				<g
   id="XMLID_435_">
					<g
   id="XMLID_436_">
						<path
   id="b1KXkz9F1_2_"
   class="st5"
   d="M254.3,280.6c3.1,0,5.6-2.5,5.6-5.6s-2.5-5.6-5.6-5.6c-3.1,0-5.6,2.5-5.6,5.6        S251.2,280.6,254.3,280.6" />
					</g>
				</g>
			</g>
			<g
   id="XMLID_428_">
				<g
   id="XMLID_433_">
					<path
   id="a1GCGZbkcl_5_"
   class="st4"
   d="M255.9,299.8c3.1,0,5.6-2.5,5.6-5.6c0-3.1-2.5-5.6-5.6-5.6c-3.1,0-5.6,2.5-5.6,5.6       C250.3,297.3,252.8,299.8,255.9,299.8" />
				</g>
				<g
   id="XMLID_429_">
					<g
   id="XMLID_430_">
						<path
   id="a1GCGZbkcl_2_"
   class="st5"
   d="M255.9,299.8c3.1,0,5.6-2.5,5.6-5.6c0-3.1-2.5-5.6-5.6-5.6c-3.1,0-5.6,2.5-5.6,5.6        C250.3,297.3,252.8,299.8,255.9,299.8" />
					</g>
				</g>
			</g>
			<g
   id="XMLID_422_">
				<g
   id="XMLID_427_">
					<path
   id="a5G3DxGj75_5_"
   class="st4"
   d="M243.2,311.3c3.1,0,5.6-2.5,5.6-5.6c0-3.1-2.5-5.6-5.6-5.6c-3.1,0-5.6,2.5-5.6,5.6       C237.6,308.8,240.1,311.3,243.2,311.3" />
				</g>
				<g
   id="XMLID_423_">
					<g
   id="XMLID_424_">
						<path
   id="a5G3DxGj75_2_"
   class="st5"
   d="M243.2,311.3c3.1,0,5.6-2.5,5.6-5.6c0-3.1-2.5-5.6-5.6-5.6c-3.1,0-5.6,2.5-5.6,5.6        C237.6,308.8,240.1,311.3,243.2,311.3" />
					</g>
				</g>
			</g>
			<g
   id="XMLID_416_">
				<g
   id="XMLID_421_">
					<path
   id="c13s3yjWWj_5_"
   class="st4"
   d="M232.7,296.4c0-3.1-2.5-5.6-5.6-5.6s-5.6,2.5-5.6,5.6c0,3.1,2.5,5.6,5.6,5.6       S232.7,299.5,232.7,296.4" />
				</g>
				<g
   id="XMLID_417_">
					<g
   id="XMLID_418_">
						<path
   id="c13s3yjWWj_2_"
   class="st5"
   d="M232.7,296.4c0-3.1-2.5-5.6-5.6-5.6s-5.6,2.5-5.6,5.6c0,3.1,2.5,5.6,5.6,5.6        S232.7,299.5,232.7,296.4" />
					</g>
				</g>
			</g>
			<g
   id="XMLID_410_">
				<g
   id="XMLID_415_">
					<path
   id="a1uq5YPSGV_5_"
   class="st4"
   d="M215.9,286.6c0-3.1-2.5-5.6-5.6-5.6c-3.1,0-5.6,2.5-5.6,5.6c0,3.1,2.5,5.6,5.6,5.6       C213.3,292.2,215.9,289.7,215.9,286.6" />
				</g>
				<g
   id="XMLID_411_">
					<g
   id="XMLID_412_">
						<path
   id="a1uq5YPSGV_2_"
   class="st5"
   d="M215.9,286.6c0-3.1-2.5-5.6-5.6-5.6c-3.1,0-5.6,2.5-5.6,5.6c0,3.1,2.5,5.6,5.6,5.6        C213.3,292.2,215.9,289.7,215.9,286.6" />
					</g>
				</g>
			</g>
			<g
   id="XMLID_404_">
				<g
   id="XMLID_409_">
					<path
   id="fCfVpU0Lj_5_"
   class="st4"
   d="M225.7,281.1c3.1,0,5.6-2.5,5.6-5.6c0-3.1-2.5-5.6-5.6-5.6s-5.6,2.5-5.6,5.6       C220.1,278.6,222.6,281.1,225.7,281.1" />
				</g>
				<g
   id="XMLID_405_">
					<g
   id="XMLID_406_">
						<path
   id="fCfVpU0Lj_2_"
   class="st5"
   d="M225.7,281.1c3.1,0,5.6-2.5,5.6-5.6c0-3.1-2.5-5.6-5.6-5.6s-5.6,2.5-5.6,5.6        C220.1,278.6,222.6,281.1,225.7,281.1" />
					</g>
				</g>
			</g>
			<g
   id="XMLID_398_">
				<g
   id="XMLID_403_">
					<path
   id="d6eGbFVDq_5_"
   class="st4"
   d="M209.2,270.3c3.1,0,5.6-2.5,5.6-5.6c0-3.1-2.5-5.6-5.6-5.6c-3.1,0-5.6,2.5-5.6,5.6       C203.6,267.8,206.2,270.3,209.2,270.3" />
				</g>
				<g
   id="XMLID_399_">
					<g
   id="XMLID_400_">
						<path
   id="d6eGbFVDq_2_"
   class="st5"
   d="M209.2,270.3c3.1,0,5.6-2.5,5.6-5.6c0-3.1-2.5-5.6-5.6-5.6c-3.1,0-5.6,2.5-5.6,5.6        C203.6,267.8,206.2,270.3,209.2,270.3" />
					</g>
				</g>
			</g>
			<g
   id="XMLID_392_">
				<g
   id="XMLID_397_">
					<path
   id="dIlwJAY59_5_"
   class="st4"
   d="M241.1,290.8c3.1,0,5.6-2.5,5.6-5.6c0-3.1-2.5-5.6-5.6-5.6c-3.1,0-5.6,2.5-5.6,5.6       C235.5,288.3,238,290.8,241.1,290.8" />
				</g>
				<g
   id="XMLID_393_">
					<g
   id="XMLID_394_">
						<path
   id="dIlwJAY59_2_"
   class="st5"
   d="M241.1,290.8c3.1,0,5.6-2.5,5.6-5.6c0-3.1-2.5-5.6-5.6-5.6c-3.1,0-5.6,2.5-5.6,5.6        C235.5,288.3,238,290.8,241.1,290.8" />
					</g>
				</g>
			</g>
			<g
   id="XMLID_386_">
				<g
   id="XMLID_391_">
					<path
   id="c2ga8DMh4l_5_"
   class="st4"
   d="M213,302.2c-3.1,0-5.6,2.5-5.6,5.6c0,3.1,2.5,5.6,5.6,5.6c3.1,0,5.6-2.5,5.6-5.6       C218.7,304.7,216.1,302.2,213,302.2" />
				</g>
				<g
   id="XMLID_387_">
					<g
   id="XMLID_388_">
						<path
   id="c2ga8DMh4l_2_"
   class="st5"
   d="M213,302.2c-3.1,0-5.6,2.5-5.6,5.6c0,3.1,2.5,5.6,5.6,5.6c3.1,0,5.6-2.5,5.6-5.6        C218.7,304.7,216.1,302.2,213,302.2" />
					</g>
				</g>
			</g>
			<g
   id="XMLID_380_">
				<g
   id="XMLID_385_">
					<path
   id="a6tUgXsuMZ_5_"
   class="st4"
   d="M235.1,317.6c0-3.1-2.5-5.6-5.6-5.6c-3.1,0-5.6,2.5-5.6,5.6s2.5,5.6,5.6,5.6       C232.5,323.2,235.1,320.7,235.1,317.6" />
				</g>
				<g
   id="XMLID_381_">
					<g
   id="XMLID_382_">
						<path
   id="a6tUgXsuMZ_2_"
   class="st5"
   d="M235.1,317.6c0-3.1-2.5-5.6-5.6-5.6c-3.1,0-5.6,2.5-5.6,5.6s2.5,5.6,5.6,5.6        C232.5,323.2,235.1,320.7,235.1,317.6" />
					</g>
				</g>
			</g>
			<g
   id="XMLID_374_">
				<g
   id="XMLID_379_">
					<path
   id="bNw6F9fyH_5_"
   class="st4"
   d="M304.3,273.7c0-3.1-2.5-5.6-5.6-5.6c-3.1,0-5.6,2.5-5.6,5.6s2.5,5.6,5.6,5.6       C301.7,279.3,304.3,276.8,304.3,273.7" />
				</g>
				<g
   id="XMLID_375_">
					<g
   id="XMLID_376_">
						<path
   id="bNw6F9fyH_2_"
   class="st5"
   d="M304.3,273.7c0-3.1-2.5-5.6-5.6-5.6c-3.1,0-5.6,2.5-5.6,5.6s2.5,5.6,5.6,5.6        C301.7,279.3,304.3,276.8,304.3,273.7" />
					</g>
				</g>
			</g>
			<g
   id="XMLID_368_">
				<g
   id="XMLID_373_">
					<path
   id="a5pPMmRZRW_5_"
   class="st4"
   d="M307.4,288.5c3.1,0,5.6-2.5,5.6-5.6c0-3.1-2.5-5.6-5.6-5.6c-3.1,0-5.6,2.5-5.6,5.6       C301.8,286,304.4,288.5,307.4,288.5" />
				</g>
				<g
   id="XMLID_369_">
					<g
   id="XMLID_370_">
						<path
   id="a5pPMmRZRW_2_"
   class="st5"
   d="M307.4,288.5c3.1,0,5.6-2.5,5.6-5.6c0-3.1-2.5-5.6-5.6-5.6c-3.1,0-5.6,2.5-5.6,5.6        C301.8,286,304.4,288.5,307.4,288.5" />
					</g>
				</g>
			</g>
			<g
   id="XMLID_362_">
				<g
   id="XMLID_367_">
					<path
   id="a2ZQ5QcPAF_5_"
   class="st4"
   d="M303.7,293.5c0-3.1-2.5-5.6-5.6-5.6c-3.1,0-5.6,2.5-5.6,5.6c0,3.1,2.5,5.6,5.6,5.6       C301.2,299.1,303.7,296.6,303.7,293.5" />
				</g>
				<g
   id="XMLID_363_">
					<g
   id="XMLID_364_">
						<path
   id="a2ZQ5QcPAF_2_"
   class="st5"
   d="M303.7,293.5c0-3.1-2.5-5.6-5.6-5.6c-3.1,0-5.6,2.5-5.6,5.6c0,3.1,2.5,5.6,5.6,5.6        C301.2,299.1,303.7,296.6,303.7,293.5" />
					</g>
				</g>
			</g>
			<g
   id="XMLID_356_">
				<g
   id="XMLID_361_">
					<path
   id="b1QWTxxAJ0_5_"
   class="st4"
   d="M288.8,310.3c3.1,0,5.6-2.5,5.6-5.6c0-3.1-2.5-5.6-5.6-5.6c-3.1,0-5.6,2.5-5.6,5.6       C283.2,307.8,285.7,310.3,288.8,310.3" />
				</g>
				<g
   id="XMLID_357_">
					<g
   id="XMLID_358_">
						<path
   id="b1QWTxxAJ0_2_"
   class="st5"
   d="M288.8,310.3c3.1,0,5.6-2.5,5.6-5.6c0-3.1-2.5-5.6-5.6-5.6c-3.1,0-5.6,2.5-5.6,5.6        C283.2,307.8,285.7,310.3,288.8,310.3" />
					</g>
				</g>
			</g>
			<g
   id="XMLID_350_">
				<g
   id="XMLID_355_">
					<path
   id="c5l5cdm0Em_5_"
   class="st4"
   d="M297.3,323.5c3.1,0,5.6-2.5,5.6-5.6c0-3.1-2.5-5.6-5.6-5.6c-3.1,0-5.6,2.5-5.6,5.6       C291.7,321,294.2,323.5,297.3,323.5" />
				</g>
				<g
   id="XMLID_351_">
					<g
   id="XMLID_352_">
						<path
   id="c5l5cdm0Em_2_"
   class="st5"
   d="M297.3,323.5c3.1,0,5.6-2.5,5.6-5.6c0-3.1-2.5-5.6-5.6-5.6c-3.1,0-5.6,2.5-5.6,5.6        C291.7,321,294.2,323.5,297.3,323.5" />
					</g>
				</g>
			</g>
			<g
   id="XMLID_344_">
				<g
   id="XMLID_349_">
					<path
   id="dh0y3Me0Y_5_"
   class="st4"
   d="M286.9,336.6c3.1,0,5.6-2.5,5.6-5.6c0-3.1-2.5-5.6-5.6-5.6c-3.1,0-5.6,2.5-5.6,5.6       C281.3,334,283.8,336.6,286.9,336.6" />
				</g>
				<g
   id="XMLID_345_">
					<g
   id="XMLID_346_">
						<path
   id="dh0y3Me0Y_2_"
   class="st5"
   d="M286.9,336.6c3.1,0,5.6-2.5,5.6-5.6c0-3.1-2.5-5.6-5.6-5.6c-3.1,0-5.6,2.5-5.6,5.6        C281.3,334,283.8,336.6,286.9,336.6" />
					</g>
				</g>
			</g>
			<g
   id="XMLID_338_">
				<g
   id="XMLID_343_">
					<path
   id="a3sNtkMd6F_5_"
   class="st4"
   d="M266.4,334.4c3.1,0,5.6-2.5,5.6-5.6c0-3.1-2.5-5.6-5.6-5.6c-3.1,0-5.6,2.5-5.6,5.6       C260.8,331.9,263.4,334.4,266.4,334.4" />
				</g>
				<g
   id="XMLID_339_">
					<g
   id="XMLID_340_">
						<path
   id="a3sNtkMd6F_2_"
   class="st5"
   d="M266.4,334.4c3.1,0,5.6-2.5,5.6-5.6c0-3.1-2.5-5.6-5.6-5.6c-3.1,0-5.6,2.5-5.6,5.6        C260.8,331.9,263.4,334.4,266.4,334.4" />
					</g>
				</g>
			</g>
			<g
   id="XMLID_332_">
				<g
   id="XMLID_337_">
					<path
   id="fpuN8BmrQ_5_"
   class="st4"
   d="M258.5,319.5c3.1,0,5.6-2.5,5.6-5.6c0-3.1-2.5-5.6-5.6-5.6c-3.1,0-5.6,2.5-5.6,5.6       C252.8,317,255.4,319.5,258.5,319.5" />
				</g>
				<g
   id="XMLID_333_">
					<g
   id="XMLID_334_">
						<path
   id="fpuN8BmrQ_2_"
   class="st5"
   d="M258.5,319.5c3.1,0,5.6-2.5,5.6-5.6c0-3.1-2.5-5.6-5.6-5.6c-3.1,0-5.6,2.5-5.6,5.6        C252.8,317,255.4,319.5,258.5,319.5" />
					</g>
				</g>
			</g>
			<g
   id="XMLID_326_">
				<g
   id="XMLID_331_">
					<path
   id="alO4ZLbYs_5_"
   class="st4"
   d="M278.1,322c3.1,0,5.6-2.5,5.6-5.6c0-3.1-2.5-5.6-5.6-5.6c-3.1,0-5.6,2.5-5.6,5.6       C272.5,319.5,275,322,278.1,322" />
				</g>
				<g
   id="XMLID_327_">
					<g
   id="XMLID_328_">
						<path
   id="alO4ZLbYs_2_"
   class="st5"
   d="M278.1,322c3.1,0,5.6-2.5,5.6-5.6c0-3.1-2.5-5.6-5.6-5.6c-3.1,0-5.6,2.5-5.6,5.6        C272.5,319.5,275,322,278.1,322" />
					</g>
				</g>
			</g>
			<g
   id="XMLID_320_">
				<g
   id="XMLID_325_">
					<path
   id="bdPnGvFEs_5_"
   class="st4"
   d="M275,302.4c0-3.1-2.5-5.6-5.6-5.6c-3.1,0-5.6,2.5-5.6,5.6c0,3.1,2.5,5.6,5.6,5.6       C272.5,308,275,305.5,275,302.4" />
				</g>
				<g
   id="XMLID_321_">
					<g
   id="XMLID_322_">
						<path
   id="bdPnGvFEs_2_"
   class="st5"
   d="M275,302.4c0-3.1-2.5-5.6-5.6-5.6c-3.1,0-5.6,2.5-5.6,5.6c0,3.1,2.5,5.6,5.6,5.6        C272.5,308,275,305.5,275,302.4" />
					</g>
				</g>
			</g>
			<g
   id="XMLID_314_">
				<g
   id="XMLID_319_">
					<path
   id="madJPOMAC_5_"
   class="st4"
   d="M279.8,297.8c3.1,0,5.6-2.5,5.6-5.6c0-3.1-2.5-5.6-5.6-5.6c-3.1,0-5.6,2.5-5.6,5.6       C274.2,295.3,276.8,297.8,279.8,297.8" />
				</g>
				<g
   id="XMLID_315_">
					<g
   id="XMLID_316_">
						<path
   id="madJPOMAC_2_"
   class="st5"
   d="M279.8,297.8c3.1,0,5.6-2.5,5.6-5.6c0-3.1-2.5-5.6-5.6-5.6c-3.1,0-5.6,2.5-5.6,5.6        C274.2,295.3,276.8,297.8,279.8,297.8" />
					</g>
				</g>
			</g>
			<g
   id="XMLID_308_">
				<g
   id="XMLID_313_">
					<path
   id="b7VETuwTi_5_"
   class="st4"
   d="M289.6,288.1c3.1,0,5.6-2.5,5.6-5.6s-2.5-5.6-5.6-5.6c-3.1,0-5.6,2.5-5.6,5.6       S286.6,288.1,289.6,288.1" />
				</g>
				<g
   id="XMLID_309_">
					<g
   id="XMLID_310_">
						<path
   id="b7VETuwTi_2_"
   class="st5"
   d="M289.6,288.1c3.1,0,5.6-2.5,5.6-5.6s-2.5-5.6-5.6-5.6c-3.1,0-5.6,2.5-5.6,5.6        S286.6,288.1,289.6,288.1" />
					</g>
				</g>
			</g>
			<g
   id="XMLID_302_">
				<g
   id="XMLID_307_">
					<path
   id="c25SBFciDj_5_"
   class="st4"
   d="M251.9,325.5c0-3.1-2.5-5.6-5.6-5.6c-3.1,0-5.6,2.5-5.6,5.6c0,3.1,2.5,5.6,5.6,5.6       C249.3,331.1,251.9,328.6,251.9,325.5" />
				</g>
				<g
   id="XMLID_303_">
					<g
   id="XMLID_304_">
						<path
   id="c25SBFciDj_2_"
   class="st5"
   d="M251.9,325.5c0-3.1-2.5-5.6-5.6-5.6c-3.1,0-5.6,2.5-5.6,5.6c0,3.1,2.5,5.6,5.6,5.6        C249.3,331.1,251.9,328.6,251.9,325.5" />
					</g>
				</g>
			</g>
			<g
   id="XMLID_296_">
				<g
   id="XMLID_301_">
					<path
   id="bQUIulOYG_5_"
   class="st4"
   d="M254.6,337c-3.1,0-5.6,2.5-5.6,5.6s2.5,5.6,5.6,5.6c3.1,0,5.6-2.5,5.6-5.6       S257.7,337,254.6,337" />
				</g>
				<g
   id="XMLID_297_">
					<g
   id="XMLID_298_">
						<path
   id="bQUIulOYG_2_"
   class="st5"
   d="M254.6,337c-3.1,0-5.6,2.5-5.6,5.6s2.5,5.6,5.6,5.6c3.1,0,5.6-2.5,5.6-5.6        S257.7,337,254.6,337" />
					</g>
				</g>
			</g>
			<g
   id="XMLID_290_">
				<g
   id="XMLID_295_">
					<path
   id="b2fFkX1WyU_5_"
   class="st4"
   d="M234.3,333c-3.1,0-5.6,2.5-5.6,5.6c0,3.1,2.5,5.6,5.6,5.6c3.1,0,5.6-2.5,5.6-5.6       C239.9,335.5,237.4,333,234.3,333" />
				</g>
				<g
   id="XMLID_291_">
					<g
   id="XMLID_292_">
						<path
   id="b2fFkX1WyU_2_"
   class="st5"
   d="M234.3,333c-3.1,0-5.6,2.5-5.6,5.6c0,3.1,2.5,5.6,5.6,5.6c3.1,0,5.6-2.5,5.6-5.6        C239.9,335.5,237.4,333,234.3,333" />
					</g>
				</g>
			</g>
			<g
   id="XMLID_284_">
				<g
   id="XMLID_289_">
					<path
   id="b4zDoVRnyc_5_"
   class="st4"
   d="M275.7,339.4c-3.1,0-5.6,2.5-5.6,5.6c0,3.1,2.5,5.6,5.6,5.6s5.6-2.5,5.6-5.6       C281.3,341.9,278.8,339.4,275.7,339.4" />
				</g>
				<g
   id="XMLID_285_">
					<g
   id="XMLID_286_">
						<path
   id="b4zDoVRnyc_2_"
   class="st5"
   d="M275.7,339.4c-3.1,0-5.6,2.5-5.6,5.6c0,3.1,2.5,5.6,5.6,5.6s5.6-2.5,5.6-5.6        C281.3,341.9,278.8,339.4,275.7,339.4" />
					</g>
				</g>
			</g>
			<g
   id="XMLID_278_">
				<g
   id="XMLID_283_">
					<path
   id="c4dwizFGrI_5_"
   class="st4"
   d="M325.9,219.6c-3.1,0-5.6,2.5-5.6,5.6c0,3.1,2.5,5.6,5.6,5.6c3.1,0,5.6-2.5,5.6-5.6       C331.5,222.1,329,219.6,325.9,219.6" />
				</g>
				<g
   id="XMLID_279_">
					<g
   id="XMLID_280_">
						<path
   id="c4dwizFGrI_2_"
   class="st5"
   d="M325.9,219.6c-3.1,0-5.6,2.5-5.6,5.6c0,3.1,2.5,5.6,5.6,5.6c3.1,0,5.6-2.5,5.6-5.6        C331.5,222.1,329,219.6,325.9,219.6" />
					</g>
				</g>
			</g>
			<g
   id="XMLID_272_">
				<g
   id="XMLID_277_">
					<path
   id="cuzkrYQWb_5_"
   class="st4"
   d="M365.6,224.3c0,3.1,2.5,5.6,5.6,5.6c3.1,0,5.6-2.5,5.6-5.6c0-3.1-2.5-5.6-5.6-5.6       C368.2,218.6,365.6,221.2,365.6,224.3" />
				</g>
				<g
   id="XMLID_273_">
					<g
   id="XMLID_274_">
						<path
   id="cuzkrYQWb_2_"
   class="st5"
   d="M365.6,224.3c0,3.1,2.5,5.6,5.6,5.6c3.1,0,5.6-2.5,5.6-5.6c0-3.1-2.5-5.6-5.6-5.6        C368.2,218.6,365.6,221.2,365.6,224.3" />
					</g>
				</g>
			</g>
			<g
   id="XMLID_266_">
				<g
   id="XMLID_271_">
					<path
   id="gT9qKDRzS_5_"
   class="st4"
   d="M358.8,230.1c-3.1,0-5.6,2.5-5.6,5.6s2.5,5.6,5.6,5.6c3.1,0,5.6-2.5,5.6-5.6       S361.9,230.1,358.8,230.1" />
				</g>
				<g
   id="XMLID_267_">
					<g
   id="XMLID_268_">
						<path
   id="gT9qKDRzS_2_"
   class="st5"
   d="M358.8,230.1c-3.1,0-5.6,2.5-5.6,5.6s2.5,5.6,5.6,5.6c3.1,0,5.6-2.5,5.6-5.6        S361.9,230.1,358.8,230.1" />
					</g>
				</g>
			</g>
			<g
   id="XMLID_260_">
				<g
   id="XMLID_265_">
					<path
   id="cwcH72Jqq_5_"
   class="st4"
   d="M373.4,250c3.1,0,5.6-2.5,5.6-5.6c0-3.1-2.5-5.6-5.6-5.6s-5.6,2.5-5.6,5.6       C367.8,247.5,370.3,250,373.4,250" />
				</g>
				<g
   id="XMLID_261_">
					<g
   id="XMLID_262_">
						<path
   id="cwcH72Jqq_2_"
   class="st5"
   d="M373.4,250c3.1,0,5.6-2.5,5.6-5.6c0-3.1-2.5-5.6-5.6-5.6s-5.6,2.5-5.6,5.6        C367.8,247.5,370.3,250,373.4,250" />
					</g>
				</g>
			</g>
			<g
   id="XMLID_254_">
				<g
   id="XMLID_259_">
					<path
   id="cbO2jRVJ6_5_"
   class="st4"
   d="M374.3,259c-3.1,0-5.6,2.5-5.6,5.6c0,3.1,2.5,5.6,5.6,5.6s5.6-2.5,5.6-5.6       C379.9,261.6,377.3,259,374.3,259" />
				</g>
				<g
   id="XMLID_255_">
					<g
   id="XMLID_256_">
						<path
   id="cbO2jRVJ6_2_"
   class="st5"
   d="M374.3,259c-3.1,0-5.6,2.5-5.6,5.6c0,3.1,2.5,5.6,5.6,5.6s5.6-2.5,5.6-5.6        C379.9,261.6,377.3,259,374.3,259" />
					</g>
				</g>
			</g>
			<g
   id="XMLID_248_">
				<g
   id="XMLID_253_">
					<path
   id="f3sfIQmtD2_5_"
   class="st4"
   d="M354.5,255c0,3.1,2.5,5.6,5.6,5.6c3.1,0,5.6-2.5,5.6-5.6c0-3.1-2.5-5.6-5.6-5.6       C357.1,249.3,354.5,251.9,354.5,255" />
				</g>
				<g
   id="XMLID_249_">
					<g
   id="XMLID_250_">
						<path
   id="f3sfIQmtD2_2_"
   class="st5"
   d="M354.5,255c0,3.1,2.5,5.6,5.6,5.6c3.1,0,5.6-2.5,5.6-5.6c0-3.1-2.5-5.6-5.6-5.6        C357.1,249.3,354.5,251.9,354.5,255" />
					</g>
				</g>
			</g>
			<g
   id="XMLID_242_">
				<g
   id="XMLID_247_">
					<path
   id="cyrP6kt9H_5_"
   class="st4"
   d="M347.1,251.9c3.1,0,5.6-2.5,5.6-5.6c0-3.1-2.5-5.6-5.6-5.6c-3.1,0-5.6,2.5-5.6,5.6       C341.5,249.4,344.1,251.9,347.1,251.9" />
				</g>
				<g
   id="XMLID_243_">
					<g
   id="XMLID_244_">
						<path
   id="cyrP6kt9H_2_"
   class="st5"
   d="M347.1,251.9c3.1,0,5.6-2.5,5.6-5.6c0-3.1-2.5-5.6-5.6-5.6c-3.1,0-5.6,2.5-5.6,5.6        C341.5,249.4,344.1,251.9,347.1,251.9" />
					</g>
				</g>
			</g>
			<g
   id="XMLID_235_">
				<g
   id="XMLID_240_">
					<path
   id="a3F0jCBZy_6_"
   class="st6"
   d="M312.9,153.5l2.8,0.1l2.8,0.2l2.7,0.2l2.7,0.3l2.7,0.3l2.7,0.4l2.7,0.4l2.7,0.5l2.6,0.5       l2.6,0.5l2.6,0.6l2.6,0.6l2.6,0.7l2.6,0.7l2.5,0.8l2.5,0.8l2.5,0.9l2.5,0.9l2.5,0.9l2.4,1l2.4,1l2.4,1.1l2.4,1.1l2.4,1.1       l2.3,1.2l2.3,1.2l2.3,1.2l2.3,1.3l2.2,1.3l2.2,1.4l2.2,1.4l2.2,1.4l2.1,1.5l2.1,1.5l2.1,1.5l2.1,1.6l2,1.6l2,1.6l-2.1-1.5       l-2.1-1.5l-2.1-1.5l-2.2-1.4l-2.2-1.4l-2.2-1.4l-2.2-1.3l-2.3-1.3l-2.3-1.3l-2.3-1.2l-2.4-1.2l-2.4-1.2l-2.4-1.1l-2.4-1.1       l-2.5-1.1l-2.5-1l-2.5-1l-2.6-0.9l-2.6-0.9l-2.6-0.9l-2.6-0.8l-2.6-0.8l-2.7-0.8l-2.7-0.7l-2.7-0.7l-2.7-0.6l-2.8-0.6l-2.8-0.5       l-2.8-0.5l-2.8-0.5l-2.8-0.4l-2.8-0.4l-2.9-0.3l-2.9-0.3l-2.9-0.2l-2.9-0.2l-2.9-0.2l-2.9-0.1l-2.9-0.1l-3,0h-1.1l-1.1,0       l-1.1,0l-1.1,0l-1.1,0l-1.1,0l-1.1,0l-1.1,0l-1.1,0l-1.1,0.1l-1.1,0.1l-1.1,0.1l-1.1,0.1l-1.1,0.1l-1.1,0.1l-1.1,0.1l-1.1,0.1       l-1.1,0.1l-1,0.1l-1.1,0.1l-1,0.1l-1,0.1l-1,0.1l-1,0.1l-1,0.1l-1,0.2l-1,0.2l-1,0.2l-1,0.2l-1,0.2l-1,0.2l-1,0.2l-1,0.2       l-1,0.2l-1,0.2l-1,0.2l-1,0.2l-1,0.2l-1,0.2l-1,0.2l1.1-0.4l1.1-0.3l1.1-0.3l1.1-0.3l1.1-0.3l1.1-0.3l1.1-0.3l1.1-0.3l1.1-0.3       l1.1-0.3l1.1-0.3l1.1-0.3l1.1-0.2l1.2-0.2l1.1-0.2l1.2-0.2l1.2-0.2l1.2-0.2l1.2-0.2l1.2-0.2l1.2-0.2l1.2-0.2l1.2-0.2l1.2-0.2       l1.2-0.1l1.2-0.1l1.2-0.1l1.2-0.1l1.2-0.1l1.2-0.1l1.2-0.1l1.2-0.1l1.2-0.1l1.2-0.1l1.2-0.1l1.2,0l1.2,0l1.2,0l1.2,0h1.2l2.8,0       L312.9,153.5z" />
				</g>
				<g
   id="XMLID_236_">
					<g
   id="XMLID_237_">
						<path
   id="a3F0jCBZy_2_"
   class="st5"
   d="M312.9,153.5l2.8,0.1l2.8,0.2l2.7,0.2l2.7,0.3l2.7,0.3l2.7,0.4l2.7,0.4l2.7,0.5        l2.6,0.5l2.6,0.5l2.6,0.6l2.6,0.6l2.6,0.7l2.6,0.7l2.5,0.8l2.5,0.8l2.5,0.9l2.5,0.9l2.5,0.9l2.4,1l2.4,1l2.4,1.1l2.4,1.1        l2.4,1.1l2.3,1.2l2.3,1.2l2.3,1.2l2.3,1.3l2.2,1.3l2.2,1.4l2.2,1.4l2.2,1.4l2.1,1.5l2.1,1.5l2.1,1.5l2.1,1.6l2,1.6l2,1.6        l-2.1-1.5l-2.1-1.5l-2.1-1.5l-2.2-1.4l-2.2-1.4l-2.2-1.4l-2.2-1.3l-2.3-1.3l-2.3-1.3l-2.3-1.2l-2.4-1.2l-2.4-1.2l-2.4-1.1        l-2.4-1.1l-2.5-1.1l-2.5-1l-2.5-1l-2.6-0.9l-2.6-0.9l-2.6-0.9l-2.6-0.8l-2.6-0.8l-2.7-0.8l-2.7-0.7l-2.7-0.7l-2.7-0.6        l-2.8-0.6l-2.8-0.5l-2.8-0.5l-2.8-0.5l-2.8-0.4l-2.8-0.4l-2.9-0.3l-2.9-0.3l-2.9-0.2l-2.9-0.2l-2.9-0.2l-2.9-0.1l-2.9-0.1        l-3,0h-1.1l-1.1,0l-1.1,0l-1.1,0l-1.1,0l-1.1,0l-1.1,0l-1.1,0l-1.1,0l-1.1,0.1l-1.1,0.1l-1.1,0.1l-1.1,0.1l-1.1,0.1l-1.1,0.1        l-1.1,0.1l-1.1,0.1l-1.1,0.1l-1,0.1l-1.1,0.1l-1,0.1l-1,0.1l-1,0.1l-1,0.1l-1,0.1l-1,0.2l-1,0.2l-1,0.2l-1,0.2l-1,0.2l-1,0.2        l-1,0.2l-1,0.2l-1,0.2l-1,0.2l-1,0.2l-1,0.2l-1,0.2l-1,0.2l-1,0.2l1.1-0.4l1.1-0.3l1.1-0.3l1.1-0.3l1.1-0.3l1.1-0.3l1.1-0.3        l1.1-0.3l1.1-0.3l1.1-0.3l1.1-0.3l1.1-0.3l1.1-0.2l1.2-0.2l1.1-0.2l1.2-0.2l1.2-0.2l1.2-0.2l1.2-0.2l1.2-0.2l1.2-0.2l1.2-0.2        l1.2-0.2l1.2-0.2l1.2-0.1l1.2-0.1l1.2-0.1l1.2-0.1l1.2-0.1l1.2-0.1l1.2-0.1l1.2-0.1l1.2-0.1l1.2-0.1l1.2-0.1l1.2,0l1.2,0        l1.2,0l1.2,0h1.2l2.8,0L312.9,153.5z" />
					</g>
				</g>
			</g>
			<g
   id="XMLID_229_">
				<g
   id="XMLID_234_">
					<path
   id="c1iqXH1RAl_5_"
   class="st2"
   d="M173.4,441.4c0,7.9,1.3,15.5,3.8,22.6c13.1,0,118,0,131.1,0c2.4-7.1,3.8-14.7,3.8-22.6       c0-38.3-31.1-69.3-69.3-69.3C204.5,372.1,173.4,403.2,173.4,441.4z" />
				</g>
				<g
   id="XMLID_230_">
					<g
   id="XMLID_231_">
						<path
   id="c1iqXH1RAl_2_"
   class="st1"
   d="M173.4,441.4c0,7.9,1.3,15.5,3.8,22.6c13.1,0,118,0,131.1,0        c2.4-7.1,3.8-14.7,3.8-22.6c0-38.3-31.1-69.3-69.3-69.3C204.5,372.1,173.4,403.2,173.4,441.4z" />
					</g>
				</g>
			</g>
			<g
   id="XMLID_223_">
				<g
   id="XMLID_228_">
					<path
   id="g1wXvE3CyI_5_"
   class="st0"
   d="M218,466c-10.3,0-18.6-9.9-18.6-22c0-12.2,8.3-22,18.6-22c10.3,0,18.6,9.9,18.6,22l0,0       C236.6,456.2,228.3,466,218,466z" />
				</g>
				<g
   id="XMLID_224_">
					<g
   id="XMLID_225_">
						<path
   id="g1wXvE3CyI_2_"
   class="st7"
   d="M218,466c-10.3,0-18.6-9.9-18.6-22c0-12.2,8.3-22,18.6-22c10.3,0,18.6,9.9,18.6,22        l0,0C236.6,456.2,228.3,466,218,466z" />
					</g>
				</g>
			</g>
			<g
   id="XMLID_217_">
				<g
   id="XMLID_222_">
					<path
   id="h1CaL285wa_5_"
   class="st0"
   d="M264.6,466c-10.3,0-18.6-9.9-18.6-22c0-12.2,8.3-22,18.6-22c10.3,0,18.6,9.9,18.6,22       l0,0C283.2,456.2,274.8,466,264.6,466z" />
				</g>
				<g
   id="XMLID_218_">
					<g
   id="XMLID_219_">
						<path
   id="h1CaL285wa_2_"
   class="st7"
   d="M264.6,466c-10.3,0-18.6-9.9-18.6-22c0-12.2,8.3-22,18.6-22c10.3,0,18.6,9.9,18.6,22        l0,0C283.2,456.2,274.8,466,264.6,466z" />
					</g>
				</g>
			</g>
			<g
   id="XMLID_211_">
				<g
   id="XMLID_216_">
					<path
   id="e1JnGFNGuF_5_"
   class="st0"
   d="M242.6,466c-10.3,0-18.6-9.9-18.6-22c0-12.2,8.3-22,18.6-22s18.6,9.9,18.6,22l0,0       C261.1,456.2,252.8,466,242.6,466z" />
				</g>
				<g
   id="XMLID_212_">
					<g
   id="XMLID_213_">
						<path
   id="e1JnGFNGuF_2_"
   class="st7"
   d="M242.6,466c-10.3,0-18.6-9.9-18.6-22c0-12.2,8.3-22,18.6-22s18.6,9.9,18.6,22l0,0        C261.1,456.2,252.8,466,242.6,466z" />
					</g>
				</g>
			</g>
			<g
   id="XMLID_205_">
				<g
   id="XMLID_210_">
					<path
   id="hgsRxAI7q_5_"
   class="st2"
   d="M312.1,441.4c0,7.9,1.3,15.5,3.8,22.6c13.1,0,118,0,131.1,0c2.5-7.1,3.8-14.7,3.8-22.6       c0-38.3-31-69.3-69.3-69.3C343.1,372.1,312.1,403.2,312.1,441.4z" />
				</g>
				<g
   id="XMLID_206_">
					<g
   id="XMLID_207_">
						<path
   id="hgsRxAI7q_2_"
   class="st1"
   d="M312.1,441.4c0,7.9,1.3,15.5,3.8,22.6c13.1,0,118,0,131.1,0c2.5-7.1,3.8-14.7,3.8-22.6        c0-38.3-31-69.3-69.3-69.3C343.1,372.1,312.1,403.2,312.1,441.4z" />
					</g>
				</g>
			</g>
			<g
   id="XMLID_199_">
				<g
   id="XMLID_204_">
					<path
   id="giTICiLA9_5_"
   class="st0"
   d="M360.9,466c-10.3,0-18.6-9.9-18.6-22c0-12.2,8.3-22,18.6-22c10.2,0,18.6,9.9,18.6,22       l0,0C379.4,456.2,371.1,466,360.9,466z" />
				</g>
				<g
   id="XMLID_200_">
					<g
   id="XMLID_201_">
						<path
   id="giTICiLA9_2_"
   class="st7"
   d="M360.9,466c-10.3,0-18.6-9.9-18.6-22c0-12.2,8.3-22,18.6-22c10.2,0,18.6,9.9,18.6,22        l0,0C379.4,456.2,371.1,466,360.9,466z" />
					</g>
				</g>
			</g>
			<g
   id="XMLID_193_">
				<g
   id="XMLID_198_">
					<path
   id="bMsygejPu_5_"
   class="st0"
   d="M407.4,466c-10.3,0-18.6-9.9-18.6-22c0-12.2,8.3-22,18.6-22c10.2,0,18.6,9.9,18.6,22       l0,0C426,456.2,417.7,466,407.4,466z" />
				</g>
				<g
   id="XMLID_194_">
					<g
   id="XMLID_195_">
						<path
   id="bMsygejPu_2_"
   class="st7"
   d="M407.4,466c-10.3,0-18.6-9.9-18.6-22c0-12.2,8.3-22,18.6-22c10.2,0,18.6,9.9,18.6,22        l0,0C426,456.2,417.7,466,407.4,466z" />
					</g>
				</g>
			</g>
			<g
   id="XMLID_187_">
				<g
   id="XMLID_192_">
					<path
   id="dtYyXMkgK_5_"
   class="st0"
   d="M385.4,466c-10.3,0-18.6-9.9-18.6-22c0-12.2,8.3-22,18.6-22c10.2,0,18.6,9.9,18.6,22       l0,0C404,456.2,395.7,466,385.4,466z" />
				</g>
				<g
   id="XMLID_188_">
					<g
   id="XMLID_189_">
						<path
   id="dtYyXMkgK_2_"
   class="st7"
   d="M385.4,466c-10.3,0-18.6-9.9-18.6-22c0-12.2,8.3-22,18.6-22c10.2,0,18.6,9.9,18.6,22        l0,0C404,456.2,395.7,466,385.4,466z" />
					</g>
				</g>
			</g>
			<g
   id="XMLID_181_">
				<g
   id="XMLID_186_">
					<path
   id="bciOdULnY_5_"
   class="st4"
   d="M534,96.8c11.7,7.4,13.8,17,6.4,28.7c-16.9,26.6-26.3,41.3-28.2,44.3       c-7.4,11.7-17,13.8-28.7,6.4c-59-37.5-91.8-58.4-98.4-62.6c-11.7-7.5-13.8-17-6.4-28.7c16.9-26.6,26.3-41.3,28.2-44.3       c7.4-11.7,17-13.8,28.7-6.4C494.6,71.8,527.4,92.6,534,96.8z" />
				</g>
				<g
   id="XMLID_182_">
					<g
   id="XMLID_183_">
						<path
   id="bciOdULnY_2_"
   class="st8"
   d="M534,96.8c11.7,7.4,13.8,17,6.4,28.7c-16.9,26.6-26.3,41.3-28.2,44.3        c-7.4,11.7-17,13.8-28.7,6.4c-59-37.5-91.8-58.4-98.4-62.6c-11.7-7.5-13.8-17-6.4-28.7c16.9-26.6,26.3-41.3,28.2-44.3        c7.4-11.7,17-13.8,28.7-6.4C494.6,71.8,527.4,92.6,534,96.8z" />
					</g>
				</g>
			</g>
			<g
   id="XMLID_175_">
				<g
   id="XMLID_180_">
					<path
   id="a3DsKFunds_5_"
   class="st9"
   d="M435.2,143.5c2.6,1.6,2.5,4.6-0.2,8.8c-61.1,96.1-95.1,149.5-101.9,160.2       c-2.7,4.2-5.3,5.5-7.9,3.9l0,0c-2.6-1.6-2.5-4.6,0.2-8.8c61.1-96.1,95.1-149.5,101.9-160.2C430,143.2,432.6,141.9,435.2,143.5       L435.2,143.5z" />
				</g>
				<g
   id="XMLID_176_">
					<g
   id="XMLID_177_">
						<path
   id="a3DsKFunds_2_"
   class="st10"
   d="M435.2,143.5c2.6,1.6,2.5,4.6-0.2,8.8c-61.1,96.1-95.1,149.5-101.9,160.2        c-2.7,4.2-5.3,5.5-7.9,3.9l0,0c-2.6-1.6-2.5-4.6,0.2-8.8c61.1-96.1,95.1-149.5,101.9-160.2C430,143.2,432.6,141.9,435.2,143.5        L435.2,143.5z" />
					</g>
				</g>
			</g>
			<g
   id="XMLID_151_">
				<g
   id="XMLID_156_">
					<path
   id="a6fFQ8NdT_6_"
   class="st6"
   d="M223.7,178.3c10.7,37.9,45.2,65.7,86.4,66.5c1.4,2.3,2.6,4.2,3.5,4.7       c2.5,1.8,16.2,2.5,18.7,0.4c1.3-1,3.5-4.7,5.4-8.8c28.3-8.4,50.9-30.1,60.5-57.8c-25.4-18.8-56.8-29.9-90.9-29.9       C276.4,153.4,247.7,162.5,223.7,178.3z" />
				</g>
				<g
   id="XMLID_152_">
					<g
   id="XMLID_153_">
						<path
   id="a6fFQ8NdT_2_"
   class="st5"
   d="M223.7,178.3c10.7,37.9,45.2,65.7,86.4,66.5c1.4,2.3,2.6,4.2,3.5,4.7        c2.5,1.8,16.2,2.5,18.7,0.4c1.3-1,3.5-4.7,5.4-8.8c28.3-8.4,50.9-30.1,60.5-57.8c-25.4-18.8-56.8-29.9-90.9-29.9        C276.4,153.4,247.7,162.5,223.7,178.3z" />
					</g>
				</g>
			</g>
			<g
   id="XMLID_145_">
				<g
   id="XMLID_150_">
					<path
   id="avZwYUbp7_5_"
   class="st2"
   d="M215.8,76.2c0,9,4.7,16.9,11.8,21.4c-7.5,13.3-11.8,28.6-11.8,44.9       c0,50.5,41,91.5,91.5,91.5s91.5-41,91.5-91.5c0-16.3-4.3-31.7-11.8-44.9c7.1-4.5,11.8-12.4,11.8-21.4       c0-13.9-11.3-25.2-25.2-25.2c-9,0-16.9,4.7-21.3,11.8C339,55.4,323.6,51,307.3,51c-16.3,0-31.7,4.3-45,11.8       C257.9,55.8,250,51,241,51C227.1,51,215.8,62.3,215.8,76.2z" />
				</g>
				<g
   id="XMLID_146_">
					<g
   id="XMLID_147_">
						<path
   id="avZwYUbp7_2_"
   class="st1"
   d="M215.8,76.2c0,9,4.7,16.9,11.8,21.4c-7.5,13.3-11.8,28.6-11.8,44.9        c0,50.5,41,91.5,91.5,91.5s91.5-41,91.5-91.5c0-16.3-4.3-31.7-11.8-44.9c7.1-4.5,11.8-12.4,11.8-21.4        c0-13.9-11.3-25.2-25.2-25.2c-9,0-16.9,4.7-21.3,11.8C339,55.4,323.6,51,307.3,51c-16.3,0-31.7,4.3-45,11.8        C257.9,55.8,250,51,241,51C227.1,51,215.8,62.3,215.8,76.2z" />
					</g>
				</g>
			</g>
			<g
   id="XMLID_139_">
				<g
   id="XMLID_144_">
					<path
   id="aZeWTS5nc_5_"
   class="st4"
   d="M279.2,150.3c-14.2,0-25.8-11.5-25.8-25.7c0,0,0,0,0,0c0-14.2,11.5-25.8,25.7-25.8       c14.2,0,25.8,11.5,25.8,25.7c0,0,0,0,0,0C305,138.7,293.4,150.3,279.2,150.3z" />
				</g>
				<g
   id="XMLID_140_">
					<g
   id="XMLID_141_">
						<path
   id="aZeWTS5nc_2_"
   class="st1"
   d="M279.2,150.3c-14.2,0-25.8-11.5-25.8-25.7c0,0,0,0,0,0c0-14.2,11.5-25.8,25.7-25.8        c14.2,0,25.8,11.5,25.8,25.7c0,0,0,0,0,0C305,138.7,293.4,150.3,279.2,150.3z" />
					</g>
				</g>
			</g>
			<g
   id="XMLID_133_">
				<g
   id="XMLID_138_">
					<path
   id="a2nPrJy9u_5_"
   class="st4"
   d="M336.3,150.3c-14.2,0-25.8-11.5-25.8-25.7c0,0,0,0,0,0c0-14.2,11.5-25.8,25.7-25.8       c14.2,0,25.8,11.5,25.8,25.7c0,0,0,0,0,0C362,138.7,350.5,150.3,336.3,150.3z" />
				</g>
				<g
   id="XMLID_134_">
					<g
   id="XMLID_135_">
						<path
   id="a2nPrJy9u_2_"
   class="st1"
   d="M336.3,150.3c-14.2,0-25.8-11.5-25.8-25.7c0,0,0,0,0,0c0-14.2,11.5-25.8,25.7-25.8        c14.2,0,25.8,11.5,25.8,25.7c0,0,0,0,0,0C362,138.7,350.5,150.3,336.3,150.3z" />
					</g>
				</g>
			</g>
			<g
   id="XMLID_127_">
				<g
   id="XMLID_132_">
					<path
   id="d54pObWPAH_5_"
   class="st11"
   d="M330,137.7c-4.6,0-8.3-3.7-8.3-8.3c0-4.6,3.7-8.3,8.3-8.3c4.6,0,8.3,3.7,8.3,8.3       C338.3,134,334.6,137.7,330,137.7z" />
				</g>
				<g
   id="XMLID_128_">
					<g
   id="XMLID_129_">
						<path
   id="d54pObWPAH_2_"
   class="st5"
   d="M330,137.7c-4.6,0-8.3-3.7-8.3-8.3c0-4.6,3.7-8.3,8.3-8.3c4.6,0,8.3,3.7,8.3,8.3        C338.3,134,334.6,137.7,330,137.7z" />
					</g>
				</g>
			</g>
			<g
   id="XMLID_121_">
				<g
   id="XMLID_126_">
					<path
   id="a4CJPQzWf7_5_"
   class="st11"
   d="M328,176.8c6.3,8.2-9.5,31.5-21.9,30.5c-12.4-0.9-27.3-21-21.9-29.9       C289.3,168.6,321.3,168.2,328,176.8z" />
				</g>
				<g
   id="XMLID_122_">
					<g
   id="XMLID_123_">
						<path
   id="a4CJPQzWf7_2_"
   class="st5"
   d="M328,176.8c6.3,8.2-9.5,31.5-21.9,30.5c-12.4-0.9-27.3-21-21.9-29.9        C289.3,168.6,321.3,168.2,328,176.8z" />
					</g>
				</g>
			</g>
			<g
   id="XMLID_115_">
				<g
   id="XMLID_120_">
					<path
   id="jrrKyMciy_5_"
   class="st0"
   d="M361.9,68.4c7.7,5.2,14.4,11.9,19.6,19.6c4-2.5,6.6-7,6.6-12c0-7.8-6.4-14.2-14.2-14.2       C368.9,61.8,364.4,64.4,361.9,68.4z" />
				</g>
				<g
   id="XMLID_116_">
					<g
   id="XMLID_117_">
						<path
   id="jrrKyMciy_2_"
   class="st1"
   d="M361.9,68.4c7.7,5.2,14.4,11.9,19.6,19.6c4-2.5,6.6-7,6.6-12c0-7.8-6.4-14.2-14.2-14.2        C368.9,61.8,364.4,64.4,361.9,68.4z" />
					</g>
				</g>
			</g>
			<g
   id="XMLID_109_">
				<g
   id="XMLID_114_">
					<path
   id="a6YIiGtEB_5_"
   class="st11"
   d="M286.7,137.7c-4.6,0-8.3-3.7-8.3-8.3c0-4.6,3.7-8.3,8.3-8.3c4.6,0,8.3,3.7,8.3,8.3       C295,134,291.3,137.7,286.7,137.7z" />
				</g>
				<g
   id="XMLID_110_">
					<g
   id="XMLID_111_">
						<path
   id="a6YIiGtEB_2_"
   class="st5"
   d="M286.7,137.7c-4.6,0-8.3-3.7-8.3-8.3c0-4.6,3.7-8.3,8.3-8.3c4.6,0,8.3,3.7,8.3,8.3        C295,134,291.3,137.7,286.7,137.7z" />
					</g>
				</g>
			</g>
			<g
   id="XMLID_103_">
				<g
   id="XMLID_108_">
					<path
   id="f1FVOuGmJc_5_"
   class="st0"
   d="M253,68.4c-7.7,5.2-14.4,11.9-19.6,19.6c-4-2.5-6.6-7-6.6-12c0-7.8,6.4-14.2,14.2-14.2       C246,61.8,250.4,64.4,253,68.4z" />
				</g>
				<g
   id="XMLID_104_">
					<g
   id="XMLID_105_">
						<path
   id="f1FVOuGmJc_2_"
   class="st1"
   d="M253,68.4c-7.7,5.2-14.4,11.9-19.6,19.6c-4-2.5-6.6-7-6.6-12        c0-7.8,6.4-14.2,14.2-14.2C246,61.8,250.4,64.4,253,68.4z" />
					</g>
				</g>
			</g>
			<g
   id="XMLID_96_">
				<g
   id="XMLID_101_">
					<path
   id="a9HkbVhbv_6_"
   class="st6"
   d="M393.8,124.9c0,50.5-41,91.5-91.5,91.5c-38.6,0-71.5-23.9-85-57.7       c7.7,42.8,45,75.3,90,75.3c50.5,0,91.5-41,91.5-91.5c0-11.9-2.3-23.3-6.5-33.7C393.3,114.1,393.8,119.4,393.8,124.9z" />
				</g>
				<g
   id="XMLID_97_">
					<g
   id="XMLID_98_">
						<path
   id="a9HkbVhbv_2_"
   class="st5"
   d="M393.8,124.9c0,50.5-41,91.5-91.5,91.5c-38.6,0-71.5-23.9-85-57.7        c7.7,42.8,45,75.3,90,75.3c50.5,0,91.5-41,91.5-91.5c0-11.9-2.3-23.3-6.5-33.7C393.3,114.1,393.8,119.4,393.8,124.9z" />
					</g>
				</g>
			</g>
			<g
   id="XMLID_90_">
				<g
   id="XMLID_95_">
					<path
   id="c1JZ5Dxg7v_5_"
   class="st2"
   d="M384.7,140.5c13.7-6.3,46.6,16,45.2,22.6c-19.5-6.9-29.2-6.9-39.9-2.6       c11.7,4.9,24.5,16.2,25.2,28c-8.1-6.8-23-13.3-38.3-10.4c7.6,9,18,17.3,15.2,29.2c-9.5-10-18.8-11.4-28.1-13.9" />
				</g>
				<g
   id="XMLID_91_">
					<g
   id="XMLID_92_">
						<path
   id="c1JZ5Dxg7v_2_"
   class="st1"
   d="M384.7,140.5c13.7-6.3,46.6,16,45.2,22.6c-19.5-6.9-29.2-6.9-39.9-2.6        c11.7,4.9,24.5,16.2,25.2,28c-8.1-6.8-23-13.3-38.3-10.4c7.6,9,18,17.3,15.2,29.2c-9.5-10-18.8-11.4-28.1-13.9" />
					</g>
				</g>
			</g>
			<g
   id="XMLID_84_">
				<g
   id="XMLID_89_">
					<path
   id="f44fmvJHb_5_"
   class="st2"
   d="M230.3,140.5c-13.7-6.3-46.6,16-45.2,22.6c19.5-6.9,29.2-6.9,39.9-2.6       c-11.7,4.9-24.5,16.2-25.2,28c8.1-6.8,23.1-13.3,38.3-10.4c-7.7,9-18,17.3-15.2,29.2c9.5-10,18.8-11.4,28.1-13.9" />
				</g>
				<g
   id="XMLID_85_">
					<g
   id="XMLID_86_">
						<path
   id="f44fmvJHb_2_"
   class="st1"
   d="M230.3,140.5c-13.7-6.3-46.6,16-45.2,22.6c19.5-6.9,29.2-6.9,39.9-2.6        c-11.7,4.9-24.5,16.2-25.2,28c8.1-6.8,23.1-13.3,38.3-10.4c-7.7,9-18,17.3-15.2,29.2c9.5-10,18.8-11.4,28.1-13.9" />
					</g>
				</g>
			</g>
			<g
   id="XMLID_78_">
				<g
   id="XMLID_83_">
					<path
   id="a829yc3qiN_5_"
   class="st4"
   d="M320.1,216.5c6.5-2.6-2.6,20-5.3,22.2c-2.5,2.1-14.4,1.8-16.9,0       c-2.7-2-12.1-24.9-4.5-22.2C301.6,219.3,313.8,219,320.1,216.5z" />
				</g>
				<g
   id="XMLID_79_">
					<g
   id="XMLID_80_">
						<path
   id="a829yc3qiN_2_"
   class="st1"
   d="M320.1,216.5c6.5-2.6-2.6,20-5.3,22.2c-2.5,2.1-14.4,1.8-16.9,0        c-2.7-2-12.1-24.9-4.5-22.2C301.6,219.3,313.8,219,320.1,216.5z" />
					</g>
				</g>
			</g>
			<g
   id="XMLID_71_">
				<g
   id="XMLID_76_">
					<path
   id="b4VzF9xxH_6_"
   class="st6"
   d="M270.4,319.4c-16,0-28.9-12.9-28.9-28.9c0-16,12.9-28.9,28.9-28.9       c16,0,28.9,12.9,28.9,28.9C299.3,306.5,286.4,319.4,270.4,319.4z" />
				</g>
				<g
   id="XMLID_72_">
					<g
   id="XMLID_73_">
						<path
   id="b4VzF9xxH_2_"
   class="st5"
   d="M270.4,319.4c-16,0-28.9-12.9-28.9-28.9c0-16,12.9-28.9,28.9-28.9        c16,0,28.9,12.9,28.9,28.9C299.3,306.5,286.4,319.4,270.4,319.4z" />
					</g>
				</g>
			</g>
			<g
   id="XMLID_65_">
				<g
   id="XMLID_70_">
					<path
   id="e206ZXtRDb_5_"
   class="st2"
   d="M280.1,308.8c-13.8,8-31.5,3.3-39.5-10.6c0,0,0,0,0,0c-8-13.8-3.3-31.5,10.6-39.5       c13.8-8,31.5-3.3,39.5,10.6c0,0,0,0,0,0C298.7,283.1,293.9,300.8,280.1,308.8z" />
				</g>
				<g
   id="XMLID_66_">
					<g
   id="XMLID_67_">
						<path
   id="e206ZXtRDb_2_"
   class="st1"
   d="M280.1,308.8c-13.8,8-31.5,3.3-39.5-10.6c0,0,0,0,0,0c-8-13.8-3.3-31.5,10.6-39.5        c13.8-8,31.5-3.3,39.5,10.6c0,0,0,0,0,0C298.7,283.1,293.9,300.8,280.1,308.8z" />
					</g>
				</g>
			</g>
			<g
   id="XMLID_59_">
				<g
   id="XMLID_64_">
					<path
   id="e1PR7oqgOv_5_"
   class="st0"
   d="M268.3,308.7c-4.8,2.7-11.2,0.6-14.3-4.8c-3.1-5.4-1.8-12,3-14.8       c4.8-2.8,11.2-0.6,14.3,4.8v0C274.4,299.4,273.1,306,268.3,308.7z" />
				</g>
				<g
   id="XMLID_60_">
					<g
   id="XMLID_61_">
						<path
   id="e1PR7oqgOv_2_"
   class="st7"
   d="M268.3,308.7c-4.8,2.7-11.2,0.6-14.3-4.8c-3.1-5.4-1.8-12,3-14.8        c4.8-2.8,11.2-0.6,14.3,4.8v0C274.4,299.4,273.1,306,268.3,308.7z" />
					</g>
				</g>
			</g>
			<g
   id="XMLID_53_">
				<g
   id="XMLID_58_">
					<path
   id="a31TWgznN3_5_"
   class="st0"
   d="M289.9,296.3c-4.8,2.8-11.2,0.6-14.3-4.8c-3.1-5.4-1.8-12,3-14.8       c4.8-2.8,11.2-0.6,14.3,4.8l0,0C296,286.9,294.7,293.5,289.9,296.3z" />
				</g>
				<g
   id="XMLID_54_">
					<g
   id="XMLID_55_">
						<path
   id="a31TWgznN3_2_"
   class="st7"
   d="M289.9,296.3c-4.8,2.8-11.2,0.6-14.3-4.8c-3.1-5.4-1.8-12,3-14.8        c4.8-2.8,11.2-0.6,14.3,4.8l0,0C296,286.9,294.7,293.5,289.9,296.3z" />
					</g>
				</g>
			</g>
			<g
   id="XMLID_47_">
				<g
   id="XMLID_52_">
					<path
   id="cJTPwUyrL_5_"
   class="st0"
   d="M282.2,307.8c-4.8,2.8-11.2,0.6-14.3-4.8c-3.1-5.4-1.8-12,3-14.8       c4.7-2.8,11.2-0.6,14.3,4.8l0,0C288.3,298.5,287,305.1,282.2,307.8z" />
				</g>
				<g
   id="XMLID_48_">
					<g
   id="XMLID_49_">
						<path
   id="cJTPwUyrL_2_"
   class="st7"
   d="M282.2,307.8c-4.8,2.8-11.2,0.6-14.3-4.8c-3.1-5.4-1.8-12,3-14.8        c4.7-2.8,11.2-0.6,14.3,4.8l0,0C288.3,298.5,287,305.1,282.2,307.8z" />
					</g>
				</g>
			</g>
			<g
   id="XMLID_41_">
				
				
			</g>
			<g
   id="XMLID_34_">
				<g
   id="XMLID_39_">
					<path
   id="a1SGTA640l_6_"
   class="st6"
   d="M344.3,317.3c-15.4-4.1-24.6-20-20.4-35.4c4.1-15.4,20-24.6,35.4-20.5       c15.4,4.1,24.6,20,20.5,35.4C375.6,312.3,359.7,321.5,344.3,317.3z" />
				</g>
				<g
   id="XMLID_35_">
					<g
   id="XMLID_36_">
						<path
   id="a1SGTA640l_2_"
   class="st5"
   d="M344.3,317.3c-15.4-4.1-24.6-20-20.4-35.4c4.1-15.4,20-24.6,35.4-20.5        c15.4,4.1,24.6,20,20.5,35.4C375.6,312.3,359.7,321.5,344.3,317.3z" />
					</g>
				</g>
			</g>
			<g
   id="XMLID_28_">
				<g
   id="XMLID_33_">
					<path
   id="f8N5LutMS_5_"
   class="st2"
   d="M326.2,303.4c-11.3-11.3-11.3-29.6,0-40.9c0,0,0,0,0,0c11.3-11.3,29.6-11.3,40.9,0       c11.3,11.3,11.3,29.6,0,40.9c0,0,0,0,0,0C355.9,314.7,337.5,314.7,326.2,303.4z" />
				</g>
				<g
   id="XMLID_29_">
					<g
   id="XMLID_30_">
						<path
   id="f8N5LutMS_2_"
   class="st1"
   d="M326.2,303.4c-11.3-11.3-11.3-29.6,0-40.9c0,0,0,0,0,0c11.3-11.3,29.6-11.3,40.9,0        c11.3,11.3,11.3,29.6,0,40.9c0,0,0,0,0,0C355.9,314.7,337.5,314.7,326.2,303.4z" />
					</g>
				</g>
			</g>
			<g
   id="XMLID_22_">
				<g
   id="XMLID_27_">
					<path
   id="bn1yECokl_5_"
   class="st0"
   d="M345.4,309.9c4.8,2.7,11.2,0.6,14.3-4.8c3.1-5.4,1.8-12-3-14.8       c-4.7-2.7-11.2-0.6-14.3,4.8l0,0C339.3,300.5,340.7,307.1,345.4,309.9z" />
				</g>
				<g
   id="XMLID_23_">
					<g
   id="XMLID_24_">
						<path
   id="bn1yECokl_2_"
   class="st7"
   d="M345.4,309.9c4.8,2.7,11.2,0.6,14.3-4.8c3.1-5.4,1.8-12-3-14.8        c-4.7-2.7-11.2-0.6-14.3,4.8l0,0C339.3,300.5,340.7,307.1,345.4,309.9z" />
					</g>
				</g>
			</g>
			<g
   id="XMLID_15_">
				<g
   id="XMLID_21_">
					<path
   id="jQ2kBheHQ_5_"
   class="st0"
   d="M323.8,297.4c4.8,2.8,11.2,0.6,14.3-4.8c3.1-5.4,1.8-12-3-14.8       c-4.8-2.8-11.2-0.6-14.3,4.8l0,0C317.7,288,319,294.6,323.8,297.4z" />
				</g>
				<g
   id="XMLID_16_">
					<g
   id="XMLID_18_">
						<path
   id="jQ2kBheHQ_2_"
   class="st7"
   d="M323.8,297.4c4.8,2.8,11.2,0.6,14.3-4.8c3.1-5.4,1.8-12-3-14.8        c-4.8-2.8-11.2-0.6-14.3,4.8l0,0C317.7,288,319,294.6,323.8,297.4z" />
					</g>
				</g>
			</g>
			<g
   id="XMLID_8_">
				<g
   id="XMLID_14_">
					<path
   id="bv6CDs0t_5_"
   class="st0"
   d="M331.5,309c4.8,2.8,11.2,0.6,14.3-4.8c3.1-5.4,1.8-12-3-14.8c-4.7-2.8-11.2-0.6-14.3,4.8       l0,0C325.4,299.6,326.8,306.2,331.5,309z" />
				</g>
				<g
   id="XMLID_9_">
					<g
   id="XMLID_10_">
						<path
   id="bv6CDs0t_2_"
   class="st7"
   d="M331.5,309c4.8,2.8,11.2,0.6,14.3-4.8c3.1-5.4,1.8-12-3-14.8        c-4.7-2.8-11.2-0.6-14.3,4.8l0,0C325.4,299.6,326.8,306.2,331.5,309z" />
					</g>
				</g>
			</g>
		</g>
	</g>
</g>
<g
   id="XMLID_17_">
	
		<rect
   id="XMLID_1325_"
   x="383"
   y="83.1"
   transform="matrix(0.8434 0.5373 -0.5373 0.8434 139.974 -226.5087)"
   class="st13"
   width="151"
   height="87.4" />
	<path
   id="XMLID_1317_"
   d="M420.9,53.2l24.4,15.5l-4.6,7.3l-16-10.2l-4.4,6.9l12.8,8.2l-4.6,7.2l-12.8-8.2l-9,14.1l-8.4-5.4   L420.9,53.2z" />
	<path
   id="XMLID_1319_"
   d="M450.2,71.8l8.4,5.4L436,112.6l-8.4-5.4L450.2,71.8z" />
	<path
   id="XMLID_1321_"
   d="M474.3,127.1c-2.9,4.6-6.8,5.5-11.4,2.5l-13-8.3c-4.6-2.9-5.5-6.8-2.5-11.4l18.1-28.4l8.4,5.4l-17.2,27   c-0.4,0.7-0.3,1.2,0.3,1.6l8.2,5.3c0.7,0.5,1.2,0.3,1.6-0.3l17.2-27l8.4,5.4L474.3,127.1z" />
	<path
   id="XMLID_1323_"
   d="M510.7,121.7c0.5-0.8,0.4-1.1-0.3-1.6l-7.3-4.6c-0.7-0.5-1.1-0.4-1.6,0.3l-2.1,3.3   c-0.5,0.8-0.4,1.3,0.6,2.2l8,8.3c4,4.2,5.7,7.1,2.6,11.9l-4,6.2c-3,4.7-6.7,5.5-11.4,2.5l-12.7-8.1c-4.7-3-5.5-6.7-2.5-11.4l3-4.7   l8.3,5.3L489,135c-0.5,0.7-0.4,1.1,0.3,1.6l8,5.1c0.7,0.5,1.1,0.4,1.6-0.3l2.4-3.7c0.5-0.8,0.3-1.3-0.6-2.2l-8-8.3   c-4-4.2-5.7-7.1-2.6-11.9l3.7-5.8c3-4.8,6.7-5.5,11.4-2.5l11.9,7.6c4.7,3,5.6,6.7,2.5,11.4l-2.7,4.3l-8.3-5.3L510.7,121.7z" />
</g>

<g
   id="XMLID_4_">
</g>
<g
   id="XMLID_12_">
</g>
<g
   id="XMLID_1326_">
</g>
<g
   id="XMLID_1327_">
</g>
<g
   id="XMLID_1328_">
</g>
<g
   id="XMLID_1329_">
</g>
</svg>